%TF.GenerationSoftware,KiCad,Pcbnew,9.0.5*%
%TF.CreationDate,2025-10-26T23:22:08+01:00*%
%TF.ProjectId,emetteur,656d6574-7465-4757-922e-6b696361645f,rev?*%
%TF.SameCoordinates,Original*%
%TF.FileFunction,Copper,L1,Top*%
%TF.FilePolarity,Positive*%
%FSLAX46Y46*%
G04 Gerber Fmt 4.6, Leading zero omitted, Abs format (unit mm)*
G04 Created by KiCad (PCBNEW 9.0.5) date 2025-10-26 23:22:08*
%MOMM*%
%LPD*%
G01*
G04 APERTURE LIST*
G04 Aperture macros list*
%AMRoundRect*
0 Rectangle with rounded corners*
0 $1 Rounding radius*
0 $2 $3 $4 $5 $6 $7 $8 $9 X,Y pos of 4 corners*
0 Add a 4 corners polygon primitive as box body*
4,1,4,$2,$3,$4,$5,$6,$7,$8,$9,$2,$3,0*
0 Add four circle primitives for the rounded corners*
1,1,$1+$1,$2,$3*
1,1,$1+$1,$4,$5*
1,1,$1+$1,$6,$7*
1,1,$1+$1,$8,$9*
0 Add four rect primitives between the rounded corners*
20,1,$1+$1,$2,$3,$4,$5,0*
20,1,$1+$1,$4,$5,$6,$7,0*
20,1,$1+$1,$6,$7,$8,$9,0*
20,1,$1+$1,$8,$9,$2,$3,0*%
G04 Aperture macros list end*
%TA.AperFunction,SMDPad,CuDef*%
%ADD10R,0.740000X2.400000*%
%TD*%
%TA.AperFunction,SMDPad,CuDef*%
%ADD11R,2.000000X2.000000*%
%TD*%
%TA.AperFunction,SMDPad,CuDef*%
%ADD12RoundRect,0.237500X0.250000X0.237500X-0.250000X0.237500X-0.250000X-0.237500X0.250000X-0.237500X0*%
%TD*%
%TA.AperFunction,ComponentPad*%
%ADD13C,1.300000*%
%TD*%
%TA.AperFunction,SMDPad,CuDef*%
%ADD14R,0.950000X1.750000*%
%TD*%
%TA.AperFunction,SMDPad,CuDef*%
%ADD15R,3.200000X1.750000*%
%TD*%
%TA.AperFunction,ComponentPad*%
%ADD16R,1.700000X1.700000*%
%TD*%
%TA.AperFunction,ComponentPad*%
%ADD17C,1.700000*%
%TD*%
%TA.AperFunction,SMDPad,CuDef*%
%ADD18RoundRect,0.237500X-0.250000X-0.237500X0.250000X-0.237500X0.250000X0.237500X-0.250000X0.237500X0*%
%TD*%
%TA.AperFunction,SMDPad,CuDef*%
%ADD19R,0.620000X1.470000*%
%TD*%
%TA.AperFunction,SMDPad,CuDef*%
%ADD20R,1.820000X0.620000*%
%TD*%
%TA.AperFunction,SMDPad,CuDef*%
%ADD21R,0.940000X0.540000*%
%TD*%
%TA.AperFunction,SMDPad,CuDef*%
%ADD22R,0.620000X0.420000*%
%TD*%
%TA.AperFunction,SMDPad,CuDef*%
%ADD23R,0.540000X0.940000*%
%TD*%
%TA.AperFunction,SMDPad,CuDef*%
%ADD24R,1.475000X0.300000*%
%TD*%
%TA.AperFunction,SMDPad,CuDef*%
%ADD25R,0.300000X1.475000*%
%TD*%
%TA.AperFunction,SMDPad,CuDef*%
%ADD26RoundRect,0.250000X-0.400000X-0.625000X0.400000X-0.625000X0.400000X0.625000X-0.400000X0.625000X0*%
%TD*%
%TA.AperFunction,SMDPad,CuDef*%
%ADD27RoundRect,0.250000X-0.800000X-0.650000X0.800000X-0.650000X0.800000X0.650000X-0.800000X0.650000X0*%
%TD*%
%TA.AperFunction,ComponentPad*%
%ADD28C,1.500000*%
%TD*%
%TA.AperFunction,SMDPad,CuDef*%
%ADD29R,0.500000X1.075000*%
%TD*%
%TA.AperFunction,SMDPad,CuDef*%
%ADD30RoundRect,0.250000X0.400000X0.625000X-0.400000X0.625000X-0.400000X-0.625000X0.400000X-0.625000X0*%
%TD*%
%TA.AperFunction,SMDPad,CuDef*%
%ADD31R,0.620000X1.820000*%
%TD*%
%TA.AperFunction,SMDPad,CuDef*%
%ADD32RoundRect,0.237500X-0.237500X0.250000X-0.237500X-0.250000X0.237500X-0.250000X0.237500X0.250000X0*%
%TD*%
%TA.AperFunction,ViaPad*%
%ADD33C,0.700000*%
%TD*%
%TA.AperFunction,ViaPad*%
%ADD34C,1.000000*%
%TD*%
%TA.AperFunction,Conductor*%
%ADD35C,0.500000*%
%TD*%
%TA.AperFunction,Conductor*%
%ADD36C,0.300000*%
%TD*%
%TA.AperFunction,Conductor*%
%ADD37C,1.000000*%
%TD*%
G04 APERTURE END LIST*
D10*
%TO.P,J5,1,VTref*%
%TO.N,+3.3V*%
X158040000Y-73050000D03*
%TO.P,J5,2,SWDIO/TMS*%
%TO.N,/\u00C9metteur cam\u00E9ra/JTMS{slash}SWDIO*%
X158040000Y-76950000D03*
%TO.P,J5,3,GND*%
%TO.N,GND*%
X156770000Y-73050000D03*
%TO.P,J5,4,SWCLK/TCK*%
%TO.N,/\u00C9metteur cam\u00E9ra/JTCK{slash}SWCLK*%
X156770000Y-76950000D03*
%TO.P,J5,5,GND*%
%TO.N,GND*%
X155500000Y-73050000D03*
%TO.P,J5,6,SWO/TDO*%
%TO.N,/\u00C9metteur cam\u00E9ra/JTDO*%
X155500000Y-76950000D03*
%TO.P,J5,7,KEY*%
%TO.N,unconnected-(J5-KEY-Pad7)*%
X154230000Y-73050000D03*
%TO.P,J5,8,NC/TDI*%
%TO.N,/\u00C9metteur cam\u00E9ra/JTDI*%
X154230000Y-76950000D03*
%TO.P,J5,9,GNDDetect*%
%TO.N,GND*%
X152960000Y-73050000D03*
%TO.P,J5,10,~{RESET}*%
%TO.N,/\u00C9metteur cam\u00E9ra/JTNRST*%
X152960000Y-76950000D03*
%TD*%
D11*
%TO.P,J1,-*%
%TO.N,GND*%
X117350000Y-67500000D03*
X111150000Y-67500000D03*
%TO.P,J1,+*%
%TO.N,+9{slash}28V*%
X117350000Y-56500000D03*
X111150000Y-56500000D03*
%TD*%
D12*
%TO.P,R3,1*%
%TO.N,Net-(R1-Pad2)*%
X159662500Y-99750000D03*
%TO.P,R3,2*%
%TO.N,/\u00C9metteur cam\u00E9ra/I2C_{2}_SDA*%
X157837500Y-99750000D03*
%TD*%
D13*
%TO.P,LED5,1,K*%
%TO.N,GND*%
X118710000Y-72000000D03*
%TO.P,LED5,2,A*%
%TO.N,Net-(LED5-A)*%
X121250000Y-72000000D03*
%TD*%
D14*
%TO.P,IC2,1,INPUT*%
%TO.N,+9{slash}28V*%
X142050000Y-58600000D03*
%TO.P,IC2,2,GND_{1}*%
%TO.N,GND*%
X139750000Y-58600000D03*
%TO.P,IC2,3,OUTPUT*%
%TO.N,+5V*%
X137450000Y-58600000D03*
D15*
%TO.P,IC2,4,GND_{2}*%
%TO.N,GND*%
X139750000Y-64900000D03*
%TD*%
D16*
%TO.P,J3,1,GND*%
%TO.N,GND*%
X160500000Y-84130000D03*
D17*
%TO.P,J3,2,VCC*%
%TO.N,+3.3V*%
X163040000Y-84130000D03*
%TO.P,J3,3,CE*%
%TO.N,/\u00C9metteur cam\u00E9ra/~{RESET}*%
X160500000Y-86670000D03*
%TO.P,J3,4,~{CS}*%
%TO.N,GND*%
X163040000Y-86670000D03*
%TO.P,J3,5,SCL*%
%TO.N,/\u00C9metteur cam\u00E9ra/SPI_{2}_SCLK*%
X160500000Y-89210000D03*
%TO.P,J3,6,MOSI*%
%TO.N,/\u00C9metteur cam\u00E9ra/SPI_{2}_MISO*%
X163040000Y-89210000D03*
%TO.P,J3,7,MISO*%
%TO.N,/\u00C9metteur cam\u00E9ra/SPI_{2}_MOSI*%
X160500000Y-91750000D03*
%TO.P,J3,8,IRQ*%
%TO.N,/\u00C9metteur cam\u00E9ra/IRQ_{0}*%
X163040000Y-91750000D03*
%TD*%
D18*
%TO.P,R18,1*%
%TO.N,+3.3V*%
X132587500Y-71750000D03*
%TO.P,R18,2*%
%TO.N,Net-(LED6-A)*%
X134412500Y-71750000D03*
%TD*%
%TO.P,R4,1*%
%TO.N,Net-(R2-Pad2)*%
X150837500Y-101750000D03*
%TO.P,R4,2*%
%TO.N,/\u00C9metteur cam\u00E9ra/I2C_{2}_SCL*%
X152662500Y-101750000D03*
%TD*%
D19*
%TO.P,C8,1,1*%
%TO.N,GND*%
X144250000Y-79000000D03*
%TO.P,C8,2,2*%
%TO.N,Net-(U1-VCAP_1)*%
X146250000Y-79000000D03*
%TD*%
D12*
%TO.P,R8,1*%
%TO.N,/\u00C9metteur cam\u00E9ra/dbgUsrLed_{3}*%
X131662500Y-92750000D03*
%TO.P,R8,2*%
%TO.N,Net-(LED4-A)*%
X129837500Y-92750000D03*
%TD*%
D20*
%TO.P,C18,1,1*%
%TO.N,+9{slash}28V*%
X133500000Y-57900000D03*
%TO.P,C18,2,2*%
%TO.N,GND*%
X133500000Y-61100000D03*
%TD*%
D21*
%TO.P,C14,1,1*%
%TO.N,/\u00C9metteur cam\u00E9ra/~{RESET}*%
X115250000Y-72850000D03*
%TO.P,C14,2,2*%
%TO.N,GND*%
X115250000Y-71250000D03*
%TD*%
D20*
%TO.P,C17,1,1*%
%TO.N,+9{slash}28V*%
X129830000Y-57900000D03*
%TO.P,C17,2,2*%
%TO.N,GND*%
X129830000Y-61100000D03*
%TD*%
D21*
%TO.P,C6,1,1*%
%TO.N,+3.3V*%
X154250000Y-85700000D03*
%TO.P,C6,2,2*%
%TO.N,GND*%
X154250000Y-87300000D03*
%TD*%
%TO.P,C16,1,1*%
%TO.N,/\u00C9metteur cam\u00E9ra/usrSubmitCmd*%
X113000000Y-72850000D03*
%TO.P,C16,2,2*%
%TO.N,GND*%
X113000000Y-71250000D03*
%TD*%
D16*
%TO.P,J4,1,Pin_1*%
%TO.N,+3.3V*%
X137340000Y-106000000D03*
D17*
%TO.P,J4,2,Pin_2*%
%TO.N,/\u00C9metteur cam\u00E9ra/SPI_{1}_SCLK*%
X139880000Y-106000000D03*
%TO.P,J4,3,Pin_3*%
%TO.N,/\u00C9metteur cam\u00E9ra/SPI_{1}_MOSI*%
X142420000Y-106000000D03*
%TO.P,J4,4,Pin_4*%
%TO.N,/\u00C9metteur cam\u00E9ra/SPI_{1}_MISO*%
X144960000Y-106000000D03*
%TO.P,J4,5,Pin_5*%
%TO.N,+5V*%
X147500000Y-106000000D03*
%TO.P,J4,6,Pin_6*%
%TO.N,GND*%
X150040000Y-106000000D03*
%TO.P,J4,7,Pin_7*%
%TO.N,/\u00C9metteur cam\u00E9ra/I2C_{2}_SDA*%
X152580000Y-106000000D03*
%TO.P,J4,8,Pin_8*%
%TO.N,/\u00C9metteur cam\u00E9ra/I2C_{2}_SCL*%
X155120000Y-106000000D03*
%TD*%
D22*
%TO.P,C2,1,1*%
%TO.N,GND*%
X138400000Y-89650000D03*
%TO.P,C2,2,2*%
%TO.N,+3.3V*%
X138400000Y-90750000D03*
%TD*%
D23*
%TO.P,C12,1,1*%
%TO.N,/\u00C9metteur cam\u00E9ra/HSE_1*%
X136050000Y-91500000D03*
%TO.P,C12,2,2*%
%TO.N,GND*%
X134450000Y-91500000D03*
%TD*%
D21*
%TO.P,C4,1,1*%
%TO.N,+3.3V*%
X140600000Y-91000000D03*
%TO.P,C4,2,2*%
%TO.N,GND*%
X140600000Y-89400000D03*
%TD*%
D24*
%TO.P,U1,1,VBAT*%
%TO.N,+3.3V*%
X143762000Y-86238000D03*
%TO.P,U1,2,PC13*%
%TO.N,unconnected-(U1-PC13-Pad2)*%
X143762000Y-86738000D03*
%TO.P,U1,3,PC14*%
%TO.N,unconnected-(U1-PC14-Pad3)*%
X143762000Y-87238000D03*
%TO.P,U1,4,PC15*%
%TO.N,unconnected-(U1-PC15-Pad4)*%
X143762000Y-87738000D03*
%TO.P,U1,5,OSC_IN*%
%TO.N,/\u00C9metteur cam\u00E9ra/HSE_0*%
X143762000Y-88238000D03*
%TO.P,U1,6,OSC_OUT*%
%TO.N,/\u00C9metteur cam\u00E9ra/HSE_1*%
X143762000Y-88738000D03*
%TO.P,U1,7,~{RESET}*%
%TO.N,/\u00C9metteur cam\u00E9ra/~{RESET}*%
X143762000Y-89238000D03*
%TO.P,U1,8,VSSA*%
%TO.N,GND*%
X143762000Y-89738000D03*
%TO.P,U1,9,VDDA*%
%TO.N,+3.3V*%
X143762000Y-90238000D03*
%TO.P,U1,10,PA0*%
%TO.N,/\u00C9metteur cam\u00E9ra/usrSubmitCmd*%
X143762000Y-90738000D03*
%TO.P,U1,11,PA1*%
%TO.N,/\u00C9metteur cam\u00E9ra/IRQ_{0}*%
X143762000Y-91238000D03*
%TO.P,U1,12,PA2*%
%TO.N,unconnected-(U1-PA2-Pad12)*%
X143762000Y-91738000D03*
D25*
%TO.P,U1,13,PA3*%
%TO.N,unconnected-(U1-PA3-Pad13)*%
X145250000Y-93226000D03*
%TO.P,U1,14,PA4*%
%TO.N,unconnected-(U1-PA4-Pad14)*%
X145750000Y-93226000D03*
%TO.P,U1,15,PA5*%
%TO.N,/\u00C9metteur cam\u00E9ra/SPI_{1}_SCLK*%
X146250000Y-93226000D03*
%TO.P,U1,16,PA6*%
%TO.N,/\u00C9metteur cam\u00E9ra/SPI_{1}_MISO*%
X146750000Y-93226000D03*
%TO.P,U1,17,PA7*%
%TO.N,/\u00C9metteur cam\u00E9ra/SPI_{1}_MOSI*%
X147250000Y-93226000D03*
%TO.P,U1,18,PB0*%
%TO.N,/\u00C9metteur cam\u00E9ra/usrCmd_{0}*%
X147750000Y-93226000D03*
%TO.P,U1,19,PB1*%
%TO.N,/\u00C9metteur cam\u00E9ra/usrCmd_{1}*%
X148250000Y-93226000D03*
%TO.P,U1,20,PB2*%
%TO.N,/\u00C9metteur cam\u00E9ra/usrCmd_{2}*%
X148750000Y-93226000D03*
%TO.P,U1,21,PB10*%
%TO.N,/\u00C9metteur cam\u00E9ra/I2C_{2}_SCL*%
X149250000Y-93226000D03*
%TO.P,U1,22,VCAP_1*%
%TO.N,Net-(U1-VCAP_1)*%
X149750000Y-93226000D03*
%TO.P,U1,23,VSS_1*%
%TO.N,GND*%
X150250000Y-93226000D03*
%TO.P,U1,24,VDD_1*%
%TO.N,+3.3V*%
X150750000Y-93226000D03*
D24*
%TO.P,U1,25,PB12*%
%TO.N,/\u00C9metteur cam\u00E9ra/I2C_{2}_SDA*%
X152238000Y-91738000D03*
%TO.P,U1,26,PB13*%
%TO.N,/\u00C9metteur cam\u00E9ra/SPI_{2}_SCLK*%
X152238000Y-91238000D03*
%TO.P,U1,27,PB14*%
%TO.N,/\u00C9metteur cam\u00E9ra/SPI_{2}_MISO*%
X152238000Y-90738000D03*
%TO.P,U1,28,PB15*%
%TO.N,/\u00C9metteur cam\u00E9ra/SPI_{2}_MOSI*%
X152238000Y-90238000D03*
%TO.P,U1,29,PA8*%
%TO.N,unconnected-(U1-PA8-Pad29)*%
X152238000Y-89738000D03*
%TO.P,U1,30,PA9*%
%TO.N,unconnected-(U1-PA9-Pad30)*%
X152238000Y-89238000D03*
%TO.P,U1,31,PA10*%
%TO.N,unconnected-(U1-PA10-Pad31)*%
X152238000Y-88738000D03*
%TO.P,U1,32,PA11*%
%TO.N,unconnected-(U1-PA11-Pad32)*%
X152238000Y-88238000D03*
%TO.P,U1,33,PA12*%
%TO.N,unconnected-(U1-PA12-Pad33)*%
X152238000Y-87738000D03*
%TO.P,U1,34,PA13*%
%TO.N,/\u00C9metteur cam\u00E9ra/JTMS{slash}SWDIO*%
X152238000Y-87238000D03*
%TO.P,U1,35,VSS_2*%
%TO.N,GND*%
X152238000Y-86738000D03*
%TO.P,U1,36,VDD_2*%
%TO.N,+3.3V*%
X152238000Y-86238000D03*
D25*
%TO.P,U1,37,PA14*%
%TO.N,/\u00C9metteur cam\u00E9ra/JTCK{slash}SWCLK*%
X150750000Y-84750000D03*
%TO.P,U1,38,PA15*%
%TO.N,/\u00C9metteur cam\u00E9ra/JTDI*%
X150250000Y-84750000D03*
%TO.P,U1,39,PB3*%
%TO.N,/\u00C9metteur cam\u00E9ra/JTDO*%
X149750000Y-84750000D03*
%TO.P,U1,40,PB4*%
%TO.N,/\u00C9metteur cam\u00E9ra/JTNRST*%
X149250000Y-84750000D03*
%TO.P,U1,41,PB5*%
%TO.N,/\u00C9metteur cam\u00E9ra/dbgUsrLed_{0}*%
X148750000Y-84750000D03*
%TO.P,U1,42,PB6*%
%TO.N,/\u00C9metteur cam\u00E9ra/dbgUsrLed_{1}*%
X148250000Y-84750000D03*
%TO.P,U1,43,PB7*%
%TO.N,/\u00C9metteur cam\u00E9ra/dbgUsrLed_{2}*%
X147750000Y-84750000D03*
%TO.P,U1,44,BOOT0*%
%TO.N,/\u00C9metteur cam\u00E9ra/BootMode*%
X147250000Y-84750000D03*
%TO.P,U1,45,PB8*%
%TO.N,/\u00C9metteur cam\u00E9ra/dbgUsrLed_{3}*%
X146750000Y-84750000D03*
%TO.P,U1,46,VCAP_2*%
%TO.N,Net-(U1-VCAP_1)*%
X146250000Y-84750000D03*
%TO.P,U1,47,VSS_3*%
%TO.N,GND*%
X145750000Y-84750000D03*
%TO.P,U1,48,VDD_3*%
%TO.N,+3.3V*%
X145250000Y-84750000D03*
%TD*%
D26*
%TO.P,R13,1*%
%TO.N,GND*%
X122950000Y-100700000D03*
%TO.P,R13,2*%
%TO.N,/\u00C9metteur cam\u00E9ra/usrCmd_{1}*%
X126050000Y-100700000D03*
%TD*%
D27*
%TO.P,Y1,1,1*%
%TO.N,/\u00C9metteur cam\u00E9ra/HSE_1*%
X136300000Y-87150000D03*
%TO.P,Y1,2,2*%
%TO.N,GND*%
X139200000Y-87150000D03*
%TO.P,Y1,3,3*%
%TO.N,/\u00C9metteur cam\u00E9ra/HSE_0*%
X139200000Y-84850000D03*
%TO.P,Y1,4,4*%
%TO.N,GND*%
X136300000Y-84850000D03*
%TD*%
D18*
%TO.P,R17,1*%
%TO.N,+3.3V*%
X132587500Y-69500000D03*
%TO.P,R17,2*%
%TO.N,Net-(LED6-A)*%
X134412500Y-69500000D03*
%TD*%
D28*
%TO.P,S1,1,COM_{0}*%
%TO.N,GND*%
X108440000Y-79460000D03*
%TO.P,S1,2,NO_{0}*%
%TO.N,/\u00C9metteur cam\u00E9ra/~{RESET}*%
X116060000Y-79460000D03*
%TO.P,S1,3,COM_{1}*%
%TO.N,+3.3V*%
X108440000Y-82000000D03*
%TO.P,S1,4,NO_{1}*%
%TO.N,/\u00C9metteur cam\u00E9ra/BootMode*%
X116060000Y-82000000D03*
%TO.P,S1,5,COM_{2}*%
%TO.N,+3.3V*%
X108440000Y-84540000D03*
%TO.P,S1,6,NO_{2}*%
%TO.N,/\u00C9metteur cam\u00E9ra/usrSubmitCmd*%
X116060000Y-84540000D03*
%TD*%
D12*
%TO.P,R16,1*%
%TO.N,+5V*%
X127162500Y-70750000D03*
%TO.P,R16,2*%
%TO.N,Net-(LED5-A)*%
X125337500Y-70750000D03*
%TD*%
D26*
%TO.P,R12,1*%
%TO.N,GND*%
X111450000Y-100750000D03*
%TO.P,R12,2*%
%TO.N,/\u00C9metteur cam\u00E9ra/usrCmd_{0}*%
X114550000Y-100750000D03*
%TD*%
%TO.P,R10,1*%
%TO.N,GND*%
X137450000Y-100750000D03*
%TO.P,R10,2*%
%TO.N,/\u00C9metteur cam\u00E9ra/BootMode*%
X140550000Y-100750000D03*
%TD*%
D12*
%TO.P,R5,1*%
%TO.N,/\u00C9metteur cam\u00E9ra/dbgUsrLed_{0}*%
X132412500Y-77000000D03*
%TO.P,R5,2*%
%TO.N,Net-(LED1-A)*%
X130587500Y-77000000D03*
%TD*%
D14*
%TO.P,IC1,1,GND*%
%TO.N,GND*%
X155800000Y-60850000D03*
%TO.P,IC1,2,OUT_1*%
%TO.N,+3.3V*%
X153500000Y-60850000D03*
%TO.P,IC1,3,IN*%
%TO.N,+5V*%
X151200000Y-60850000D03*
D15*
%TO.P,IC1,4,OUT_2*%
%TO.N,+3.3V*%
X153500000Y-67150000D03*
%TD*%
D29*
%TO.P,D1,1,K*%
%TO.N,+9{slash}28V*%
X125000000Y-60350000D03*
%TO.P,D1,2,A*%
%TO.N,GND*%
X125000000Y-62650000D03*
%TD*%
D23*
%TO.P,C11,1,1*%
%TO.N,/\u00C9metteur cam\u00E9ra/HSE_0*%
X138550000Y-80790000D03*
%TO.P,C11,2,2*%
%TO.N,GND*%
X136950000Y-80790000D03*
%TD*%
D30*
%TO.P,R11,1*%
%TO.N,GND*%
X119800000Y-100750000D03*
%TO.P,R11,2*%
%TO.N,/\u00C9metteur cam\u00E9ra/usrSubmitCmd*%
X116700000Y-100750000D03*
%TD*%
D13*
%TO.P,LED1,1,K*%
%TO.N,GND*%
X124480000Y-78250000D03*
%TO.P,LED1,2,A*%
%TO.N,Net-(LED1-A)*%
X127020000Y-78250000D03*
%TD*%
D23*
%TO.P,C7,1,1*%
%TO.N,+3.3V*%
X152300000Y-95000000D03*
%TO.P,C7,2,2*%
%TO.N,GND*%
X150700000Y-95000000D03*
%TD*%
D13*
%TO.P,LED6,1,K*%
%TO.N,GND*%
X138337500Y-72020000D03*
%TO.P,LED6,2,A*%
%TO.N,Net-(LED6-A)*%
X138337500Y-69480000D03*
%TD*%
D30*
%TO.P,R14,1*%
%TO.N,GND*%
X133050000Y-100750000D03*
%TO.P,R14,2*%
%TO.N,/\u00C9metteur cam\u00E9ra/usrCmd_{2}*%
X129950000Y-100750000D03*
%TD*%
D23*
%TO.P,C5,1,1*%
%TO.N,+3.3V*%
X143700000Y-82238000D03*
%TO.P,C5,2,2*%
%TO.N,GND*%
X145300000Y-82238000D03*
%TD*%
D12*
%TO.P,R1,1*%
%TO.N,+3.3V*%
X163412500Y-99750000D03*
%TO.P,R1,2*%
%TO.N,Net-(R1-Pad2)*%
X161587500Y-99750000D03*
%TD*%
D19*
%TO.P,C9,1,1*%
%TO.N,GND*%
X152750000Y-98000000D03*
%TO.P,C9,2,2*%
%TO.N,Net-(U1-VCAP_1)*%
X150750000Y-98000000D03*
%TD*%
D21*
%TO.P,C3,1,1*%
%TO.N,+3.3V*%
X141200000Y-82600000D03*
%TO.P,C3,2,2*%
%TO.N,GND*%
X141200000Y-81000000D03*
%TD*%
D31*
%TO.P,C21,1,1*%
%TO.N,+3.3V*%
X153650000Y-58000000D03*
%TO.P,C21,2,2*%
%TO.N,GND*%
X156850000Y-58000000D03*
%TD*%
D28*
%TO.P,S2,1,COM_{0}*%
%TO.N,+3.3V*%
X108440000Y-90960000D03*
%TO.P,S2,2,NO_{0}*%
%TO.N,/\u00C9metteur cam\u00E9ra/usrCmd_{0}*%
X116060000Y-90960000D03*
%TO.P,S2,3,COM_{1}*%
%TO.N,+3.3V*%
X108440000Y-93500000D03*
%TO.P,S2,4,NO_{1}*%
%TO.N,/\u00C9metteur cam\u00E9ra/usrCmd_{1}*%
X116060000Y-93500000D03*
%TO.P,S2,5,COM_{2}*%
%TO.N,+3.3V*%
X108440000Y-96040000D03*
%TO.P,S2,6,NO_{2}*%
%TO.N,/\u00C9metteur cam\u00E9ra/usrCmd_{2}*%
X116060000Y-96040000D03*
%TD*%
D20*
%TO.P,C20,1,1*%
%TO.N,+5V*%
X148000000Y-61900000D03*
%TO.P,C20,2,2*%
%TO.N,GND*%
X148000000Y-65100000D03*
%TD*%
D13*
%TO.P,LED2,1,K*%
%TO.N,GND*%
X125750000Y-84770000D03*
%TO.P,LED2,2,A*%
%TO.N,Net-(LED2-A)*%
X125750000Y-82230000D03*
%TD*%
D21*
%TO.P,C15,1,1*%
%TO.N,/\u00C9metteur cam\u00E9ra/usrSubmitCmd*%
X110710000Y-72850000D03*
%TO.P,C15,2,2*%
%TO.N,GND*%
X110710000Y-71250000D03*
%TD*%
D32*
%TO.P,R2,1*%
%TO.N,+3.3V*%
X149000000Y-100087500D03*
%TO.P,R2,2*%
%TO.N,Net-(R2-Pad2)*%
X149000000Y-101912500D03*
%TD*%
D20*
%TO.P,C1,1,1*%
%TO.N,+3.3V*%
X155250000Y-96350000D03*
%TO.P,C1,2,2*%
%TO.N,GND*%
X155250000Y-93150000D03*
%TD*%
D23*
%TO.P,C10,1,1*%
%TO.N,/\u00C9metteur cam\u00E9ra/HSE_0*%
X138550000Y-82500000D03*
%TO.P,C10,2,2*%
%TO.N,GND*%
X136950000Y-82500000D03*
%TD*%
%TO.P,C13,1,1*%
%TO.N,/\u00C9metteur cam\u00E9ra/HSE_1*%
X136050000Y-89750000D03*
%TO.P,C13,2,2*%
%TO.N,GND*%
X134450000Y-89750000D03*
%TD*%
D12*
%TO.P,R6,1*%
%TO.N,/\u00C9metteur cam\u00E9ra/dbgUsrLed_{1}*%
X131662500Y-82250000D03*
%TO.P,R6,2*%
%TO.N,Net-(LED2-A)*%
X129837500Y-82250000D03*
%TD*%
D13*
%TO.P,LED3,1,K*%
%TO.N,GND*%
X125750000Y-90020000D03*
%TO.P,LED3,2,A*%
%TO.N,Net-(LED3-A)*%
X125750000Y-87480000D03*
%TD*%
D31*
%TO.P,C23,1,1*%
%TO.N,+3.3V*%
X163350000Y-80000000D03*
%TO.P,C23,2,2*%
%TO.N,GND*%
X160150000Y-80000000D03*
%TD*%
D12*
%TO.P,R7,1*%
%TO.N,/\u00C9metteur cam\u00E9ra/dbgUsrLed_{2}*%
X131662500Y-87500000D03*
%TO.P,R7,2*%
%TO.N,Net-(LED3-A)*%
X129837500Y-87500000D03*
%TD*%
%TO.P,R15,1*%
%TO.N,+5V*%
X127162500Y-69000000D03*
%TO.P,R15,2*%
%TO.N,Net-(LED5-A)*%
X125337500Y-69000000D03*
%TD*%
D13*
%TO.P,LED4,1,K*%
%TO.N,GND*%
X125750000Y-95270000D03*
%TO.P,LED4,2,A*%
%TO.N,Net-(LED4-A)*%
X125750000Y-92730000D03*
%TD*%
D30*
%TO.P,R9,1*%
%TO.N,+3.3V*%
X127800000Y-74000000D03*
%TO.P,R9,2*%
%TO.N,/\u00C9metteur cam\u00E9ra/~{RESET}*%
X124700000Y-74000000D03*
%TD*%
D20*
%TO.P,C19,1,1*%
%TO.N,+5V*%
X145250000Y-61900000D03*
%TO.P,C19,2,2*%
%TO.N,GND*%
X145250000Y-65100000D03*
%TD*%
D31*
%TO.P,C22,1,1*%
%TO.N,+3.3V*%
X153650000Y-55500000D03*
%TO.P,C22,2,2*%
%TO.N,GND*%
X156850000Y-55500000D03*
%TD*%
D33*
%TO.N,GND*%
X156750000Y-71250000D03*
%TO.N,+3.3V*%
X159500000Y-73000000D03*
%TO.N,GND*%
X135250000Y-100750000D03*
D34*
X124000000Y-64750000D03*
D33*
X153750000Y-93150000D03*
X154250000Y-88250000D03*
X145300000Y-81000000D03*
D34*
X158750000Y-61500000D03*
D33*
X134494000Y-85494000D03*
X109500000Y-100750000D03*
D34*
X139750000Y-57000000D03*
X127750000Y-64750000D03*
D33*
X140994000Y-87494000D03*
X121500000Y-100750000D03*
X150750000Y-96250000D03*
D34*
X158750000Y-64000000D03*
D33*
X108750000Y-71250000D03*
X139400000Y-89400000D03*
%TO.N,+3.3V*%
X139400000Y-91000000D03*
D34*
X163500000Y-98000000D03*
X151750000Y-57750000D03*
D33*
X142000000Y-85500000D03*
D34*
X153500000Y-69000000D03*
D33*
X153600000Y-96350000D03*
X152300000Y-96250000D03*
X130250000Y-74000000D03*
X142750000Y-82238000D03*
D34*
X151750000Y-55250000D03*
D33*
X154250000Y-84762000D03*
X147500000Y-102000000D03*
D34*
%TO.N,+5V*%
X146750000Y-60500000D03*
X135250000Y-103000000D03*
X129000000Y-69250000D03*
D33*
%TO.N,/\u00C9metteur cam\u00E9ra/~{RESET}*%
X143500000Y-84500000D03*
%TO.N,Net-(U1-VCAP_1)*%
X150000000Y-97250000D03*
X146250000Y-81000000D03*
%TO.N,/\u00C9metteur cam\u00E9ra/usrSubmitCmd*%
X116700000Y-99300000D03*
X137000000Y-94000000D03*
%TO.N,/\u00C9metteur cam\u00E9ra/SPI_{1}_MOSI*%
X146500000Y-101000000D03*
X142500000Y-104250000D03*
%TO.N,/\u00C9metteur cam\u00E9ra/JTDO*%
X155500000Y-75250000D03*
X151000000Y-80500000D03*
%TO.N,/\u00C9metteur cam\u00E9ra/SPI_{2}_SCLK*%
X157500000Y-91750000D03*
%TO.N,/\u00C9metteur cam\u00E9ra/SPI_{2}_MISO*%
X158500000Y-91250000D03*
%TO.N,/\u00C9metteur cam\u00E9ra/IRQ_{0}*%
X162125000Y-95875000D03*
X142000000Y-94000000D03*
%TO.N,/\u00C9metteur cam\u00E9ra/BootMode*%
X144000000Y-93000000D03*
%TO.N,/\u00C9metteur cam\u00E9ra/usrCmd_{0}*%
X142250000Y-96750000D03*
X146750000Y-96750000D03*
%TO.N,/\u00C9metteur cam\u00E9ra/usrCmd_{1}*%
X147500000Y-97750000D03*
X142250000Y-97750000D03*
X127500000Y-97750000D03*
X127500000Y-100750000D03*
%TO.N,/\u00C9metteur cam\u00E9ra/usrCmd_{2}*%
X148250000Y-98750000D03*
X142250000Y-98750000D03*
%TO.N,GND*%
X151500000Y-73000000D03*
%TD*%
D35*
%TO.N,GND*%
X151500000Y-73000000D02*
X151550000Y-73050000D01*
X151550000Y-73050000D02*
X152960000Y-73050000D01*
X156750000Y-71250000D02*
X156770000Y-71270000D01*
X156770000Y-71270000D02*
X156770000Y-73050000D01*
X155500000Y-73050000D02*
X156770000Y-73050000D01*
%TO.N,+3.3V*%
X159500000Y-73000000D02*
X158090000Y-73000000D01*
X158090000Y-73000000D02*
X158040000Y-73050000D01*
D36*
%TO.N,/\u00C9metteur cam\u00E9ra/JTDO*%
X155500000Y-75250000D02*
X155500000Y-76950000D01*
D35*
%TO.N,GND*%
X122900000Y-100750000D02*
X122950000Y-100700000D01*
D37*
X160500000Y-80350000D02*
X160150000Y-80000000D01*
D35*
X138400000Y-89650000D02*
X138650000Y-89400000D01*
X144250000Y-79000000D02*
X144250000Y-79950000D01*
X145300000Y-81000000D02*
X145300000Y-82238000D01*
X150750000Y-96250000D02*
X150750000Y-95050000D01*
X134450000Y-91500000D02*
X134450000Y-89750000D01*
D36*
X142738000Y-89738000D02*
X142400000Y-89400000D01*
X150250000Y-94250000D02*
X150400000Y-94400000D01*
D35*
X121500000Y-100750000D02*
X122900000Y-100750000D01*
X152500000Y-98000000D02*
X150750000Y-96250000D01*
X139544000Y-87494000D02*
X140994000Y-87494000D01*
X144250000Y-79950000D02*
X145300000Y-81000000D01*
X113000000Y-71250000D02*
X115250000Y-71250000D01*
D36*
X145750000Y-82688000D02*
X145300000Y-82238000D01*
D35*
X153789000Y-86839000D02*
X153400000Y-86839000D01*
X122950000Y-100700000D02*
X122870000Y-100700000D01*
X135138000Y-84850000D02*
X134494000Y-85494000D01*
X141200000Y-81000000D02*
X145300000Y-81000000D01*
X136950000Y-82500000D02*
X136950000Y-84200000D01*
D37*
X160500000Y-84130000D02*
X160500000Y-80350000D01*
D35*
X136950000Y-82500000D02*
X136950000Y-80790000D01*
X134450000Y-89750000D02*
X134450000Y-85538000D01*
X121500000Y-100750000D02*
X119800000Y-100750000D01*
D37*
X153750000Y-93150000D02*
X155250000Y-93150000D01*
X150000000Y-105960000D02*
X150040000Y-106000000D01*
D35*
X138650000Y-89400000D02*
X139400000Y-89400000D01*
X135250000Y-100750000D02*
X137450000Y-100750000D01*
D37*
X139750000Y-58600000D02*
X139750000Y-57000000D01*
D36*
X152238000Y-86738000D02*
X153299000Y-86738000D01*
X121810000Y-100690000D02*
X121750000Y-100750000D01*
D35*
X136950000Y-84200000D02*
X136300000Y-84850000D01*
X110710000Y-71250000D02*
X108750000Y-71250000D01*
X134450000Y-85538000D02*
X134494000Y-85494000D01*
D36*
X145261932Y-80900000D02*
X145300000Y-80938068D01*
X143762000Y-89738000D02*
X142738000Y-89738000D01*
D35*
X133050000Y-100750000D02*
X135250000Y-100750000D01*
X110710000Y-71250000D02*
X113000000Y-71250000D01*
D36*
X145750000Y-84750000D02*
X145750000Y-82688000D01*
D35*
X136300000Y-84850000D02*
X135138000Y-84850000D01*
D36*
X140994000Y-87494000D02*
X141000000Y-87488000D01*
D35*
X150700000Y-94700000D02*
X150400000Y-94400000D01*
X150700000Y-95000000D02*
X150700000Y-94700000D01*
D36*
X134494000Y-85494000D02*
X134500000Y-85488000D01*
X153299000Y-86738000D02*
X153400000Y-86839000D01*
X142400000Y-89400000D02*
X140600000Y-89400000D01*
D35*
X154250000Y-87300000D02*
X153789000Y-86839000D01*
X152750000Y-98000000D02*
X152500000Y-98000000D01*
X154250000Y-88250000D02*
X154250000Y-87300000D01*
X139400000Y-89400000D02*
X140600000Y-89400000D01*
X139200000Y-87150000D02*
X139544000Y-87494000D01*
X150750000Y-95050000D02*
X150700000Y-95000000D01*
D36*
X150250000Y-93226000D02*
X150250000Y-94250000D01*
D35*
X109500000Y-100750000D02*
X111450000Y-100750000D01*
%TO.N,+3.3V*%
X139400000Y-91000000D02*
X138650000Y-91000000D01*
D37*
X163040000Y-84130000D02*
X163040000Y-80310000D01*
D36*
X145250000Y-83788000D02*
X143700000Y-82238000D01*
D35*
X141200000Y-82600000D02*
X141250000Y-82650000D01*
X142750000Y-82238000D02*
X143700000Y-82238000D01*
D37*
X108500000Y-84600000D02*
X108440000Y-84540000D01*
X163100000Y-84190000D02*
X163040000Y-84130000D01*
X163500000Y-98000000D02*
X163500000Y-99662500D01*
D35*
X153813000Y-86137000D02*
X152238000Y-86137000D01*
X154250000Y-85700000D02*
X153813000Y-86137000D01*
X147500000Y-102000000D02*
X147500000Y-101587500D01*
D36*
X140600000Y-91000000D02*
X140988000Y-91000000D01*
X142738000Y-86238000D02*
X142000000Y-85500000D01*
D37*
X163040000Y-80310000D02*
X163350000Y-80000000D01*
D35*
X152300000Y-94900000D02*
X150851000Y-93451000D01*
X154250000Y-84762000D02*
X154250000Y-85700000D01*
D37*
X153600000Y-96350000D02*
X155250000Y-96350000D01*
X130250000Y-74000000D02*
X127800000Y-74000000D01*
D36*
X145250000Y-83750000D02*
X145250000Y-84750000D01*
D37*
X163500000Y-99662500D02*
X163412500Y-99750000D01*
X132587500Y-71750000D02*
X132500000Y-71750000D01*
D35*
X141250000Y-82650000D02*
X141250000Y-84750000D01*
X152300000Y-96250000D02*
X152300000Y-95000000D01*
D37*
X132500000Y-71750000D02*
X130250000Y-74000000D01*
X132587500Y-69500000D02*
X132587500Y-71750000D01*
D35*
X150851000Y-93451000D02*
X150851000Y-93226000D01*
D36*
X145250000Y-84750000D02*
X145250000Y-83788000D01*
D35*
X141250000Y-84750000D02*
X142000000Y-85500000D01*
D36*
X140988000Y-91000000D02*
X141750000Y-90238000D01*
D35*
X152300000Y-95000000D02*
X152300000Y-94900000D01*
X139400000Y-91000000D02*
X140600000Y-91000000D01*
X138650000Y-91000000D02*
X138400000Y-90750000D01*
D36*
X141750000Y-90238000D02*
X143762000Y-90238000D01*
D35*
X147500000Y-101587500D02*
X149000000Y-100087500D01*
D36*
X143762000Y-86238000D02*
X142738000Y-86238000D01*
D37*
%TO.N,+5V*%
X129000000Y-69250000D02*
X128750000Y-69000000D01*
X127162500Y-69000000D02*
X127162500Y-70750000D01*
X128750000Y-69000000D02*
X127162500Y-69000000D01*
D36*
%TO.N,/\u00C9metteur cam\u00E9ra/~{RESET}*%
X143762000Y-89238000D02*
X145262000Y-89238000D01*
X146000000Y-88500000D02*
X146000000Y-87000000D01*
D35*
X115250000Y-78650000D02*
X116060000Y-79460000D01*
X118050000Y-79460000D02*
X123510000Y-74000000D01*
X115250000Y-72850000D02*
X115250000Y-78650000D01*
D36*
X145262000Y-89238000D02*
X146000000Y-88500000D01*
X146000000Y-87000000D02*
X143500000Y-84500000D01*
D35*
X123510000Y-74000000D02*
X124700000Y-74000000D01*
X116060000Y-79460000D02*
X118050000Y-79460000D01*
%TO.N,/\u00C9metteur cam\u00E9ra/HSE_0*%
X138550000Y-80790000D02*
X138550000Y-82500000D01*
X142400000Y-87600000D02*
X142400000Y-88000000D01*
X139200000Y-84850000D02*
X139650000Y-84850000D01*
D36*
X143762000Y-88238000D02*
X142638000Y-88238000D01*
X142638000Y-88238000D02*
X142400000Y-88000000D01*
D35*
X138550000Y-84200000D02*
X139200000Y-84850000D01*
X138550000Y-82500000D02*
X138550000Y-84200000D01*
X139650000Y-84850000D02*
X142400000Y-87600000D01*
%TO.N,/\u00C9metteur cam\u00E9ra/HSE_1*%
X137750000Y-88600000D02*
X141600000Y-88600000D01*
X141600000Y-88600000D02*
X142000000Y-88600000D01*
X136050000Y-89750000D02*
X136050000Y-87400000D01*
X136300000Y-87150000D02*
X137750000Y-88600000D01*
D36*
X142262000Y-88738000D02*
X142124000Y-88600000D01*
X143762000Y-88738000D02*
X142262000Y-88738000D01*
D35*
X136050000Y-87400000D02*
X136300000Y-87150000D01*
X136050000Y-91500000D02*
X136050000Y-89750000D01*
D36*
X142124000Y-88600000D02*
X142000000Y-88600000D01*
D35*
%TO.N,Net-(U1-VCAP_1)*%
X146250000Y-79000000D02*
X146250000Y-81000000D01*
D36*
X149750000Y-97000000D02*
X149750000Y-93226000D01*
X146250000Y-81000000D02*
X146250000Y-84750000D01*
X150000000Y-97250000D02*
X149750000Y-97000000D01*
D35*
X150750000Y-98000000D02*
X150000000Y-97250000D01*
D36*
%TO.N,/\u00C9metteur cam\u00E9ra/usrSubmitCmd*%
X137000000Y-94000000D02*
X138988000Y-94000000D01*
D35*
X110710000Y-79190000D02*
X116060000Y-84540000D01*
D36*
X138988000Y-94000000D02*
X142250000Y-90738000D01*
D35*
X113000000Y-81480000D02*
X116060000Y-84540000D01*
X113000000Y-72850000D02*
X113000000Y-81480000D01*
X110710000Y-72850000D02*
X110710000Y-79190000D01*
X116700000Y-100750000D02*
X116700000Y-99300000D01*
D36*
X142250000Y-90738000D02*
X143762000Y-90738000D01*
%TO.N,/\u00C9metteur cam\u00E9ra/I2C_{2}_SCL*%
X149250000Y-93226000D02*
X149250000Y-98500000D01*
X152662500Y-101912500D02*
X155120000Y-104370000D01*
X149250000Y-98500000D02*
X152412500Y-101662500D01*
X155120000Y-104370000D02*
X155120000Y-106000000D01*
X152662500Y-101750000D02*
X152662500Y-101912500D01*
X152575000Y-101662500D02*
X152662500Y-101750000D01*
X152412500Y-101662500D02*
X152575000Y-101662500D01*
%TO.N,/\u00C9metteur cam\u00E9ra/I2C_{2}_SDA*%
X157837500Y-99750000D02*
X157837500Y-93587500D01*
X157837500Y-93587500D02*
X155988000Y-91738000D01*
X152580000Y-106000000D02*
X152580000Y-106580000D01*
X156750000Y-108000000D02*
X157837500Y-106912500D01*
X152580000Y-106580000D02*
X154000000Y-108000000D01*
X157837500Y-106912500D02*
X157837500Y-99750000D01*
X154000000Y-108000000D02*
X156750000Y-108000000D01*
X155988000Y-91738000D02*
X152238000Y-91738000D01*
%TO.N,/\u00C9metteur cam\u00E9ra/SPI_{1}_MISO*%
X145250000Y-105710000D02*
X144960000Y-106000000D01*
X146750000Y-93226000D02*
X146750000Y-94750000D01*
X146750000Y-94750000D02*
X145250000Y-96250000D01*
X145250000Y-96250000D02*
X145250000Y-105710000D01*
%TO.N,/\u00C9metteur cam\u00E9ra/SPI_{1}_MOSI*%
X142500000Y-104250000D02*
X142500000Y-105920000D01*
X146000000Y-98750000D02*
X146000000Y-96500000D01*
X146500000Y-99250000D02*
X146000000Y-98750000D01*
X146500000Y-101000000D02*
X146500000Y-99250000D01*
X146000000Y-96500000D02*
X147250000Y-95250000D01*
X147250000Y-95250000D02*
X147250000Y-93226000D01*
X142500000Y-105920000D02*
X142420000Y-106000000D01*
%TO.N,/\u00C9metteur cam\u00E9ra/SPI_{1}_SCLK*%
X144250000Y-100750000D02*
X139880000Y-105120000D01*
X146250000Y-94250000D02*
X144250000Y-96250000D01*
X146250000Y-93226000D02*
X146250000Y-94250000D01*
X139880000Y-105120000D02*
X139880000Y-106000000D01*
X144250000Y-96250000D02*
X144250000Y-100750000D01*
%TO.N,/\u00C9metteur cam\u00E9ra/JTMS{slash}SWDIO*%
X150750000Y-86750000D02*
X150750000Y-86250000D01*
X158040000Y-78960000D02*
X158040000Y-76950000D01*
X150750000Y-86250000D02*
X158040000Y-78960000D01*
X152238000Y-87238000D02*
X151238000Y-87238000D01*
X151238000Y-87238000D02*
X150750000Y-86750000D01*
%TO.N,/\u00C9metteur cam\u00E9ra/JTDO*%
X149750000Y-84750000D02*
X149750000Y-81750000D01*
X149750000Y-81750000D02*
X151000000Y-80500000D01*
%TO.N,/\u00C9metteur cam\u00E9ra/JTCK{slash}SWCLK*%
X150750000Y-84250000D02*
X156770000Y-78230000D01*
X156770000Y-78230000D02*
X156770000Y-76950000D01*
X150750000Y-84750000D02*
X150750000Y-84250000D01*
%TO.N,/\u00C9metteur cam\u00E9ra/JTDI*%
X150250000Y-83000000D02*
X154230000Y-79020000D01*
X150250000Y-84750000D02*
X150250000Y-83000000D01*
X154230000Y-79020000D02*
X154230000Y-76950000D01*
%TO.N,/\u00C9metteur cam\u00E9ra/SPI_{2}_MOSI*%
X158988000Y-90238000D02*
X160500000Y-91750000D01*
X152238000Y-90238000D02*
X158988000Y-90238000D01*
%TO.N,/\u00C9metteur cam\u00E9ra/SPI_{2}_SCLK*%
X157500000Y-91750000D02*
X156988000Y-91238000D01*
X156988000Y-91238000D02*
X152238000Y-91238000D01*
%TO.N,/\u00C9metteur cam\u00E9ra/JTNRST*%
X149250000Y-80660000D02*
X152960000Y-76950000D01*
X149250000Y-84750000D02*
X149250000Y-80660000D01*
%TO.N,/\u00C9metteur cam\u00E9ra/SPI_{2}_MISO*%
X157738000Y-90738000D02*
X152238000Y-90738000D01*
X157988000Y-90738000D02*
X158500000Y-91250000D01*
X157738000Y-90738000D02*
X157988000Y-90738000D01*
%TO.N,/\u00C9metteur cam\u00E9ra/IRQ_{0}*%
X142000000Y-91988000D02*
X142000000Y-93988000D01*
X163040000Y-94960000D02*
X163040000Y-91750000D01*
X142750000Y-91238000D02*
X142000000Y-91988000D01*
X143762000Y-91238000D02*
X142750000Y-91238000D01*
X162125000Y-95875000D02*
X163040000Y-94960000D01*
D35*
%TO.N,Net-(LED1-A)*%
X128270000Y-77000000D02*
X127020000Y-78250000D01*
X130587500Y-77000000D02*
X128270000Y-77000000D01*
%TO.N,Net-(LED2-A)*%
X125770000Y-82250000D02*
X125750000Y-82230000D01*
X129837500Y-82250000D02*
X125770000Y-82250000D01*
%TO.N,Net-(LED3-A)*%
X129817500Y-87480000D02*
X129837500Y-87500000D01*
X125750000Y-87480000D02*
X129817500Y-87480000D01*
%TO.N,Net-(LED4-A)*%
X125770000Y-92750000D02*
X125750000Y-92730000D01*
X129837500Y-92750000D02*
X125770000Y-92750000D01*
D37*
%TO.N,Net-(LED5-A)*%
X122500000Y-70750000D02*
X121250000Y-72000000D01*
X125337500Y-69000000D02*
X125337500Y-70750000D01*
X125337500Y-70750000D02*
X122500000Y-70750000D01*
D35*
%TO.N,Net-(LED6-A)*%
X134412500Y-69500000D02*
X138317500Y-69500000D01*
X138317500Y-69500000D02*
X138337500Y-69480000D01*
X134412500Y-69500000D02*
X134412500Y-71750000D01*
D36*
%TO.N,/\u00C9metteur cam\u00E9ra/dbgUsrLed_{0}*%
X148750000Y-76250000D02*
X146250000Y-73750000D01*
X146250000Y-73750000D02*
X135662500Y-73750000D01*
X148750000Y-84750000D02*
X148750000Y-76250000D01*
X135662500Y-73750000D02*
X132412500Y-77000000D01*
%TO.N,/\u00C9metteur cam\u00E9ra/dbgUsrLed_{1}*%
X131662500Y-80087500D02*
X137000000Y-74750000D01*
X146000000Y-74750000D02*
X148250000Y-77000000D01*
X137000000Y-74750000D02*
X146000000Y-74750000D01*
X131662500Y-82250000D02*
X131662500Y-80087500D01*
X148250000Y-77000000D02*
X148250000Y-84750000D01*
%TO.N,/\u00C9metteur cam\u00E9ra/dbgUsrLed_{2}*%
X146000000Y-75750000D02*
X137500000Y-75750000D01*
X132800000Y-80450000D02*
X132800000Y-86362500D01*
X132800000Y-86362500D02*
X131662500Y-87500000D01*
X147750000Y-77500000D02*
X146000000Y-75750000D01*
X147750000Y-84750000D02*
X147750000Y-77500000D01*
X137500000Y-75750000D02*
X132800000Y-80450000D01*
%TO.N,/\u00C9metteur cam\u00E9ra/dbgUsrLed_{3}*%
X146750000Y-84750000D02*
X146750000Y-83850000D01*
X138050000Y-76750000D02*
X133600000Y-81200000D01*
X147249000Y-83351000D02*
X147249000Y-77999000D01*
X146750000Y-83850000D02*
X147249000Y-83351000D01*
X147249000Y-77999000D02*
X146000000Y-76750000D01*
X133600000Y-90812500D02*
X131662500Y-92750000D01*
X146000000Y-76750000D02*
X138050000Y-76750000D01*
X133600000Y-81200000D02*
X133600000Y-90812500D01*
D37*
%TO.N,Net-(R1-Pad2)*%
X159662500Y-99750000D02*
X161587500Y-99750000D01*
D35*
%TO.N,Net-(R2-Pad2)*%
X149000000Y-101912500D02*
X150675000Y-101912500D01*
X150675000Y-101912500D02*
X150837500Y-101750000D01*
D36*
%TO.N,/\u00C9metteur cam\u00E9ra/BootMode*%
X144000000Y-93000000D02*
X144000000Y-92920654D01*
X140550000Y-100750000D02*
X142000000Y-100750000D01*
X142000000Y-100750000D02*
X143500000Y-99250000D01*
X147250000Y-89670654D02*
X147250000Y-84750000D01*
X143500000Y-99250000D02*
X143500000Y-93500000D01*
X143500000Y-93500000D02*
X144000000Y-93000000D01*
X144000000Y-92920654D02*
X147250000Y-89670654D01*
%TO.N,/\u00C9metteur cam\u00E9ra/usrCmd_{0}*%
X142250000Y-96750000D02*
X121850000Y-96750000D01*
X121850000Y-96750000D02*
X116060000Y-90960000D01*
D35*
X114550000Y-100750000D02*
X114050000Y-100250000D01*
X114050000Y-92970000D02*
X116060000Y-90960000D01*
D36*
X147750000Y-95750000D02*
X146750000Y-96750000D01*
D35*
X114050000Y-100250000D02*
X114050000Y-92970000D01*
D36*
X147750000Y-93226000D02*
X147750000Y-95750000D01*
%TO.N,/\u00C9metteur cam\u00E9ra/usrCmd_{1}*%
X126300000Y-100690000D02*
X127440000Y-100690000D01*
X147500000Y-97750000D02*
X147500000Y-96750000D01*
X120310000Y-97750000D02*
X116060000Y-93500000D01*
X127440000Y-100690000D02*
X127500000Y-100750000D01*
X148250000Y-96000000D02*
X148250000Y-93226000D01*
X142250000Y-97750000D02*
X120310000Y-97750000D01*
X147500000Y-96750000D02*
X148250000Y-96000000D01*
%TO.N,/\u00C9metteur cam\u00E9ra/usrCmd_{2}*%
X118750000Y-98730000D02*
X116060000Y-96040000D01*
X118750000Y-98750000D02*
X118750000Y-98730000D01*
X142250000Y-98750000D02*
X118750000Y-98750000D01*
X129950000Y-100450000D02*
X128250000Y-98750000D01*
X148750000Y-96500000D02*
X148750000Y-93226000D01*
X129950000Y-100750000D02*
X129950000Y-100450000D01*
X148250000Y-97000000D02*
X148750000Y-96500000D01*
X148250000Y-98750000D02*
X148250000Y-97000000D01*
%TD*%
%TA.AperFunction,Conductor*%
%TO.N,+5V*%
G36*
X138015677Y-56769685D02*
G01*
X138036319Y-56786319D01*
X138463681Y-57213681D01*
X138497166Y-57275004D01*
X138500000Y-57301362D01*
X138500000Y-59750000D01*
X139250000Y-60500000D01*
X143749999Y-60500000D01*
X143750000Y-60500000D01*
X145050266Y-59524799D01*
X145115708Y-59500324D01*
X145124666Y-59500000D01*
X151698638Y-59500000D01*
X151765677Y-59519685D01*
X151786319Y-59536319D01*
X151963681Y-59713681D01*
X151997166Y-59775004D01*
X152000000Y-59801362D01*
X152000000Y-61948638D01*
X151980315Y-62015677D01*
X151963681Y-62036319D01*
X151536319Y-62463681D01*
X151474996Y-62497166D01*
X151448638Y-62500000D01*
X143000000Y-62500000D01*
X138551362Y-62500000D01*
X138484323Y-62480315D01*
X138463681Y-62463681D01*
X136286319Y-60286319D01*
X136252834Y-60224996D01*
X136250000Y-60198638D01*
X136250000Y-57301362D01*
X136269685Y-57234323D01*
X136286319Y-57213681D01*
X136713681Y-56786319D01*
X136775004Y-56752834D01*
X136801362Y-56750000D01*
X137948638Y-56750000D01*
X138015677Y-56769685D01*
G37*
%TD.AperFunction*%
%TD*%
%TA.AperFunction,Conductor*%
%TO.N,GND*%
G36*
X134765677Y-60519685D02*
G01*
X134786319Y-60536319D01*
X137500000Y-63250000D01*
X142448638Y-63250000D01*
X142515677Y-63269685D01*
X142536319Y-63286319D01*
X143250000Y-64000000D01*
X148948638Y-64000000D01*
X149015677Y-64019685D01*
X149036319Y-64036319D01*
X149463681Y-64463681D01*
X149497166Y-64525004D01*
X149500000Y-64551362D01*
X149500000Y-65948638D01*
X149480315Y-66015677D01*
X149463681Y-66036319D01*
X148786319Y-66713681D01*
X148724996Y-66747166D01*
X148698638Y-66750000D01*
X122749999Y-66750000D01*
X120036319Y-69463681D01*
X119974996Y-69497166D01*
X119948638Y-69500000D01*
X109301362Y-69500000D01*
X109234323Y-69480315D01*
X109213681Y-69463681D01*
X108786319Y-69036319D01*
X108752834Y-68974996D01*
X108750000Y-68948638D01*
X108750000Y-65051362D01*
X108769685Y-64984323D01*
X108786319Y-64963681D01*
X109213681Y-64536319D01*
X109275004Y-64502834D01*
X109301362Y-64500000D01*
X118250000Y-64500000D01*
X120463057Y-62041048D01*
X120522535Y-62004387D01*
X120555225Y-62000000D01*
X127000000Y-62000000D01*
X128463681Y-60536319D01*
X128525004Y-60502834D01*
X128551362Y-60500000D01*
X134698638Y-60500000D01*
X134765677Y-60519685D01*
G37*
%TD.AperFunction*%
%TD*%
%TA.AperFunction,Conductor*%
%TO.N,+3.3V*%
G36*
X154015677Y-54054934D02*
G01*
X154036319Y-54071568D01*
X154463681Y-54498930D01*
X154497166Y-54560253D01*
X154500000Y-54586611D01*
X154500000Y-59233887D01*
X154480315Y-59300926D01*
X154463681Y-59321568D01*
X154250000Y-59535248D01*
X154250000Y-63785249D01*
X155463681Y-64998930D01*
X155497166Y-65060253D01*
X155500000Y-65086611D01*
X155500000Y-68796387D01*
X155480315Y-68863426D01*
X155463681Y-68884068D01*
X154848819Y-69498930D01*
X154787496Y-69532415D01*
X154761138Y-69535249D01*
X152301362Y-69535249D01*
X152234323Y-69515564D01*
X152213681Y-69498930D01*
X151536319Y-68821568D01*
X151502834Y-68760245D01*
X151500000Y-68733887D01*
X151500000Y-65086611D01*
X151519685Y-65019572D01*
X151536319Y-64998930D01*
X152750000Y-63785249D01*
X152750000Y-59535249D01*
X152000000Y-58785249D01*
X151301362Y-58785249D01*
X151234323Y-58765564D01*
X151213681Y-58748930D01*
X150536319Y-58071568D01*
X150502834Y-58010245D01*
X150500000Y-57983887D01*
X150500000Y-54847249D01*
X150519685Y-54780210D01*
X150549600Y-54748049D01*
X150881759Y-54498930D01*
X151466933Y-54060048D01*
X151532375Y-54035573D01*
X151541333Y-54035249D01*
X153948638Y-54035249D01*
X154015677Y-54054934D01*
G37*
%TD.AperFunction*%
%TD*%
%TA.AperFunction,Conductor*%
%TO.N,GND*%
G36*
X157943039Y-54019685D02*
G01*
X157988794Y-54072489D01*
X158000000Y-54124000D01*
X158000000Y-58750000D01*
X160213681Y-60963681D01*
X160247166Y-61025004D01*
X160250000Y-61051362D01*
X160250000Y-64448638D01*
X160230315Y-64515677D01*
X160213681Y-64536319D01*
X159536319Y-65213681D01*
X159474996Y-65247166D01*
X159448638Y-65250000D01*
X158051109Y-65250000D01*
X157984070Y-65230315D01*
X157963734Y-65213986D01*
X155286625Y-62555467D01*
X155252926Y-62494261D01*
X155250000Y-62467481D01*
X155250000Y-59962518D01*
X155269685Y-59895479D01*
X155292345Y-59869199D01*
X156000000Y-59250000D01*
X156000000Y-54124000D01*
X156019685Y-54056961D01*
X156072489Y-54011206D01*
X156124000Y-54000000D01*
X157876000Y-54000000D01*
X157943039Y-54019685D01*
G37*
%TD.AperFunction*%
%TD*%
%TA.AperFunction,Conductor*%
%TO.N,+9{slash}28V*%
G36*
X142765677Y-54269685D02*
G01*
X142786319Y-54286319D01*
X142963681Y-54463681D01*
X142997166Y-54525004D01*
X143000000Y-54551362D01*
X143000000Y-59448638D01*
X142980315Y-59515677D01*
X142963681Y-59536319D01*
X142786319Y-59713681D01*
X142724996Y-59747166D01*
X142698638Y-59750000D01*
X141551362Y-59750000D01*
X141484323Y-59730315D01*
X141463681Y-59713681D01*
X141286319Y-59536319D01*
X141252834Y-59474996D01*
X141250000Y-59448638D01*
X141250000Y-56500000D01*
X140500000Y-55750000D01*
X136000000Y-55750000D01*
X135999999Y-55750000D01*
X135250000Y-56499999D01*
X135250000Y-58698638D01*
X135230315Y-58765677D01*
X135213681Y-58786319D01*
X134536319Y-59463681D01*
X134474996Y-59497166D01*
X134448638Y-59500000D01*
X127749999Y-59500000D01*
X126286319Y-60963681D01*
X126224996Y-60997166D01*
X126198638Y-61000000D01*
X120551362Y-61000000D01*
X120484323Y-60980315D01*
X120463681Y-60963681D01*
X118250000Y-58750000D01*
X109301362Y-58750000D01*
X109234323Y-58730315D01*
X109213681Y-58713681D01*
X108786319Y-58286319D01*
X108752834Y-58224996D01*
X108750000Y-58198638D01*
X108750000Y-54801362D01*
X108769685Y-54734323D01*
X108786319Y-54713681D01*
X109213681Y-54286319D01*
X109275004Y-54252834D01*
X109301362Y-54250000D01*
X142698638Y-54250000D01*
X142765677Y-54269685D01*
G37*
%TD.AperFunction*%
%TD*%
M02*
