M48
; DRILL file {KiCad 9.0.5} date 2025-10-26T23:21:51+0100
; FORMAT={-:-/ absolute / metric / decimal}
; #@! TF.CreationDate,2025-10-26T23:21:51+01:00
; #@! TF.GenerationSoftware,Kicad,Pcbnew,9.0.5
; #@! TF.FileFunction,MixedPlating,1,4
FMAT,2
METRIC
; #@! TA.AperFunction,Plated,PTH,ViaDrill
T1C0.300
; #@! TA.AperFunction,Plated,PTH,ViaDrill
T2C0.500
; #@! TA.AperFunction,Plated,PTH,ComponentDrill
T3C0.800
; #@! TA.AperFunction,Plated,PTH,ComponentDrill
T4C1.000
; #@! TA.AperFunction,NonPlated,NPTH,ComponentDrill
T5C1.600
; #@! TA.AperFunction,NonPlated,NPTH,ComponentDrill
T6C1.800
; #@! TA.AperFunction,NonPlated,NPTH,ComponentDrill
T7C3.200
%
G90
G05
T1
X108.75Y-71.25
X109.5Y-100.75
X116.7Y-99.3
X121.5Y-100.75
X127.5Y-97.75
X127.5Y-100.75
X130.25Y-74.0
X134.494Y-85.494
X135.25Y-100.75
X137.0Y-94.0
X139.4Y-89.4
X139.4Y-91.0
X140.994Y-87.494
X142.0Y-85.5
X142.0Y-94.0
X142.25Y-96.75
X142.25Y-97.75
X142.25Y-98.75
X142.5Y-104.25
X142.75Y-82.238
X143.5Y-84.5
X144.0Y-93.0
X145.3Y-81.0
X146.25Y-81.0
X146.5Y-101.0
X146.75Y-96.75
X147.5Y-97.75
X147.5Y-102.0
X148.25Y-98.75
X150.0Y-97.25
X150.75Y-96.25
X151.0Y-80.5
X151.5Y-73.0
X152.3Y-96.25
X153.6Y-96.35
X153.75Y-93.15
X154.25Y-84.762
X154.25Y-88.25
X155.5Y-75.25
X156.75Y-71.25
X157.5Y-91.75
X158.5Y-91.25
X159.5Y-73.0
X162.125Y-95.875
T2
X124.0Y-64.75
X127.75Y-64.75
X129.0Y-69.25
X135.25Y-103.0
X139.75Y-57.0
X146.75Y-60.5
X151.75Y-55.25
X151.75Y-57.75
X153.5Y-69.0
X158.75Y-61.5
X158.75Y-64.0
X163.5Y-98.0
T3
X118.71Y-72.0
X121.25Y-72.0
X124.48Y-78.25
X125.75Y-82.23
X125.75Y-84.77
X125.75Y-87.48
X125.75Y-90.02
X125.75Y-92.73
X125.75Y-95.27
X127.02Y-78.25
X138.338Y-69.48
X138.338Y-72.02
T4
X108.44Y-79.46
X108.44Y-82.0
X108.44Y-84.54
X108.44Y-90.96
X108.44Y-93.5
X108.44Y-96.04
X116.06Y-79.46
X116.06Y-82.0
X116.06Y-84.54
X116.06Y-90.96
X116.06Y-93.5
X116.06Y-96.04
X137.34Y-106.0
X139.88Y-106.0
X142.42Y-106.0
X144.96Y-106.0
X147.5Y-106.0
X150.04Y-106.0
X152.58Y-106.0
X155.12Y-106.0
X160.5Y-84.13
X160.5Y-86.67
X160.5Y-89.21
X160.5Y-91.75
X163.04Y-84.13
X163.04Y-86.67
X163.04Y-89.21
X163.04Y-91.75
T5
X111.15Y-62.0
T6
X115.65Y-62.0
T7
X109.75Y-105.25
X162.75Y-57.25
X162.75Y-105.25
M30
