%TF.GenerationSoftware,KiCad,Pcbnew,9.0.5*%
%TF.CreationDate,2025-10-26T23:22:09+01:00*%
%TF.ProjectId,emetteur,656d6574-7465-4757-922e-6b696361645f,rev?*%
%TF.SameCoordinates,Original*%
%TF.FileFunction,Soldermask,Bot*%
%TF.FilePolarity,Negative*%
%FSLAX46Y46*%
G04 Gerber Fmt 4.6, Leading zero omitted, Abs format (unit mm)*
G04 Created by KiCad (PCBNEW 9.0.5) date 2025-10-26 23:22:09*
%MOMM*%
%LPD*%
G01*
G04 APERTURE LIST*
%ADD10C,3.200000*%
%ADD11C,1.800000*%
%ADD12C,1.600000*%
%ADD13C,1.300000*%
%ADD14R,1.700000X1.700000*%
%ADD15C,1.700000*%
%ADD16C,1.500000*%
G04 APERTURE END LIST*
D10*
%TO.C,H1*%
X162750000Y-57250000D03*
%TD*%
%TO.C,H2*%
X109750000Y-105250000D03*
%TD*%
%TO.C,H3*%
X162750000Y-105250000D03*
%TD*%
D11*
%TO.C,J1*%
X115650000Y-62000000D03*
D12*
X111150000Y-62000000D03*
%TD*%
D13*
%TO.C,LED5*%
X118710000Y-72000000D03*
X121250000Y-72000000D03*
%TD*%
D14*
%TO.C,J3*%
X160500000Y-84130000D03*
D15*
X163040000Y-84130000D03*
X160500000Y-86670000D03*
X163040000Y-86670000D03*
X160500000Y-89210000D03*
X163040000Y-89210000D03*
X160500000Y-91750000D03*
X163040000Y-91750000D03*
%TD*%
D14*
%TO.C,J4*%
X137340000Y-106000000D03*
D15*
X139880000Y-106000000D03*
X142420000Y-106000000D03*
X144960000Y-106000000D03*
X147500000Y-106000000D03*
X150040000Y-106000000D03*
X152580000Y-106000000D03*
X155120000Y-106000000D03*
%TD*%
D16*
%TO.C,S1*%
X108440000Y-79460000D03*
X116060000Y-79460000D03*
X108440000Y-82000000D03*
X116060000Y-82000000D03*
X108440000Y-84540000D03*
X116060000Y-84540000D03*
%TD*%
D13*
%TO.C,LED1*%
X124480000Y-78250000D03*
X127020000Y-78250000D03*
%TD*%
%TO.C,LED6*%
X138337500Y-72020000D03*
X138337500Y-69480000D03*
%TD*%
D16*
%TO.C,S2*%
X108440000Y-90960000D03*
X116060000Y-90960000D03*
X108440000Y-93500000D03*
X116060000Y-93500000D03*
X108440000Y-96040000D03*
X116060000Y-96040000D03*
%TD*%
D13*
%TO.C,LED2*%
X125750000Y-84770000D03*
X125750000Y-82230000D03*
%TD*%
%TO.C,LED3*%
X125750000Y-90020000D03*
X125750000Y-87480000D03*
%TD*%
%TO.C,LED4*%
X125750000Y-95270000D03*
X125750000Y-92730000D03*
%TD*%
M02*
