%TF.GenerationSoftware,KiCad,Pcbnew,9.0.5*%
%TF.CreationDate,2025-10-26T23:22:09+01:00*%
%TF.ProjectId,emetteur,656d6574-7465-4757-922e-6b696361645f,rev?*%
%TF.SameCoordinates,Original*%
%TF.FileFunction,Legend,Top*%
%TF.FilePolarity,Positive*%
%FSLAX46Y46*%
G04 Gerber Fmt 4.6, Leading zero omitted, Abs format (unit mm)*
G04 Created by KiCad (PCBNEW 9.0.5) date 2025-10-26 23:22:09*
%MOMM*%
%LPD*%
G01*
G04 APERTURE LIST*
%ADD10C,0.150000*%
%ADD11C,0.187500*%
%ADD12C,0.400000*%
%ADD13C,0.254000*%
%ADD14C,0.120000*%
%ADD15C,0.100000*%
%ADD16C,0.200000*%
%ADD17C,0.250000*%
G04 APERTURE END LIST*
D10*
X147122493Y-68447466D02*
X147027255Y-68399847D01*
X147027255Y-68399847D02*
X146884398Y-68399847D01*
X146884398Y-68399847D02*
X146741541Y-68447466D01*
X146741541Y-68447466D02*
X146646303Y-68542704D01*
X146646303Y-68542704D02*
X146598684Y-68637942D01*
X146598684Y-68637942D02*
X146551065Y-68828418D01*
X146551065Y-68828418D02*
X146551065Y-68971275D01*
X146551065Y-68971275D02*
X146598684Y-69161751D01*
X146598684Y-69161751D02*
X146646303Y-69256989D01*
X146646303Y-69256989D02*
X146741541Y-69352228D01*
X146741541Y-69352228D02*
X146884398Y-69399847D01*
X146884398Y-69399847D02*
X146979636Y-69399847D01*
X146979636Y-69399847D02*
X147122493Y-69352228D01*
X147122493Y-69352228D02*
X147170112Y-69304608D01*
X147170112Y-69304608D02*
X147170112Y-68971275D01*
X147170112Y-68971275D02*
X146979636Y-68971275D01*
X147598684Y-69399847D02*
X147598684Y-68399847D01*
X147598684Y-68399847D02*
X148170112Y-69399847D01*
X148170112Y-69399847D02*
X148170112Y-68399847D01*
X148646303Y-69399847D02*
X148646303Y-68399847D01*
X148646303Y-68399847D02*
X148884398Y-68399847D01*
X148884398Y-68399847D02*
X149027255Y-68447466D01*
X149027255Y-68447466D02*
X149122493Y-68542704D01*
X149122493Y-68542704D02*
X149170112Y-68637942D01*
X149170112Y-68637942D02*
X149217731Y-68828418D01*
X149217731Y-68828418D02*
X149217731Y-68971275D01*
X149217731Y-68971275D02*
X149170112Y-69161751D01*
X149170112Y-69161751D02*
X149122493Y-69256989D01*
X149122493Y-69256989D02*
X149027255Y-69352228D01*
X149027255Y-69352228D02*
X148884398Y-69399847D01*
X148884398Y-69399847D02*
X148646303Y-69399847D01*
X150932017Y-68447466D02*
X150836779Y-68399847D01*
X150836779Y-68399847D02*
X150693922Y-68399847D01*
X150693922Y-68399847D02*
X150551065Y-68447466D01*
X150551065Y-68447466D02*
X150455827Y-68542704D01*
X150455827Y-68542704D02*
X150408208Y-68637942D01*
X150408208Y-68637942D02*
X150360589Y-68828418D01*
X150360589Y-68828418D02*
X150360589Y-68971275D01*
X150360589Y-68971275D02*
X150408208Y-69161751D01*
X150408208Y-69161751D02*
X150455827Y-69256989D01*
X150455827Y-69256989D02*
X150551065Y-69352228D01*
X150551065Y-69352228D02*
X150693922Y-69399847D01*
X150693922Y-69399847D02*
X150789160Y-69399847D01*
X150789160Y-69399847D02*
X150932017Y-69352228D01*
X150932017Y-69352228D02*
X150979636Y-69304608D01*
X150979636Y-69304608D02*
X150979636Y-68971275D01*
X150979636Y-68971275D02*
X150789160Y-68971275D01*
X151408208Y-69399847D02*
X151408208Y-68399847D01*
X151408208Y-68399847D02*
X151979636Y-69399847D01*
X151979636Y-69399847D02*
X151979636Y-68399847D01*
X152455827Y-69399847D02*
X152455827Y-68399847D01*
X152455827Y-68399847D02*
X152693922Y-68399847D01*
X152693922Y-68399847D02*
X152836779Y-68447466D01*
X152836779Y-68447466D02*
X152932017Y-68542704D01*
X152932017Y-68542704D02*
X152979636Y-68637942D01*
X152979636Y-68637942D02*
X153027255Y-68828418D01*
X153027255Y-68828418D02*
X153027255Y-68971275D01*
X153027255Y-68971275D02*
X152979636Y-69161751D01*
X152979636Y-69161751D02*
X152932017Y-69256989D01*
X152932017Y-69256989D02*
X152836779Y-69352228D01*
X152836779Y-69352228D02*
X152693922Y-69399847D01*
X152693922Y-69399847D02*
X152455827Y-69399847D01*
X154741541Y-68447466D02*
X154646303Y-68399847D01*
X154646303Y-68399847D02*
X154503446Y-68399847D01*
X154503446Y-68399847D02*
X154360589Y-68447466D01*
X154360589Y-68447466D02*
X154265351Y-68542704D01*
X154265351Y-68542704D02*
X154217732Y-68637942D01*
X154217732Y-68637942D02*
X154170113Y-68828418D01*
X154170113Y-68828418D02*
X154170113Y-68971275D01*
X154170113Y-68971275D02*
X154217732Y-69161751D01*
X154217732Y-69161751D02*
X154265351Y-69256989D01*
X154265351Y-69256989D02*
X154360589Y-69352228D01*
X154360589Y-69352228D02*
X154503446Y-69399847D01*
X154503446Y-69399847D02*
X154598684Y-69399847D01*
X154598684Y-69399847D02*
X154741541Y-69352228D01*
X154741541Y-69352228D02*
X154789160Y-69304608D01*
X154789160Y-69304608D02*
X154789160Y-68971275D01*
X154789160Y-68971275D02*
X154598684Y-68971275D01*
X155217732Y-69399847D02*
X155217732Y-68399847D01*
X155217732Y-68399847D02*
X155789160Y-69399847D01*
X155789160Y-69399847D02*
X155789160Y-68399847D01*
X156265351Y-69399847D02*
X156265351Y-68399847D01*
X156265351Y-68399847D02*
X156503446Y-68399847D01*
X156503446Y-68399847D02*
X156646303Y-68447466D01*
X156646303Y-68447466D02*
X156741541Y-68542704D01*
X156741541Y-68542704D02*
X156789160Y-68637942D01*
X156789160Y-68637942D02*
X156836779Y-68828418D01*
X156836779Y-68828418D02*
X156836779Y-68971275D01*
X156836779Y-68971275D02*
X156789160Y-69161751D01*
X156789160Y-69161751D02*
X156741541Y-69256989D01*
X156741541Y-69256989D02*
X156646303Y-69352228D01*
X156646303Y-69352228D02*
X156503446Y-69399847D01*
X156503446Y-69399847D02*
X156265351Y-69399847D01*
X158551065Y-68447466D02*
X158455827Y-68399847D01*
X158455827Y-68399847D02*
X158312970Y-68399847D01*
X158312970Y-68399847D02*
X158170113Y-68447466D01*
X158170113Y-68447466D02*
X158074875Y-68542704D01*
X158074875Y-68542704D02*
X158027256Y-68637942D01*
X158027256Y-68637942D02*
X157979637Y-68828418D01*
X157979637Y-68828418D02*
X157979637Y-68971275D01*
X157979637Y-68971275D02*
X158027256Y-69161751D01*
X158027256Y-69161751D02*
X158074875Y-69256989D01*
X158074875Y-69256989D02*
X158170113Y-69352228D01*
X158170113Y-69352228D02*
X158312970Y-69399847D01*
X158312970Y-69399847D02*
X158408208Y-69399847D01*
X158408208Y-69399847D02*
X158551065Y-69352228D01*
X158551065Y-69352228D02*
X158598684Y-69304608D01*
X158598684Y-69304608D02*
X158598684Y-68971275D01*
X158598684Y-68971275D02*
X158408208Y-68971275D01*
X159027256Y-69399847D02*
X159027256Y-68399847D01*
X159027256Y-68399847D02*
X159598684Y-69399847D01*
X159598684Y-69399847D02*
X159598684Y-68399847D01*
X160074875Y-69399847D02*
X160074875Y-68399847D01*
X160074875Y-68399847D02*
X160312970Y-68399847D01*
X160312970Y-68399847D02*
X160455827Y-68447466D01*
X160455827Y-68447466D02*
X160551065Y-68542704D01*
X160551065Y-68542704D02*
X160598684Y-68637942D01*
X160598684Y-68637942D02*
X160646303Y-68828418D01*
X160646303Y-68828418D02*
X160646303Y-68971275D01*
X160646303Y-68971275D02*
X160598684Y-69161751D01*
X160598684Y-69161751D02*
X160551065Y-69256989D01*
X160551065Y-69256989D02*
X160455827Y-69352228D01*
X160455827Y-69352228D02*
X160312970Y-69399847D01*
X160312970Y-69399847D02*
X160074875Y-69399847D01*
X161693923Y-68399847D02*
X162027256Y-69399847D01*
X162027256Y-69399847D02*
X162360589Y-68399847D01*
X163265351Y-69304608D02*
X163217732Y-69352228D01*
X163217732Y-69352228D02*
X163074875Y-69399847D01*
X163074875Y-69399847D02*
X162979637Y-69399847D01*
X162979637Y-69399847D02*
X162836780Y-69352228D01*
X162836780Y-69352228D02*
X162741542Y-69256989D01*
X162741542Y-69256989D02*
X162693923Y-69161751D01*
X162693923Y-69161751D02*
X162646304Y-68971275D01*
X162646304Y-68971275D02*
X162646304Y-68828418D01*
X162646304Y-68828418D02*
X162693923Y-68637942D01*
X162693923Y-68637942D02*
X162741542Y-68542704D01*
X162741542Y-68542704D02*
X162836780Y-68447466D01*
X162836780Y-68447466D02*
X162979637Y-68399847D01*
X162979637Y-68399847D02*
X163074875Y-68399847D01*
X163074875Y-68399847D02*
X163217732Y-68447466D01*
X163217732Y-68447466D02*
X163265351Y-68495085D01*
X164265351Y-69304608D02*
X164217732Y-69352228D01*
X164217732Y-69352228D02*
X164074875Y-69399847D01*
X164074875Y-69399847D02*
X163979637Y-69399847D01*
X163979637Y-69399847D02*
X163836780Y-69352228D01*
X163836780Y-69352228D02*
X163741542Y-69256989D01*
X163741542Y-69256989D02*
X163693923Y-69161751D01*
X163693923Y-69161751D02*
X163646304Y-68971275D01*
X163646304Y-68971275D02*
X163646304Y-68828418D01*
X163646304Y-68828418D02*
X163693923Y-68637942D01*
X163693923Y-68637942D02*
X163741542Y-68542704D01*
X163741542Y-68542704D02*
X163836780Y-68447466D01*
X163836780Y-68447466D02*
X163979637Y-68399847D01*
X163979637Y-68399847D02*
X164074875Y-68399847D01*
X164074875Y-68399847D02*
X164217732Y-68447466D01*
X164217732Y-68447466D02*
X164265351Y-68495085D01*
X146122493Y-70009791D02*
X146122493Y-70724076D01*
X146122493Y-70724076D02*
X146074874Y-70866933D01*
X146074874Y-70866933D02*
X145979636Y-70962172D01*
X145979636Y-70962172D02*
X145836779Y-71009791D01*
X145836779Y-71009791D02*
X145741541Y-71009791D01*
X147170112Y-71009791D02*
X146836779Y-70533600D01*
X146598684Y-71009791D02*
X146598684Y-70009791D01*
X146598684Y-70009791D02*
X146979636Y-70009791D01*
X146979636Y-70009791D02*
X147074874Y-70057410D01*
X147074874Y-70057410D02*
X147122493Y-70105029D01*
X147122493Y-70105029D02*
X147170112Y-70200267D01*
X147170112Y-70200267D02*
X147170112Y-70343124D01*
X147170112Y-70343124D02*
X147122493Y-70438362D01*
X147122493Y-70438362D02*
X147074874Y-70485981D01*
X147074874Y-70485981D02*
X146979636Y-70533600D01*
X146979636Y-70533600D02*
X146598684Y-70533600D01*
X147551065Y-70962172D02*
X147693922Y-71009791D01*
X147693922Y-71009791D02*
X147932017Y-71009791D01*
X147932017Y-71009791D02*
X148027255Y-70962172D01*
X148027255Y-70962172D02*
X148074874Y-70914552D01*
X148074874Y-70914552D02*
X148122493Y-70819314D01*
X148122493Y-70819314D02*
X148122493Y-70724076D01*
X148122493Y-70724076D02*
X148074874Y-70628838D01*
X148074874Y-70628838D02*
X148027255Y-70581219D01*
X148027255Y-70581219D02*
X147932017Y-70533600D01*
X147932017Y-70533600D02*
X147741541Y-70485981D01*
X147741541Y-70485981D02*
X147646303Y-70438362D01*
X147646303Y-70438362D02*
X147598684Y-70390743D01*
X147598684Y-70390743D02*
X147551065Y-70295505D01*
X147551065Y-70295505D02*
X147551065Y-70200267D01*
X147551065Y-70200267D02*
X147598684Y-70105029D01*
X147598684Y-70105029D02*
X147646303Y-70057410D01*
X147646303Y-70057410D02*
X147741541Y-70009791D01*
X147741541Y-70009791D02*
X147979636Y-70009791D01*
X147979636Y-70009791D02*
X148122493Y-70057410D01*
X148408208Y-70009791D02*
X148979636Y-70009791D01*
X148693922Y-71009791D02*
X148693922Y-70009791D01*
X145698684Y-69732172D02*
X148974875Y-69732172D01*
X150360589Y-70009791D02*
X150360589Y-70724076D01*
X150360589Y-70724076D02*
X150312970Y-70866933D01*
X150312970Y-70866933D02*
X150217732Y-70962172D01*
X150217732Y-70962172D02*
X150074875Y-71009791D01*
X150074875Y-71009791D02*
X149979637Y-71009791D01*
X150693923Y-70009791D02*
X151265351Y-70009791D01*
X150979637Y-71009791D02*
X150979637Y-70009791D01*
X151598685Y-71009791D02*
X151598685Y-70009791D01*
X151598685Y-70009791D02*
X151836780Y-70009791D01*
X151836780Y-70009791D02*
X151979637Y-70057410D01*
X151979637Y-70057410D02*
X152074875Y-70152648D01*
X152074875Y-70152648D02*
X152122494Y-70247886D01*
X152122494Y-70247886D02*
X152170113Y-70438362D01*
X152170113Y-70438362D02*
X152170113Y-70581219D01*
X152170113Y-70581219D02*
X152122494Y-70771695D01*
X152122494Y-70771695D02*
X152074875Y-70866933D01*
X152074875Y-70866933D02*
X151979637Y-70962172D01*
X151979637Y-70962172D02*
X151836780Y-71009791D01*
X151836780Y-71009791D02*
X151598685Y-71009791D01*
X152598685Y-71009791D02*
X152598685Y-70009791D01*
X154122494Y-70009791D02*
X154122494Y-70724076D01*
X154122494Y-70724076D02*
X154074875Y-70866933D01*
X154074875Y-70866933D02*
X153979637Y-70962172D01*
X153979637Y-70962172D02*
X153836780Y-71009791D01*
X153836780Y-71009791D02*
X153741542Y-71009791D01*
X154455828Y-70009791D02*
X155027256Y-70009791D01*
X154741542Y-71009791D02*
X154741542Y-70009791D01*
X155360590Y-71009791D02*
X155360590Y-70009791D01*
X155360590Y-70009791D02*
X155598685Y-70009791D01*
X155598685Y-70009791D02*
X155741542Y-70057410D01*
X155741542Y-70057410D02*
X155836780Y-70152648D01*
X155836780Y-70152648D02*
X155884399Y-70247886D01*
X155884399Y-70247886D02*
X155932018Y-70438362D01*
X155932018Y-70438362D02*
X155932018Y-70581219D01*
X155932018Y-70581219D02*
X155884399Y-70771695D01*
X155884399Y-70771695D02*
X155836780Y-70866933D01*
X155836780Y-70866933D02*
X155741542Y-70962172D01*
X155741542Y-70962172D02*
X155598685Y-71009791D01*
X155598685Y-71009791D02*
X155360590Y-71009791D01*
X156551066Y-70009791D02*
X156741542Y-70009791D01*
X156741542Y-70009791D02*
X156836780Y-70057410D01*
X156836780Y-70057410D02*
X156932018Y-70152648D01*
X156932018Y-70152648D02*
X156979637Y-70343124D01*
X156979637Y-70343124D02*
X156979637Y-70676457D01*
X156979637Y-70676457D02*
X156932018Y-70866933D01*
X156932018Y-70866933D02*
X156836780Y-70962172D01*
X156836780Y-70962172D02*
X156741542Y-71009791D01*
X156741542Y-71009791D02*
X156551066Y-71009791D01*
X156551066Y-71009791D02*
X156455828Y-70962172D01*
X156455828Y-70962172D02*
X156360590Y-70866933D01*
X156360590Y-70866933D02*
X156312971Y-70676457D01*
X156312971Y-70676457D02*
X156312971Y-70343124D01*
X156312971Y-70343124D02*
X156360590Y-70152648D01*
X156360590Y-70152648D02*
X156455828Y-70057410D01*
X156455828Y-70057410D02*
X156551066Y-70009791D01*
X158455828Y-70009791D02*
X158455828Y-70724076D01*
X158455828Y-70724076D02*
X158408209Y-70866933D01*
X158408209Y-70866933D02*
X158312971Y-70962172D01*
X158312971Y-70962172D02*
X158170114Y-71009791D01*
X158170114Y-71009791D02*
X158074876Y-71009791D01*
X158789162Y-70009791D02*
X159360590Y-70009791D01*
X159074876Y-71009791D02*
X159074876Y-70009791D01*
X160265352Y-70914552D02*
X160217733Y-70962172D01*
X160217733Y-70962172D02*
X160074876Y-71009791D01*
X160074876Y-71009791D02*
X159979638Y-71009791D01*
X159979638Y-71009791D02*
X159836781Y-70962172D01*
X159836781Y-70962172D02*
X159741543Y-70866933D01*
X159741543Y-70866933D02*
X159693924Y-70771695D01*
X159693924Y-70771695D02*
X159646305Y-70581219D01*
X159646305Y-70581219D02*
X159646305Y-70438362D01*
X159646305Y-70438362D02*
X159693924Y-70247886D01*
X159693924Y-70247886D02*
X159741543Y-70152648D01*
X159741543Y-70152648D02*
X159836781Y-70057410D01*
X159836781Y-70057410D02*
X159979638Y-70009791D01*
X159979638Y-70009791D02*
X160074876Y-70009791D01*
X160074876Y-70009791D02*
X160217733Y-70057410D01*
X160217733Y-70057410D02*
X160265352Y-70105029D01*
X160693924Y-71009791D02*
X160693924Y-70009791D01*
X161265352Y-71009791D02*
X160836781Y-70438362D01*
X161265352Y-70009791D02*
X160693924Y-70581219D01*
X162312972Y-70009791D02*
X162884400Y-70009791D01*
X162598686Y-71009791D02*
X162598686Y-70009791D01*
X163217734Y-71009791D02*
X163217734Y-70009791D01*
X163217734Y-70009791D02*
X163551067Y-70724076D01*
X163551067Y-70724076D02*
X163884400Y-70009791D01*
X163884400Y-70009791D02*
X163884400Y-71009791D01*
X164312972Y-70962172D02*
X164455829Y-71009791D01*
X164455829Y-71009791D02*
X164693924Y-71009791D01*
X164693924Y-71009791D02*
X164789162Y-70962172D01*
X164789162Y-70962172D02*
X164836781Y-70914552D01*
X164836781Y-70914552D02*
X164884400Y-70819314D01*
X164884400Y-70819314D02*
X164884400Y-70724076D01*
X164884400Y-70724076D02*
X164836781Y-70628838D01*
X164836781Y-70628838D02*
X164789162Y-70581219D01*
X164789162Y-70581219D02*
X164693924Y-70533600D01*
X164693924Y-70533600D02*
X164503448Y-70485981D01*
X164503448Y-70485981D02*
X164408210Y-70438362D01*
X164408210Y-70438362D02*
X164360591Y-70390743D01*
X164360591Y-70390743D02*
X164312972Y-70295505D01*
X164312972Y-70295505D02*
X164312972Y-70200267D01*
X164312972Y-70200267D02*
X164360591Y-70105029D01*
X164360591Y-70105029D02*
X164408210Y-70057410D01*
X164408210Y-70057410D02*
X164503448Y-70009791D01*
X164503448Y-70009791D02*
X164741543Y-70009791D01*
X164741543Y-70009791D02*
X164884400Y-70057410D01*
X118015350Y-90453152D02*
X118015350Y-91119819D01*
X117586779Y-90453152D02*
X117586779Y-90976961D01*
X117586779Y-90976961D02*
X117634398Y-91072200D01*
X117634398Y-91072200D02*
X117729636Y-91119819D01*
X117729636Y-91119819D02*
X117872493Y-91119819D01*
X117872493Y-91119819D02*
X117967731Y-91072200D01*
X117967731Y-91072200D02*
X118015350Y-91024580D01*
X118443922Y-91072200D02*
X118539160Y-91119819D01*
X118539160Y-91119819D02*
X118729636Y-91119819D01*
X118729636Y-91119819D02*
X118824874Y-91072200D01*
X118824874Y-91072200D02*
X118872493Y-90976961D01*
X118872493Y-90976961D02*
X118872493Y-90929342D01*
X118872493Y-90929342D02*
X118824874Y-90834104D01*
X118824874Y-90834104D02*
X118729636Y-90786485D01*
X118729636Y-90786485D02*
X118586779Y-90786485D01*
X118586779Y-90786485D02*
X118491541Y-90738866D01*
X118491541Y-90738866D02*
X118443922Y-90643628D01*
X118443922Y-90643628D02*
X118443922Y-90596009D01*
X118443922Y-90596009D02*
X118491541Y-90500771D01*
X118491541Y-90500771D02*
X118586779Y-90453152D01*
X118586779Y-90453152D02*
X118729636Y-90453152D01*
X118729636Y-90453152D02*
X118824874Y-90500771D01*
X119301065Y-91119819D02*
X119301065Y-90453152D01*
X119301065Y-90643628D02*
X119348684Y-90548390D01*
X119348684Y-90548390D02*
X119396303Y-90500771D01*
X119396303Y-90500771D02*
X119491541Y-90453152D01*
X119491541Y-90453152D02*
X119586779Y-90453152D01*
X120491541Y-91024580D02*
X120443922Y-91072200D01*
X120443922Y-91072200D02*
X120301065Y-91119819D01*
X120301065Y-91119819D02*
X120205827Y-91119819D01*
X120205827Y-91119819D02*
X120062970Y-91072200D01*
X120062970Y-91072200D02*
X119967732Y-90976961D01*
X119967732Y-90976961D02*
X119920113Y-90881723D01*
X119920113Y-90881723D02*
X119872494Y-90691247D01*
X119872494Y-90691247D02*
X119872494Y-90548390D01*
X119872494Y-90548390D02*
X119920113Y-90357914D01*
X119920113Y-90357914D02*
X119967732Y-90262676D01*
X119967732Y-90262676D02*
X120062970Y-90167438D01*
X120062970Y-90167438D02*
X120205827Y-90119819D01*
X120205827Y-90119819D02*
X120301065Y-90119819D01*
X120301065Y-90119819D02*
X120443922Y-90167438D01*
X120443922Y-90167438D02*
X120491541Y-90215057D01*
X120920113Y-91119819D02*
X120920113Y-90453152D01*
X120920113Y-90548390D02*
X120967732Y-90500771D01*
X120967732Y-90500771D02*
X121062970Y-90453152D01*
X121062970Y-90453152D02*
X121205827Y-90453152D01*
X121205827Y-90453152D02*
X121301065Y-90500771D01*
X121301065Y-90500771D02*
X121348684Y-90596009D01*
X121348684Y-90596009D02*
X121348684Y-91119819D01*
X121348684Y-90596009D02*
X121396303Y-90500771D01*
X121396303Y-90500771D02*
X121491541Y-90453152D01*
X121491541Y-90453152D02*
X121634398Y-90453152D01*
X121634398Y-90453152D02*
X121729637Y-90500771D01*
X121729637Y-90500771D02*
X121777256Y-90596009D01*
X121777256Y-90596009D02*
X121777256Y-91119819D01*
X122682017Y-91119819D02*
X122682017Y-90119819D01*
X122682017Y-91072200D02*
X122586779Y-91119819D01*
X122586779Y-91119819D02*
X122396303Y-91119819D01*
X122396303Y-91119819D02*
X122301065Y-91072200D01*
X122301065Y-91072200D02*
X122253446Y-91024580D01*
X122253446Y-91024580D02*
X122205827Y-90929342D01*
X122205827Y-90929342D02*
X122205827Y-90643628D01*
X122205827Y-90643628D02*
X122253446Y-90548390D01*
X122253446Y-90548390D02*
X122301065Y-90500771D01*
X122301065Y-90500771D02*
X122396303Y-90453152D01*
X122396303Y-90453152D02*
X122586779Y-90453152D01*
X122586779Y-90453152D02*
X122682017Y-90500771D01*
X123262970Y-90430295D02*
X123339160Y-90430295D01*
X123339160Y-90430295D02*
X123415351Y-90468390D01*
X123415351Y-90468390D02*
X123453446Y-90506485D01*
X123453446Y-90506485D02*
X123491541Y-90582676D01*
X123491541Y-90582676D02*
X123529636Y-90735057D01*
X123529636Y-90735057D02*
X123529636Y-90925533D01*
X123529636Y-90925533D02*
X123491541Y-91077914D01*
X123491541Y-91077914D02*
X123453446Y-91154104D01*
X123453446Y-91154104D02*
X123415351Y-91192200D01*
X123415351Y-91192200D02*
X123339160Y-91230295D01*
X123339160Y-91230295D02*
X123262970Y-91230295D01*
X123262970Y-91230295D02*
X123186779Y-91192200D01*
X123186779Y-91192200D02*
X123148684Y-91154104D01*
X123148684Y-91154104D02*
X123110589Y-91077914D01*
X123110589Y-91077914D02*
X123072493Y-90925533D01*
X123072493Y-90925533D02*
X123072493Y-90735057D01*
X123072493Y-90735057D02*
X123110589Y-90582676D01*
X123110589Y-90582676D02*
X123148684Y-90506485D01*
X123148684Y-90506485D02*
X123186779Y-90468390D01*
X123186779Y-90468390D02*
X123262970Y-90430295D01*
X118515350Y-85072200D02*
X118420112Y-85119819D01*
X118420112Y-85119819D02*
X118229636Y-85119819D01*
X118229636Y-85119819D02*
X118134398Y-85072200D01*
X118134398Y-85072200D02*
X118086779Y-85024580D01*
X118086779Y-85024580D02*
X118039160Y-84929342D01*
X118039160Y-84929342D02*
X118039160Y-84643628D01*
X118039160Y-84643628D02*
X118086779Y-84548390D01*
X118086779Y-84548390D02*
X118134398Y-84500771D01*
X118134398Y-84500771D02*
X118229636Y-84453152D01*
X118229636Y-84453152D02*
X118420112Y-84453152D01*
X118420112Y-84453152D02*
X118515350Y-84500771D01*
X118943922Y-85119819D02*
X118943922Y-84453152D01*
X118943922Y-84548390D02*
X118991541Y-84500771D01*
X118991541Y-84500771D02*
X119086779Y-84453152D01*
X119086779Y-84453152D02*
X119229636Y-84453152D01*
X119229636Y-84453152D02*
X119324874Y-84500771D01*
X119324874Y-84500771D02*
X119372493Y-84596009D01*
X119372493Y-84596009D02*
X119372493Y-85119819D01*
X119372493Y-84596009D02*
X119420112Y-84500771D01*
X119420112Y-84500771D02*
X119515350Y-84453152D01*
X119515350Y-84453152D02*
X119658207Y-84453152D01*
X119658207Y-84453152D02*
X119753446Y-84500771D01*
X119753446Y-84500771D02*
X119801065Y-84596009D01*
X119801065Y-84596009D02*
X119801065Y-85119819D01*
X120705826Y-85119819D02*
X120705826Y-84119819D01*
X120705826Y-85072200D02*
X120610588Y-85119819D01*
X120610588Y-85119819D02*
X120420112Y-85119819D01*
X120420112Y-85119819D02*
X120324874Y-85072200D01*
X120324874Y-85072200D02*
X120277255Y-85024580D01*
X120277255Y-85024580D02*
X120229636Y-84929342D01*
X120229636Y-84929342D02*
X120229636Y-84643628D01*
X120229636Y-84643628D02*
X120277255Y-84548390D01*
X120277255Y-84548390D02*
X120324874Y-84500771D01*
X120324874Y-84500771D02*
X120420112Y-84453152D01*
X120420112Y-84453152D02*
X120610588Y-84453152D01*
X120610588Y-84453152D02*
X120705826Y-84500771D01*
X121134398Y-85072200D02*
X121277255Y-85119819D01*
X121277255Y-85119819D02*
X121515350Y-85119819D01*
X121515350Y-85119819D02*
X121610588Y-85072200D01*
X121610588Y-85072200D02*
X121658207Y-85024580D01*
X121658207Y-85024580D02*
X121705826Y-84929342D01*
X121705826Y-84929342D02*
X121705826Y-84834104D01*
X121705826Y-84834104D02*
X121658207Y-84738866D01*
X121658207Y-84738866D02*
X121610588Y-84691247D01*
X121610588Y-84691247D02*
X121515350Y-84643628D01*
X121515350Y-84643628D02*
X121324874Y-84596009D01*
X121324874Y-84596009D02*
X121229636Y-84548390D01*
X121229636Y-84548390D02*
X121182017Y-84500771D01*
X121182017Y-84500771D02*
X121134398Y-84405533D01*
X121134398Y-84405533D02*
X121134398Y-84310295D01*
X121134398Y-84310295D02*
X121182017Y-84215057D01*
X121182017Y-84215057D02*
X121229636Y-84167438D01*
X121229636Y-84167438D02*
X121324874Y-84119819D01*
X121324874Y-84119819D02*
X121562969Y-84119819D01*
X121562969Y-84119819D02*
X121705826Y-84167438D01*
X122562969Y-84453152D02*
X122562969Y-85119819D01*
X122134398Y-84453152D02*
X122134398Y-84976961D01*
X122134398Y-84976961D02*
X122182017Y-85072200D01*
X122182017Y-85072200D02*
X122277255Y-85119819D01*
X122277255Y-85119819D02*
X122420112Y-85119819D01*
X122420112Y-85119819D02*
X122515350Y-85072200D01*
X122515350Y-85072200D02*
X122562969Y-85024580D01*
X123039160Y-85119819D02*
X123039160Y-84119819D01*
X123039160Y-84500771D02*
X123134398Y-84453152D01*
X123134398Y-84453152D02*
X123324874Y-84453152D01*
X123324874Y-84453152D02*
X123420112Y-84500771D01*
X123420112Y-84500771D02*
X123467731Y-84548390D01*
X123467731Y-84548390D02*
X123515350Y-84643628D01*
X123515350Y-84643628D02*
X123515350Y-84929342D01*
X123515350Y-84929342D02*
X123467731Y-85024580D01*
X123467731Y-85024580D02*
X123420112Y-85072200D01*
X123420112Y-85072200D02*
X123324874Y-85119819D01*
X123324874Y-85119819D02*
X123134398Y-85119819D01*
X123134398Y-85119819D02*
X123039160Y-85072200D01*
D11*
X156837640Y-84806678D02*
X156337640Y-84092392D01*
X155980497Y-84806678D02*
X155980497Y-83306678D01*
X155980497Y-83306678D02*
X156551926Y-83306678D01*
X156551926Y-83306678D02*
X156694783Y-83378107D01*
X156694783Y-83378107D02*
X156766212Y-83449535D01*
X156766212Y-83449535D02*
X156837640Y-83592392D01*
X156837640Y-83592392D02*
X156837640Y-83806678D01*
X156837640Y-83806678D02*
X156766212Y-83949535D01*
X156766212Y-83949535D02*
X156694783Y-84020964D01*
X156694783Y-84020964D02*
X156551926Y-84092392D01*
X156551926Y-84092392D02*
X155980497Y-84092392D01*
X157980497Y-84020964D02*
X157480497Y-84020964D01*
X157480497Y-84806678D02*
X157480497Y-83306678D01*
X157480497Y-83306678D02*
X158194783Y-83306678D01*
D10*
X118015350Y-95453152D02*
X118015350Y-96119819D01*
X117586779Y-95453152D02*
X117586779Y-95976961D01*
X117586779Y-95976961D02*
X117634398Y-96072200D01*
X117634398Y-96072200D02*
X117729636Y-96119819D01*
X117729636Y-96119819D02*
X117872493Y-96119819D01*
X117872493Y-96119819D02*
X117967731Y-96072200D01*
X117967731Y-96072200D02*
X118015350Y-96024580D01*
X118443922Y-96072200D02*
X118539160Y-96119819D01*
X118539160Y-96119819D02*
X118729636Y-96119819D01*
X118729636Y-96119819D02*
X118824874Y-96072200D01*
X118824874Y-96072200D02*
X118872493Y-95976961D01*
X118872493Y-95976961D02*
X118872493Y-95929342D01*
X118872493Y-95929342D02*
X118824874Y-95834104D01*
X118824874Y-95834104D02*
X118729636Y-95786485D01*
X118729636Y-95786485D02*
X118586779Y-95786485D01*
X118586779Y-95786485D02*
X118491541Y-95738866D01*
X118491541Y-95738866D02*
X118443922Y-95643628D01*
X118443922Y-95643628D02*
X118443922Y-95596009D01*
X118443922Y-95596009D02*
X118491541Y-95500771D01*
X118491541Y-95500771D02*
X118586779Y-95453152D01*
X118586779Y-95453152D02*
X118729636Y-95453152D01*
X118729636Y-95453152D02*
X118824874Y-95500771D01*
X119301065Y-96119819D02*
X119301065Y-95453152D01*
X119301065Y-95643628D02*
X119348684Y-95548390D01*
X119348684Y-95548390D02*
X119396303Y-95500771D01*
X119396303Y-95500771D02*
X119491541Y-95453152D01*
X119491541Y-95453152D02*
X119586779Y-95453152D01*
X120491541Y-96024580D02*
X120443922Y-96072200D01*
X120443922Y-96072200D02*
X120301065Y-96119819D01*
X120301065Y-96119819D02*
X120205827Y-96119819D01*
X120205827Y-96119819D02*
X120062970Y-96072200D01*
X120062970Y-96072200D02*
X119967732Y-95976961D01*
X119967732Y-95976961D02*
X119920113Y-95881723D01*
X119920113Y-95881723D02*
X119872494Y-95691247D01*
X119872494Y-95691247D02*
X119872494Y-95548390D01*
X119872494Y-95548390D02*
X119920113Y-95357914D01*
X119920113Y-95357914D02*
X119967732Y-95262676D01*
X119967732Y-95262676D02*
X120062970Y-95167438D01*
X120062970Y-95167438D02*
X120205827Y-95119819D01*
X120205827Y-95119819D02*
X120301065Y-95119819D01*
X120301065Y-95119819D02*
X120443922Y-95167438D01*
X120443922Y-95167438D02*
X120491541Y-95215057D01*
X120920113Y-96119819D02*
X120920113Y-95453152D01*
X120920113Y-95548390D02*
X120967732Y-95500771D01*
X120967732Y-95500771D02*
X121062970Y-95453152D01*
X121062970Y-95453152D02*
X121205827Y-95453152D01*
X121205827Y-95453152D02*
X121301065Y-95500771D01*
X121301065Y-95500771D02*
X121348684Y-95596009D01*
X121348684Y-95596009D02*
X121348684Y-96119819D01*
X121348684Y-95596009D02*
X121396303Y-95500771D01*
X121396303Y-95500771D02*
X121491541Y-95453152D01*
X121491541Y-95453152D02*
X121634398Y-95453152D01*
X121634398Y-95453152D02*
X121729637Y-95500771D01*
X121729637Y-95500771D02*
X121777256Y-95596009D01*
X121777256Y-95596009D02*
X121777256Y-96119819D01*
X122682017Y-96119819D02*
X122682017Y-95119819D01*
X122682017Y-96072200D02*
X122586779Y-96119819D01*
X122586779Y-96119819D02*
X122396303Y-96119819D01*
X122396303Y-96119819D02*
X122301065Y-96072200D01*
X122301065Y-96072200D02*
X122253446Y-96024580D01*
X122253446Y-96024580D02*
X122205827Y-95929342D01*
X122205827Y-95929342D02*
X122205827Y-95643628D01*
X122205827Y-95643628D02*
X122253446Y-95548390D01*
X122253446Y-95548390D02*
X122301065Y-95500771D01*
X122301065Y-95500771D02*
X122396303Y-95453152D01*
X122396303Y-95453152D02*
X122586779Y-95453152D01*
X122586779Y-95453152D02*
X122682017Y-95500771D01*
X123072493Y-95506485D02*
X123110589Y-95468390D01*
X123110589Y-95468390D02*
X123186779Y-95430295D01*
X123186779Y-95430295D02*
X123377255Y-95430295D01*
X123377255Y-95430295D02*
X123453446Y-95468390D01*
X123453446Y-95468390D02*
X123491541Y-95506485D01*
X123491541Y-95506485D02*
X123529636Y-95582676D01*
X123529636Y-95582676D02*
X123529636Y-95658866D01*
X123529636Y-95658866D02*
X123491541Y-95773152D01*
X123491541Y-95773152D02*
X123034398Y-96230295D01*
X123034398Y-96230295D02*
X123529636Y-96230295D01*
D11*
X131087640Y-106413821D02*
X131016212Y-106485250D01*
X131016212Y-106485250D02*
X130801926Y-106556678D01*
X130801926Y-106556678D02*
X130659069Y-106556678D01*
X130659069Y-106556678D02*
X130444783Y-106485250D01*
X130444783Y-106485250D02*
X130301926Y-106342392D01*
X130301926Y-106342392D02*
X130230497Y-106199535D01*
X130230497Y-106199535D02*
X130159069Y-105913821D01*
X130159069Y-105913821D02*
X130159069Y-105699535D01*
X130159069Y-105699535D02*
X130230497Y-105413821D01*
X130230497Y-105413821D02*
X130301926Y-105270964D01*
X130301926Y-105270964D02*
X130444783Y-105128107D01*
X130444783Y-105128107D02*
X130659069Y-105056678D01*
X130659069Y-105056678D02*
X130801926Y-105056678D01*
X130801926Y-105056678D02*
X131016212Y-105128107D01*
X131016212Y-105128107D02*
X131087640Y-105199535D01*
X131659069Y-106128107D02*
X132373355Y-106128107D01*
X131516212Y-106556678D02*
X132016212Y-105056678D01*
X132016212Y-105056678D02*
X132516212Y-106556678D01*
X133016211Y-106556678D02*
X133016211Y-105056678D01*
X133016211Y-105056678D02*
X133516211Y-106128107D01*
X133516211Y-106128107D02*
X134016211Y-105056678D01*
X134016211Y-105056678D02*
X134016211Y-106556678D01*
D10*
X118420112Y-82096009D02*
X118562969Y-82143628D01*
X118562969Y-82143628D02*
X118610588Y-82191247D01*
X118610588Y-82191247D02*
X118658207Y-82286485D01*
X118658207Y-82286485D02*
X118658207Y-82429342D01*
X118658207Y-82429342D02*
X118610588Y-82524580D01*
X118610588Y-82524580D02*
X118562969Y-82572200D01*
X118562969Y-82572200D02*
X118467731Y-82619819D01*
X118467731Y-82619819D02*
X118086779Y-82619819D01*
X118086779Y-82619819D02*
X118086779Y-81619819D01*
X118086779Y-81619819D02*
X118420112Y-81619819D01*
X118420112Y-81619819D02*
X118515350Y-81667438D01*
X118515350Y-81667438D02*
X118562969Y-81715057D01*
X118562969Y-81715057D02*
X118610588Y-81810295D01*
X118610588Y-81810295D02*
X118610588Y-81905533D01*
X118610588Y-81905533D02*
X118562969Y-82000771D01*
X118562969Y-82000771D02*
X118515350Y-82048390D01*
X118515350Y-82048390D02*
X118420112Y-82096009D01*
X118420112Y-82096009D02*
X118086779Y-82096009D01*
X119277255Y-81619819D02*
X119467731Y-81619819D01*
X119467731Y-81619819D02*
X119562969Y-81667438D01*
X119562969Y-81667438D02*
X119658207Y-81762676D01*
X119658207Y-81762676D02*
X119705826Y-81953152D01*
X119705826Y-81953152D02*
X119705826Y-82286485D01*
X119705826Y-82286485D02*
X119658207Y-82476961D01*
X119658207Y-82476961D02*
X119562969Y-82572200D01*
X119562969Y-82572200D02*
X119467731Y-82619819D01*
X119467731Y-82619819D02*
X119277255Y-82619819D01*
X119277255Y-82619819D02*
X119182017Y-82572200D01*
X119182017Y-82572200D02*
X119086779Y-82476961D01*
X119086779Y-82476961D02*
X119039160Y-82286485D01*
X119039160Y-82286485D02*
X119039160Y-81953152D01*
X119039160Y-81953152D02*
X119086779Y-81762676D01*
X119086779Y-81762676D02*
X119182017Y-81667438D01*
X119182017Y-81667438D02*
X119277255Y-81619819D01*
X120324874Y-81619819D02*
X120515350Y-81619819D01*
X120515350Y-81619819D02*
X120610588Y-81667438D01*
X120610588Y-81667438D02*
X120705826Y-81762676D01*
X120705826Y-81762676D02*
X120753445Y-81953152D01*
X120753445Y-81953152D02*
X120753445Y-82286485D01*
X120753445Y-82286485D02*
X120705826Y-82476961D01*
X120705826Y-82476961D02*
X120610588Y-82572200D01*
X120610588Y-82572200D02*
X120515350Y-82619819D01*
X120515350Y-82619819D02*
X120324874Y-82619819D01*
X120324874Y-82619819D02*
X120229636Y-82572200D01*
X120229636Y-82572200D02*
X120134398Y-82476961D01*
X120134398Y-82476961D02*
X120086779Y-82286485D01*
X120086779Y-82286485D02*
X120086779Y-81953152D01*
X120086779Y-81953152D02*
X120134398Y-81762676D01*
X120134398Y-81762676D02*
X120229636Y-81667438D01*
X120229636Y-81667438D02*
X120324874Y-81619819D01*
X121039160Y-81619819D02*
X121610588Y-81619819D01*
X121324874Y-82619819D02*
X121324874Y-81619819D01*
X118015350Y-92953152D02*
X118015350Y-93619819D01*
X117586779Y-92953152D02*
X117586779Y-93476961D01*
X117586779Y-93476961D02*
X117634398Y-93572200D01*
X117634398Y-93572200D02*
X117729636Y-93619819D01*
X117729636Y-93619819D02*
X117872493Y-93619819D01*
X117872493Y-93619819D02*
X117967731Y-93572200D01*
X117967731Y-93572200D02*
X118015350Y-93524580D01*
X118443922Y-93572200D02*
X118539160Y-93619819D01*
X118539160Y-93619819D02*
X118729636Y-93619819D01*
X118729636Y-93619819D02*
X118824874Y-93572200D01*
X118824874Y-93572200D02*
X118872493Y-93476961D01*
X118872493Y-93476961D02*
X118872493Y-93429342D01*
X118872493Y-93429342D02*
X118824874Y-93334104D01*
X118824874Y-93334104D02*
X118729636Y-93286485D01*
X118729636Y-93286485D02*
X118586779Y-93286485D01*
X118586779Y-93286485D02*
X118491541Y-93238866D01*
X118491541Y-93238866D02*
X118443922Y-93143628D01*
X118443922Y-93143628D02*
X118443922Y-93096009D01*
X118443922Y-93096009D02*
X118491541Y-93000771D01*
X118491541Y-93000771D02*
X118586779Y-92953152D01*
X118586779Y-92953152D02*
X118729636Y-92953152D01*
X118729636Y-92953152D02*
X118824874Y-93000771D01*
X119301065Y-93619819D02*
X119301065Y-92953152D01*
X119301065Y-93143628D02*
X119348684Y-93048390D01*
X119348684Y-93048390D02*
X119396303Y-93000771D01*
X119396303Y-93000771D02*
X119491541Y-92953152D01*
X119491541Y-92953152D02*
X119586779Y-92953152D01*
X120491541Y-93524580D02*
X120443922Y-93572200D01*
X120443922Y-93572200D02*
X120301065Y-93619819D01*
X120301065Y-93619819D02*
X120205827Y-93619819D01*
X120205827Y-93619819D02*
X120062970Y-93572200D01*
X120062970Y-93572200D02*
X119967732Y-93476961D01*
X119967732Y-93476961D02*
X119920113Y-93381723D01*
X119920113Y-93381723D02*
X119872494Y-93191247D01*
X119872494Y-93191247D02*
X119872494Y-93048390D01*
X119872494Y-93048390D02*
X119920113Y-92857914D01*
X119920113Y-92857914D02*
X119967732Y-92762676D01*
X119967732Y-92762676D02*
X120062970Y-92667438D01*
X120062970Y-92667438D02*
X120205827Y-92619819D01*
X120205827Y-92619819D02*
X120301065Y-92619819D01*
X120301065Y-92619819D02*
X120443922Y-92667438D01*
X120443922Y-92667438D02*
X120491541Y-92715057D01*
X120920113Y-93619819D02*
X120920113Y-92953152D01*
X120920113Y-93048390D02*
X120967732Y-93000771D01*
X120967732Y-93000771D02*
X121062970Y-92953152D01*
X121062970Y-92953152D02*
X121205827Y-92953152D01*
X121205827Y-92953152D02*
X121301065Y-93000771D01*
X121301065Y-93000771D02*
X121348684Y-93096009D01*
X121348684Y-93096009D02*
X121348684Y-93619819D01*
X121348684Y-93096009D02*
X121396303Y-93000771D01*
X121396303Y-93000771D02*
X121491541Y-92953152D01*
X121491541Y-92953152D02*
X121634398Y-92953152D01*
X121634398Y-92953152D02*
X121729637Y-93000771D01*
X121729637Y-93000771D02*
X121777256Y-93096009D01*
X121777256Y-93096009D02*
X121777256Y-93619819D01*
X122682017Y-93619819D02*
X122682017Y-92619819D01*
X122682017Y-93572200D02*
X122586779Y-93619819D01*
X122586779Y-93619819D02*
X122396303Y-93619819D01*
X122396303Y-93619819D02*
X122301065Y-93572200D01*
X122301065Y-93572200D02*
X122253446Y-93524580D01*
X122253446Y-93524580D02*
X122205827Y-93429342D01*
X122205827Y-93429342D02*
X122205827Y-93143628D01*
X122205827Y-93143628D02*
X122253446Y-93048390D01*
X122253446Y-93048390D02*
X122301065Y-93000771D01*
X122301065Y-93000771D02*
X122396303Y-92953152D01*
X122396303Y-92953152D02*
X122586779Y-92953152D01*
X122586779Y-92953152D02*
X122682017Y-93000771D01*
X123529636Y-93730295D02*
X123072493Y-93730295D01*
X123301065Y-93730295D02*
X123301065Y-92930295D01*
X123301065Y-92930295D02*
X123224874Y-93044580D01*
X123224874Y-93044580D02*
X123148684Y-93120771D01*
X123148684Y-93120771D02*
X123072493Y-93158866D01*
X118658207Y-79869819D02*
X118324874Y-79393628D01*
X118086779Y-79869819D02*
X118086779Y-78869819D01*
X118086779Y-78869819D02*
X118467731Y-78869819D01*
X118467731Y-78869819D02*
X118562969Y-78917438D01*
X118562969Y-78917438D02*
X118610588Y-78965057D01*
X118610588Y-78965057D02*
X118658207Y-79060295D01*
X118658207Y-79060295D02*
X118658207Y-79203152D01*
X118658207Y-79203152D02*
X118610588Y-79298390D01*
X118610588Y-79298390D02*
X118562969Y-79346009D01*
X118562969Y-79346009D02*
X118467731Y-79393628D01*
X118467731Y-79393628D02*
X118086779Y-79393628D01*
X119467731Y-79822200D02*
X119372493Y-79869819D01*
X119372493Y-79869819D02*
X119182017Y-79869819D01*
X119182017Y-79869819D02*
X119086779Y-79822200D01*
X119086779Y-79822200D02*
X119039160Y-79726961D01*
X119039160Y-79726961D02*
X119039160Y-79346009D01*
X119039160Y-79346009D02*
X119086779Y-79250771D01*
X119086779Y-79250771D02*
X119182017Y-79203152D01*
X119182017Y-79203152D02*
X119372493Y-79203152D01*
X119372493Y-79203152D02*
X119467731Y-79250771D01*
X119467731Y-79250771D02*
X119515350Y-79346009D01*
X119515350Y-79346009D02*
X119515350Y-79441247D01*
X119515350Y-79441247D02*
X119039160Y-79536485D01*
X119896303Y-79822200D02*
X119991541Y-79869819D01*
X119991541Y-79869819D02*
X120182017Y-79869819D01*
X120182017Y-79869819D02*
X120277255Y-79822200D01*
X120277255Y-79822200D02*
X120324874Y-79726961D01*
X120324874Y-79726961D02*
X120324874Y-79679342D01*
X120324874Y-79679342D02*
X120277255Y-79584104D01*
X120277255Y-79584104D02*
X120182017Y-79536485D01*
X120182017Y-79536485D02*
X120039160Y-79536485D01*
X120039160Y-79536485D02*
X119943922Y-79488866D01*
X119943922Y-79488866D02*
X119896303Y-79393628D01*
X119896303Y-79393628D02*
X119896303Y-79346009D01*
X119896303Y-79346009D02*
X119943922Y-79250771D01*
X119943922Y-79250771D02*
X120039160Y-79203152D01*
X120039160Y-79203152D02*
X120182017Y-79203152D01*
X120182017Y-79203152D02*
X120277255Y-79250771D01*
X121134398Y-79822200D02*
X121039160Y-79869819D01*
X121039160Y-79869819D02*
X120848684Y-79869819D01*
X120848684Y-79869819D02*
X120753446Y-79822200D01*
X120753446Y-79822200D02*
X120705827Y-79726961D01*
X120705827Y-79726961D02*
X120705827Y-79346009D01*
X120705827Y-79346009D02*
X120753446Y-79250771D01*
X120753446Y-79250771D02*
X120848684Y-79203152D01*
X120848684Y-79203152D02*
X121039160Y-79203152D01*
X121039160Y-79203152D02*
X121134398Y-79250771D01*
X121134398Y-79250771D02*
X121182017Y-79346009D01*
X121182017Y-79346009D02*
X121182017Y-79441247D01*
X121182017Y-79441247D02*
X120705827Y-79536485D01*
X121467732Y-79203152D02*
X121848684Y-79203152D01*
X121610589Y-78869819D02*
X121610589Y-79726961D01*
X121610589Y-79726961D02*
X121658208Y-79822200D01*
X121658208Y-79822200D02*
X121753446Y-79869819D01*
X121753446Y-79869819D02*
X121848684Y-79869819D01*
D12*
X130382204Y-66234438D02*
X129715537Y-65282057D01*
X129239347Y-66234438D02*
X129239347Y-64234438D01*
X129239347Y-64234438D02*
X130001252Y-64234438D01*
X130001252Y-64234438D02*
X130191728Y-64329676D01*
X130191728Y-64329676D02*
X130286966Y-64424914D01*
X130286966Y-64424914D02*
X130382204Y-64615390D01*
X130382204Y-64615390D02*
X130382204Y-64901104D01*
X130382204Y-64901104D02*
X130286966Y-65091580D01*
X130286966Y-65091580D02*
X130191728Y-65186819D01*
X130191728Y-65186819D02*
X130001252Y-65282057D01*
X130001252Y-65282057D02*
X129239347Y-65282057D01*
X131239347Y-65186819D02*
X131906014Y-65186819D01*
X132191728Y-66234438D02*
X131239347Y-66234438D01*
X131239347Y-66234438D02*
X131239347Y-64234438D01*
X131239347Y-64234438D02*
X132191728Y-64234438D01*
X132763157Y-64234438D02*
X133429823Y-66234438D01*
X133429823Y-66234438D02*
X134096490Y-64234438D01*
X136191729Y-64424914D02*
X136286967Y-64329676D01*
X136286967Y-64329676D02*
X136477443Y-64234438D01*
X136477443Y-64234438D02*
X136953634Y-64234438D01*
X136953634Y-64234438D02*
X137144110Y-64329676D01*
X137144110Y-64329676D02*
X137239348Y-64424914D01*
X137239348Y-64424914D02*
X137334586Y-64615390D01*
X137334586Y-64615390D02*
X137334586Y-64805866D01*
X137334586Y-64805866D02*
X137239348Y-65091580D01*
X137239348Y-65091580D02*
X136096491Y-66234438D01*
X136096491Y-66234438D02*
X137334586Y-66234438D01*
D10*
X163677716Y-72884398D02*
X163606287Y-73098684D01*
X163606287Y-73098684D02*
X163606287Y-73455826D01*
X163606287Y-73455826D02*
X163677716Y-73598684D01*
X163677716Y-73598684D02*
X163749144Y-73670112D01*
X163749144Y-73670112D02*
X163892001Y-73741541D01*
X163892001Y-73741541D02*
X164034858Y-73741541D01*
X164034858Y-73741541D02*
X164177716Y-73670112D01*
X164177716Y-73670112D02*
X164249144Y-73598684D01*
X164249144Y-73598684D02*
X164320573Y-73455826D01*
X164320573Y-73455826D02*
X164392001Y-73170112D01*
X164392001Y-73170112D02*
X164463430Y-73027255D01*
X164463430Y-73027255D02*
X164534858Y-72955826D01*
X164534858Y-72955826D02*
X164677716Y-72884398D01*
X164677716Y-72884398D02*
X164820573Y-72884398D01*
X164820573Y-72884398D02*
X164963430Y-72955826D01*
X164963430Y-72955826D02*
X165034858Y-73027255D01*
X165034858Y-73027255D02*
X165106287Y-73170112D01*
X165106287Y-73170112D02*
X165106287Y-73527255D01*
X165106287Y-73527255D02*
X165034858Y-73741541D01*
X165106287Y-74241540D02*
X163606287Y-74598683D01*
X163606287Y-74598683D02*
X164677716Y-74884397D01*
X164677716Y-74884397D02*
X163606287Y-75170112D01*
X163606287Y-75170112D02*
X165106287Y-75527255D01*
X163606287Y-76098683D02*
X165106287Y-76098683D01*
X165106287Y-76098683D02*
X165106287Y-76455826D01*
X165106287Y-76455826D02*
X165034858Y-76670112D01*
X165034858Y-76670112D02*
X164892001Y-76812969D01*
X164892001Y-76812969D02*
X164749144Y-76884398D01*
X164749144Y-76884398D02*
X164463430Y-76955826D01*
X164463430Y-76955826D02*
X164249144Y-76955826D01*
X164249144Y-76955826D02*
X163963430Y-76884398D01*
X163963430Y-76884398D02*
X163820573Y-76812969D01*
X163820573Y-76812969D02*
X163677716Y-76670112D01*
X163677716Y-76670112D02*
X163606287Y-76455826D01*
X163606287Y-76455826D02*
X163606287Y-76098683D01*
X165177716Y-78670112D02*
X163249144Y-77384398D01*
X162691371Y-73384398D02*
X161619942Y-73384398D01*
X161619942Y-73384398D02*
X161405657Y-73312969D01*
X161405657Y-73312969D02*
X161262800Y-73170112D01*
X161262800Y-73170112D02*
X161191371Y-72955826D01*
X161191371Y-72955826D02*
X161191371Y-72812969D01*
X162691371Y-73884398D02*
X162691371Y-74741541D01*
X161191371Y-74312969D02*
X162691371Y-74312969D01*
X161619942Y-75170112D02*
X161619942Y-75884398D01*
X161191371Y-75027255D02*
X162691371Y-75527255D01*
X162691371Y-75527255D02*
X161191371Y-76027255D01*
X162619942Y-77312969D02*
X162691371Y-77170112D01*
X162691371Y-77170112D02*
X162691371Y-76955826D01*
X162691371Y-76955826D02*
X162619942Y-76741540D01*
X162619942Y-76741540D02*
X162477085Y-76598683D01*
X162477085Y-76598683D02*
X162334228Y-76527254D01*
X162334228Y-76527254D02*
X162048514Y-76455826D01*
X162048514Y-76455826D02*
X161834228Y-76455826D01*
X161834228Y-76455826D02*
X161548514Y-76527254D01*
X161548514Y-76527254D02*
X161405657Y-76598683D01*
X161405657Y-76598683D02*
X161262800Y-76741540D01*
X161262800Y-76741540D02*
X161191371Y-76955826D01*
X161191371Y-76955826D02*
X161191371Y-77098683D01*
X161191371Y-77098683D02*
X161262800Y-77312969D01*
X161262800Y-77312969D02*
X161334228Y-77384397D01*
X161334228Y-77384397D02*
X161834228Y-77384397D01*
X161834228Y-77384397D02*
X161834228Y-77098683D01*
X163788152Y-65285714D02*
X164454819Y-65285714D01*
X163407200Y-65523809D02*
X164121485Y-65761904D01*
X164121485Y-65761904D02*
X164121485Y-65142857D01*
X163883390Y-64619047D02*
X163835771Y-64714285D01*
X163835771Y-64714285D02*
X163788152Y-64761904D01*
X163788152Y-64761904D02*
X163692914Y-64809523D01*
X163692914Y-64809523D02*
X163645295Y-64809523D01*
X163645295Y-64809523D02*
X163550057Y-64761904D01*
X163550057Y-64761904D02*
X163502438Y-64714285D01*
X163502438Y-64714285D02*
X163454819Y-64619047D01*
X163454819Y-64619047D02*
X163454819Y-64428571D01*
X163454819Y-64428571D02*
X163502438Y-64333333D01*
X163502438Y-64333333D02*
X163550057Y-64285714D01*
X163550057Y-64285714D02*
X163645295Y-64238095D01*
X163645295Y-64238095D02*
X163692914Y-64238095D01*
X163692914Y-64238095D02*
X163788152Y-64285714D01*
X163788152Y-64285714D02*
X163835771Y-64333333D01*
X163835771Y-64333333D02*
X163883390Y-64428571D01*
X163883390Y-64428571D02*
X163883390Y-64619047D01*
X163883390Y-64619047D02*
X163931009Y-64714285D01*
X163931009Y-64714285D02*
X163978628Y-64761904D01*
X163978628Y-64761904D02*
X164073866Y-64809523D01*
X164073866Y-64809523D02*
X164264342Y-64809523D01*
X164264342Y-64809523D02*
X164359580Y-64761904D01*
X164359580Y-64761904D02*
X164407200Y-64714285D01*
X164407200Y-64714285D02*
X164454819Y-64619047D01*
X164454819Y-64619047D02*
X164454819Y-64428571D01*
X164454819Y-64428571D02*
X164407200Y-64333333D01*
X164407200Y-64333333D02*
X164359580Y-64285714D01*
X164359580Y-64285714D02*
X164264342Y-64238095D01*
X164264342Y-64238095D02*
X164073866Y-64238095D01*
X164073866Y-64238095D02*
X163978628Y-64285714D01*
X163978628Y-64285714D02*
X163931009Y-64333333D01*
X163931009Y-64333333D02*
X163883390Y-64428571D01*
X164585325Y-105250000D02*
X166086420Y-105250000D01*
X166086420Y-57250000D02*
X164585325Y-57250000D01*
X165500000Y-105250000D02*
X165500000Y-57250000D01*
X165500000Y-105250000D02*
X164913579Y-104123496D01*
X165500000Y-105250000D02*
X166086421Y-104123496D01*
X165500000Y-57250000D02*
X166086421Y-58376504D01*
X165500000Y-57250000D02*
X164913579Y-58376504D01*
X119761904Y-106104819D02*
X119285714Y-106104819D01*
X119285714Y-106104819D02*
X119238095Y-106581009D01*
X119238095Y-106581009D02*
X119285714Y-106533390D01*
X119285714Y-106533390D02*
X119380952Y-106485771D01*
X119380952Y-106485771D02*
X119619047Y-106485771D01*
X119619047Y-106485771D02*
X119714285Y-106533390D01*
X119714285Y-106533390D02*
X119761904Y-106581009D01*
X119761904Y-106581009D02*
X119809523Y-106676247D01*
X119809523Y-106676247D02*
X119809523Y-106914342D01*
X119809523Y-106914342D02*
X119761904Y-107009580D01*
X119761904Y-107009580D02*
X119714285Y-107057200D01*
X119714285Y-107057200D02*
X119619047Y-107104819D01*
X119619047Y-107104819D02*
X119380952Y-107104819D01*
X119380952Y-107104819D02*
X119285714Y-107057200D01*
X119285714Y-107057200D02*
X119238095Y-107009580D01*
X120142857Y-106104819D02*
X120761904Y-106104819D01*
X120761904Y-106104819D02*
X120428571Y-106485771D01*
X120428571Y-106485771D02*
X120571428Y-106485771D01*
X120571428Y-106485771D02*
X120666666Y-106533390D01*
X120666666Y-106533390D02*
X120714285Y-106581009D01*
X120714285Y-106581009D02*
X120761904Y-106676247D01*
X120761904Y-106676247D02*
X120761904Y-106914342D01*
X120761904Y-106914342D02*
X120714285Y-107009580D01*
X120714285Y-107009580D02*
X120666666Y-107057200D01*
X120666666Y-107057200D02*
X120571428Y-107104819D01*
X120571428Y-107104819D02*
X120285714Y-107104819D01*
X120285714Y-107104819D02*
X120190476Y-107057200D01*
X120190476Y-107057200D02*
X120142857Y-107009580D01*
X109750000Y-107000000D02*
X109750000Y-108336420D01*
X162750000Y-108336420D02*
X162750000Y-107000000D01*
X109750000Y-107750000D02*
X162750000Y-107750000D01*
X109750000Y-107750000D02*
X110876504Y-107163579D01*
X109750000Y-107750000D02*
X110876504Y-108336421D01*
X162750000Y-107750000D02*
X161623496Y-108336421D01*
X162750000Y-107750000D02*
X161623496Y-107163579D01*
X159239819Y-75333333D02*
X159954104Y-75333333D01*
X159954104Y-75333333D02*
X160096961Y-75380952D01*
X160096961Y-75380952D02*
X160192200Y-75476190D01*
X160192200Y-75476190D02*
X160239819Y-75619047D01*
X160239819Y-75619047D02*
X160239819Y-75714285D01*
X159239819Y-74380952D02*
X159239819Y-74857142D01*
X159239819Y-74857142D02*
X159716009Y-74904761D01*
X159716009Y-74904761D02*
X159668390Y-74857142D01*
X159668390Y-74857142D02*
X159620771Y-74761904D01*
X159620771Y-74761904D02*
X159620771Y-74523809D01*
X159620771Y-74523809D02*
X159668390Y-74428571D01*
X159668390Y-74428571D02*
X159716009Y-74380952D01*
X159716009Y-74380952D02*
X159811247Y-74333333D01*
X159811247Y-74333333D02*
X160049342Y-74333333D01*
X160049342Y-74333333D02*
X160144580Y-74380952D01*
X160144580Y-74380952D02*
X160192200Y-74428571D01*
X160192200Y-74428571D02*
X160239819Y-74523809D01*
X160239819Y-74523809D02*
X160239819Y-74761904D01*
X160239819Y-74761904D02*
X160192200Y-74857142D01*
X160192200Y-74857142D02*
X160144580Y-74904761D01*
X158833333Y-101704819D02*
X158500000Y-101228628D01*
X158261905Y-101704819D02*
X158261905Y-100704819D01*
X158261905Y-100704819D02*
X158642857Y-100704819D01*
X158642857Y-100704819D02*
X158738095Y-100752438D01*
X158738095Y-100752438D02*
X158785714Y-100800057D01*
X158785714Y-100800057D02*
X158833333Y-100895295D01*
X158833333Y-100895295D02*
X158833333Y-101038152D01*
X158833333Y-101038152D02*
X158785714Y-101133390D01*
X158785714Y-101133390D02*
X158738095Y-101181009D01*
X158738095Y-101181009D02*
X158642857Y-101228628D01*
X158642857Y-101228628D02*
X158261905Y-101228628D01*
X159166667Y-100704819D02*
X159785714Y-100704819D01*
X159785714Y-100704819D02*
X159452381Y-101085771D01*
X159452381Y-101085771D02*
X159595238Y-101085771D01*
X159595238Y-101085771D02*
X159690476Y-101133390D01*
X159690476Y-101133390D02*
X159738095Y-101181009D01*
X159738095Y-101181009D02*
X159785714Y-101276247D01*
X159785714Y-101276247D02*
X159785714Y-101514342D01*
X159785714Y-101514342D02*
X159738095Y-101609580D01*
X159738095Y-101609580D02*
X159690476Y-101657200D01*
X159690476Y-101657200D02*
X159595238Y-101704819D01*
X159595238Y-101704819D02*
X159309524Y-101704819D01*
X159309524Y-101704819D02*
X159214286Y-101657200D01*
X159214286Y-101657200D02*
X159166667Y-101609580D01*
D13*
X137010237Y-63074318D02*
X137010237Y-61804318D01*
X138340714Y-62953365D02*
X138280238Y-63013842D01*
X138280238Y-63013842D02*
X138098809Y-63074318D01*
X138098809Y-63074318D02*
X137977857Y-63074318D01*
X137977857Y-63074318D02*
X137796428Y-63013842D01*
X137796428Y-63013842D02*
X137675476Y-62892889D01*
X137675476Y-62892889D02*
X137614999Y-62771937D01*
X137614999Y-62771937D02*
X137554523Y-62530032D01*
X137554523Y-62530032D02*
X137554523Y-62348603D01*
X137554523Y-62348603D02*
X137614999Y-62106699D01*
X137614999Y-62106699D02*
X137675476Y-61985746D01*
X137675476Y-61985746D02*
X137796428Y-61864794D01*
X137796428Y-61864794D02*
X137977857Y-61804318D01*
X137977857Y-61804318D02*
X138098809Y-61804318D01*
X138098809Y-61804318D02*
X138280238Y-61864794D01*
X138280238Y-61864794D02*
X138340714Y-61925270D01*
X138824523Y-61925270D02*
X138884999Y-61864794D01*
X138884999Y-61864794D02*
X139005952Y-61804318D01*
X139005952Y-61804318D02*
X139308333Y-61804318D01*
X139308333Y-61804318D02*
X139429285Y-61864794D01*
X139429285Y-61864794D02*
X139489761Y-61925270D01*
X139489761Y-61925270D02*
X139550238Y-62046222D01*
X139550238Y-62046222D02*
X139550238Y-62167175D01*
X139550238Y-62167175D02*
X139489761Y-62348603D01*
X139489761Y-62348603D02*
X138764047Y-63074318D01*
X138764047Y-63074318D02*
X139550238Y-63074318D01*
D10*
X129357142Y-72204819D02*
X129023809Y-71728628D01*
X128785714Y-72204819D02*
X128785714Y-71204819D01*
X128785714Y-71204819D02*
X129166666Y-71204819D01*
X129166666Y-71204819D02*
X129261904Y-71252438D01*
X129261904Y-71252438D02*
X129309523Y-71300057D01*
X129309523Y-71300057D02*
X129357142Y-71395295D01*
X129357142Y-71395295D02*
X129357142Y-71538152D01*
X129357142Y-71538152D02*
X129309523Y-71633390D01*
X129309523Y-71633390D02*
X129261904Y-71681009D01*
X129261904Y-71681009D02*
X129166666Y-71728628D01*
X129166666Y-71728628D02*
X128785714Y-71728628D01*
X130309523Y-72204819D02*
X129738095Y-72204819D01*
X130023809Y-72204819D02*
X130023809Y-71204819D01*
X130023809Y-71204819D02*
X129928571Y-71347676D01*
X129928571Y-71347676D02*
X129833333Y-71442914D01*
X129833333Y-71442914D02*
X129738095Y-71490533D01*
X130880952Y-71633390D02*
X130785714Y-71585771D01*
X130785714Y-71585771D02*
X130738095Y-71538152D01*
X130738095Y-71538152D02*
X130690476Y-71442914D01*
X130690476Y-71442914D02*
X130690476Y-71395295D01*
X130690476Y-71395295D02*
X130738095Y-71300057D01*
X130738095Y-71300057D02*
X130785714Y-71252438D01*
X130785714Y-71252438D02*
X130880952Y-71204819D01*
X130880952Y-71204819D02*
X131071428Y-71204819D01*
X131071428Y-71204819D02*
X131166666Y-71252438D01*
X131166666Y-71252438D02*
X131214285Y-71300057D01*
X131214285Y-71300057D02*
X131261904Y-71395295D01*
X131261904Y-71395295D02*
X131261904Y-71442914D01*
X131261904Y-71442914D02*
X131214285Y-71538152D01*
X131214285Y-71538152D02*
X131166666Y-71585771D01*
X131166666Y-71585771D02*
X131071428Y-71633390D01*
X131071428Y-71633390D02*
X130880952Y-71633390D01*
X130880952Y-71633390D02*
X130785714Y-71681009D01*
X130785714Y-71681009D02*
X130738095Y-71728628D01*
X130738095Y-71728628D02*
X130690476Y-71823866D01*
X130690476Y-71823866D02*
X130690476Y-72014342D01*
X130690476Y-72014342D02*
X130738095Y-72109580D01*
X130738095Y-72109580D02*
X130785714Y-72157200D01*
X130785714Y-72157200D02*
X130880952Y-72204819D01*
X130880952Y-72204819D02*
X131071428Y-72204819D01*
X131071428Y-72204819D02*
X131166666Y-72157200D01*
X131166666Y-72157200D02*
X131214285Y-72109580D01*
X131214285Y-72109580D02*
X131261904Y-72014342D01*
X131261904Y-72014342D02*
X131261904Y-71823866D01*
X131261904Y-71823866D02*
X131214285Y-71728628D01*
X131214285Y-71728628D02*
X131166666Y-71681009D01*
X131166666Y-71681009D02*
X131071428Y-71633390D01*
X151583333Y-103954819D02*
X151250000Y-103478628D01*
X151011905Y-103954819D02*
X151011905Y-102954819D01*
X151011905Y-102954819D02*
X151392857Y-102954819D01*
X151392857Y-102954819D02*
X151488095Y-103002438D01*
X151488095Y-103002438D02*
X151535714Y-103050057D01*
X151535714Y-103050057D02*
X151583333Y-103145295D01*
X151583333Y-103145295D02*
X151583333Y-103288152D01*
X151583333Y-103288152D02*
X151535714Y-103383390D01*
X151535714Y-103383390D02*
X151488095Y-103431009D01*
X151488095Y-103431009D02*
X151392857Y-103478628D01*
X151392857Y-103478628D02*
X151011905Y-103478628D01*
X152440476Y-103288152D02*
X152440476Y-103954819D01*
X152202381Y-102907200D02*
X151964286Y-103621485D01*
X151964286Y-103621485D02*
X152583333Y-103621485D01*
X142583333Y-79359580D02*
X142535714Y-79407200D01*
X142535714Y-79407200D02*
X142392857Y-79454819D01*
X142392857Y-79454819D02*
X142297619Y-79454819D01*
X142297619Y-79454819D02*
X142154762Y-79407200D01*
X142154762Y-79407200D02*
X142059524Y-79311961D01*
X142059524Y-79311961D02*
X142011905Y-79216723D01*
X142011905Y-79216723D02*
X141964286Y-79026247D01*
X141964286Y-79026247D02*
X141964286Y-78883390D01*
X141964286Y-78883390D02*
X142011905Y-78692914D01*
X142011905Y-78692914D02*
X142059524Y-78597676D01*
X142059524Y-78597676D02*
X142154762Y-78502438D01*
X142154762Y-78502438D02*
X142297619Y-78454819D01*
X142297619Y-78454819D02*
X142392857Y-78454819D01*
X142392857Y-78454819D02*
X142535714Y-78502438D01*
X142535714Y-78502438D02*
X142583333Y-78550057D01*
X143154762Y-78883390D02*
X143059524Y-78835771D01*
X143059524Y-78835771D02*
X143011905Y-78788152D01*
X143011905Y-78788152D02*
X142964286Y-78692914D01*
X142964286Y-78692914D02*
X142964286Y-78645295D01*
X142964286Y-78645295D02*
X143011905Y-78550057D01*
X143011905Y-78550057D02*
X143059524Y-78502438D01*
X143059524Y-78502438D02*
X143154762Y-78454819D01*
X143154762Y-78454819D02*
X143345238Y-78454819D01*
X143345238Y-78454819D02*
X143440476Y-78502438D01*
X143440476Y-78502438D02*
X143488095Y-78550057D01*
X143488095Y-78550057D02*
X143535714Y-78645295D01*
X143535714Y-78645295D02*
X143535714Y-78692914D01*
X143535714Y-78692914D02*
X143488095Y-78788152D01*
X143488095Y-78788152D02*
X143440476Y-78835771D01*
X143440476Y-78835771D02*
X143345238Y-78883390D01*
X143345238Y-78883390D02*
X143154762Y-78883390D01*
X143154762Y-78883390D02*
X143059524Y-78931009D01*
X143059524Y-78931009D02*
X143011905Y-78978628D01*
X143011905Y-78978628D02*
X142964286Y-79073866D01*
X142964286Y-79073866D02*
X142964286Y-79264342D01*
X142964286Y-79264342D02*
X143011905Y-79359580D01*
X143011905Y-79359580D02*
X143059524Y-79407200D01*
X143059524Y-79407200D02*
X143154762Y-79454819D01*
X143154762Y-79454819D02*
X143345238Y-79454819D01*
X143345238Y-79454819D02*
X143440476Y-79407200D01*
X143440476Y-79407200D02*
X143488095Y-79359580D01*
X143488095Y-79359580D02*
X143535714Y-79264342D01*
X143535714Y-79264342D02*
X143535714Y-79073866D01*
X143535714Y-79073866D02*
X143488095Y-78978628D01*
X143488095Y-78978628D02*
X143440476Y-78931009D01*
X143440476Y-78931009D02*
X143345238Y-78883390D01*
X130583333Y-94634819D02*
X130250000Y-94158628D01*
X130011905Y-94634819D02*
X130011905Y-93634819D01*
X130011905Y-93634819D02*
X130392857Y-93634819D01*
X130392857Y-93634819D02*
X130488095Y-93682438D01*
X130488095Y-93682438D02*
X130535714Y-93730057D01*
X130535714Y-93730057D02*
X130583333Y-93825295D01*
X130583333Y-93825295D02*
X130583333Y-93968152D01*
X130583333Y-93968152D02*
X130535714Y-94063390D01*
X130535714Y-94063390D02*
X130488095Y-94111009D01*
X130488095Y-94111009D02*
X130392857Y-94158628D01*
X130392857Y-94158628D02*
X130011905Y-94158628D01*
X131154762Y-94063390D02*
X131059524Y-94015771D01*
X131059524Y-94015771D02*
X131011905Y-93968152D01*
X131011905Y-93968152D02*
X130964286Y-93872914D01*
X130964286Y-93872914D02*
X130964286Y-93825295D01*
X130964286Y-93825295D02*
X131011905Y-93730057D01*
X131011905Y-93730057D02*
X131059524Y-93682438D01*
X131059524Y-93682438D02*
X131154762Y-93634819D01*
X131154762Y-93634819D02*
X131345238Y-93634819D01*
X131345238Y-93634819D02*
X131440476Y-93682438D01*
X131440476Y-93682438D02*
X131488095Y-93730057D01*
X131488095Y-93730057D02*
X131535714Y-93825295D01*
X131535714Y-93825295D02*
X131535714Y-93872914D01*
X131535714Y-93872914D02*
X131488095Y-93968152D01*
X131488095Y-93968152D02*
X131440476Y-94015771D01*
X131440476Y-94015771D02*
X131345238Y-94063390D01*
X131345238Y-94063390D02*
X131154762Y-94063390D01*
X131154762Y-94063390D02*
X131059524Y-94111009D01*
X131059524Y-94111009D02*
X131011905Y-94158628D01*
X131011905Y-94158628D02*
X130964286Y-94253866D01*
X130964286Y-94253866D02*
X130964286Y-94444342D01*
X130964286Y-94444342D02*
X131011905Y-94539580D01*
X131011905Y-94539580D02*
X131059524Y-94587200D01*
X131059524Y-94587200D02*
X131154762Y-94634819D01*
X131154762Y-94634819D02*
X131345238Y-94634819D01*
X131345238Y-94634819D02*
X131440476Y-94587200D01*
X131440476Y-94587200D02*
X131488095Y-94539580D01*
X131488095Y-94539580D02*
X131535714Y-94444342D01*
X131535714Y-94444342D02*
X131535714Y-94253866D01*
X131535714Y-94253866D02*
X131488095Y-94158628D01*
X131488095Y-94158628D02*
X131440476Y-94111009D01*
X131440476Y-94111009D02*
X131345238Y-94063390D01*
X132857142Y-56609580D02*
X132809523Y-56657200D01*
X132809523Y-56657200D02*
X132666666Y-56704819D01*
X132666666Y-56704819D02*
X132571428Y-56704819D01*
X132571428Y-56704819D02*
X132428571Y-56657200D01*
X132428571Y-56657200D02*
X132333333Y-56561961D01*
X132333333Y-56561961D02*
X132285714Y-56466723D01*
X132285714Y-56466723D02*
X132238095Y-56276247D01*
X132238095Y-56276247D02*
X132238095Y-56133390D01*
X132238095Y-56133390D02*
X132285714Y-55942914D01*
X132285714Y-55942914D02*
X132333333Y-55847676D01*
X132333333Y-55847676D02*
X132428571Y-55752438D01*
X132428571Y-55752438D02*
X132571428Y-55704819D01*
X132571428Y-55704819D02*
X132666666Y-55704819D01*
X132666666Y-55704819D02*
X132809523Y-55752438D01*
X132809523Y-55752438D02*
X132857142Y-55800057D01*
X133809523Y-56704819D02*
X133238095Y-56704819D01*
X133523809Y-56704819D02*
X133523809Y-55704819D01*
X133523809Y-55704819D02*
X133428571Y-55847676D01*
X133428571Y-55847676D02*
X133333333Y-55942914D01*
X133333333Y-55942914D02*
X133238095Y-55990533D01*
X134380952Y-56133390D02*
X134285714Y-56085771D01*
X134285714Y-56085771D02*
X134238095Y-56038152D01*
X134238095Y-56038152D02*
X134190476Y-55942914D01*
X134190476Y-55942914D02*
X134190476Y-55895295D01*
X134190476Y-55895295D02*
X134238095Y-55800057D01*
X134238095Y-55800057D02*
X134285714Y-55752438D01*
X134285714Y-55752438D02*
X134380952Y-55704819D01*
X134380952Y-55704819D02*
X134571428Y-55704819D01*
X134571428Y-55704819D02*
X134666666Y-55752438D01*
X134666666Y-55752438D02*
X134714285Y-55800057D01*
X134714285Y-55800057D02*
X134761904Y-55895295D01*
X134761904Y-55895295D02*
X134761904Y-55942914D01*
X134761904Y-55942914D02*
X134714285Y-56038152D01*
X134714285Y-56038152D02*
X134666666Y-56085771D01*
X134666666Y-56085771D02*
X134571428Y-56133390D01*
X134571428Y-56133390D02*
X134380952Y-56133390D01*
X134380952Y-56133390D02*
X134285714Y-56181009D01*
X134285714Y-56181009D02*
X134238095Y-56228628D01*
X134238095Y-56228628D02*
X134190476Y-56323866D01*
X134190476Y-56323866D02*
X134190476Y-56514342D01*
X134190476Y-56514342D02*
X134238095Y-56609580D01*
X134238095Y-56609580D02*
X134285714Y-56657200D01*
X134285714Y-56657200D02*
X134380952Y-56704819D01*
X134380952Y-56704819D02*
X134571428Y-56704819D01*
X134571428Y-56704819D02*
X134666666Y-56657200D01*
X134666666Y-56657200D02*
X134714285Y-56609580D01*
X134714285Y-56609580D02*
X134761904Y-56514342D01*
X134761904Y-56514342D02*
X134761904Y-56323866D01*
X134761904Y-56323866D02*
X134714285Y-56228628D01*
X134714285Y-56228628D02*
X134666666Y-56181009D01*
X134666666Y-56181009D02*
X134571428Y-56133390D01*
X114607142Y-74609580D02*
X114559523Y-74657200D01*
X114559523Y-74657200D02*
X114416666Y-74704819D01*
X114416666Y-74704819D02*
X114321428Y-74704819D01*
X114321428Y-74704819D02*
X114178571Y-74657200D01*
X114178571Y-74657200D02*
X114083333Y-74561961D01*
X114083333Y-74561961D02*
X114035714Y-74466723D01*
X114035714Y-74466723D02*
X113988095Y-74276247D01*
X113988095Y-74276247D02*
X113988095Y-74133390D01*
X113988095Y-74133390D02*
X114035714Y-73942914D01*
X114035714Y-73942914D02*
X114083333Y-73847676D01*
X114083333Y-73847676D02*
X114178571Y-73752438D01*
X114178571Y-73752438D02*
X114321428Y-73704819D01*
X114321428Y-73704819D02*
X114416666Y-73704819D01*
X114416666Y-73704819D02*
X114559523Y-73752438D01*
X114559523Y-73752438D02*
X114607142Y-73800057D01*
X115559523Y-74704819D02*
X114988095Y-74704819D01*
X115273809Y-74704819D02*
X115273809Y-73704819D01*
X115273809Y-73704819D02*
X115178571Y-73847676D01*
X115178571Y-73847676D02*
X115083333Y-73942914D01*
X115083333Y-73942914D02*
X114988095Y-73990533D01*
X116416666Y-74038152D02*
X116416666Y-74704819D01*
X116178571Y-73657200D02*
X115940476Y-74371485D01*
X115940476Y-74371485D02*
X116559523Y-74371485D01*
X129357142Y-56609580D02*
X129309523Y-56657200D01*
X129309523Y-56657200D02*
X129166666Y-56704819D01*
X129166666Y-56704819D02*
X129071428Y-56704819D01*
X129071428Y-56704819D02*
X128928571Y-56657200D01*
X128928571Y-56657200D02*
X128833333Y-56561961D01*
X128833333Y-56561961D02*
X128785714Y-56466723D01*
X128785714Y-56466723D02*
X128738095Y-56276247D01*
X128738095Y-56276247D02*
X128738095Y-56133390D01*
X128738095Y-56133390D02*
X128785714Y-55942914D01*
X128785714Y-55942914D02*
X128833333Y-55847676D01*
X128833333Y-55847676D02*
X128928571Y-55752438D01*
X128928571Y-55752438D02*
X129071428Y-55704819D01*
X129071428Y-55704819D02*
X129166666Y-55704819D01*
X129166666Y-55704819D02*
X129309523Y-55752438D01*
X129309523Y-55752438D02*
X129357142Y-55800057D01*
X130309523Y-56704819D02*
X129738095Y-56704819D01*
X130023809Y-56704819D02*
X130023809Y-55704819D01*
X130023809Y-55704819D02*
X129928571Y-55847676D01*
X129928571Y-55847676D02*
X129833333Y-55942914D01*
X129833333Y-55942914D02*
X129738095Y-55990533D01*
X130642857Y-55704819D02*
X131309523Y-55704819D01*
X131309523Y-55704819D02*
X130880952Y-56704819D01*
X156083333Y-86859580D02*
X156035714Y-86907200D01*
X156035714Y-86907200D02*
X155892857Y-86954819D01*
X155892857Y-86954819D02*
X155797619Y-86954819D01*
X155797619Y-86954819D02*
X155654762Y-86907200D01*
X155654762Y-86907200D02*
X155559524Y-86811961D01*
X155559524Y-86811961D02*
X155511905Y-86716723D01*
X155511905Y-86716723D02*
X155464286Y-86526247D01*
X155464286Y-86526247D02*
X155464286Y-86383390D01*
X155464286Y-86383390D02*
X155511905Y-86192914D01*
X155511905Y-86192914D02*
X155559524Y-86097676D01*
X155559524Y-86097676D02*
X155654762Y-86002438D01*
X155654762Y-86002438D02*
X155797619Y-85954819D01*
X155797619Y-85954819D02*
X155892857Y-85954819D01*
X155892857Y-85954819D02*
X156035714Y-86002438D01*
X156035714Y-86002438D02*
X156083333Y-86050057D01*
X156940476Y-85954819D02*
X156750000Y-85954819D01*
X156750000Y-85954819D02*
X156654762Y-86002438D01*
X156654762Y-86002438D02*
X156607143Y-86050057D01*
X156607143Y-86050057D02*
X156511905Y-86192914D01*
X156511905Y-86192914D02*
X156464286Y-86383390D01*
X156464286Y-86383390D02*
X156464286Y-86764342D01*
X156464286Y-86764342D02*
X156511905Y-86859580D01*
X156511905Y-86859580D02*
X156559524Y-86907200D01*
X156559524Y-86907200D02*
X156654762Y-86954819D01*
X156654762Y-86954819D02*
X156845238Y-86954819D01*
X156845238Y-86954819D02*
X156940476Y-86907200D01*
X156940476Y-86907200D02*
X156988095Y-86859580D01*
X156988095Y-86859580D02*
X157035714Y-86764342D01*
X157035714Y-86764342D02*
X157035714Y-86526247D01*
X157035714Y-86526247D02*
X156988095Y-86431009D01*
X156988095Y-86431009D02*
X156940476Y-86383390D01*
X156940476Y-86383390D02*
X156845238Y-86335771D01*
X156845238Y-86335771D02*
X156654762Y-86335771D01*
X156654762Y-86335771D02*
X156559524Y-86383390D01*
X156559524Y-86383390D02*
X156511905Y-86431009D01*
X156511905Y-86431009D02*
X156464286Y-86526247D01*
X112357142Y-70359580D02*
X112309523Y-70407200D01*
X112309523Y-70407200D02*
X112166666Y-70454819D01*
X112166666Y-70454819D02*
X112071428Y-70454819D01*
X112071428Y-70454819D02*
X111928571Y-70407200D01*
X111928571Y-70407200D02*
X111833333Y-70311961D01*
X111833333Y-70311961D02*
X111785714Y-70216723D01*
X111785714Y-70216723D02*
X111738095Y-70026247D01*
X111738095Y-70026247D02*
X111738095Y-69883390D01*
X111738095Y-69883390D02*
X111785714Y-69692914D01*
X111785714Y-69692914D02*
X111833333Y-69597676D01*
X111833333Y-69597676D02*
X111928571Y-69502438D01*
X111928571Y-69502438D02*
X112071428Y-69454819D01*
X112071428Y-69454819D02*
X112166666Y-69454819D01*
X112166666Y-69454819D02*
X112309523Y-69502438D01*
X112309523Y-69502438D02*
X112357142Y-69550057D01*
X113309523Y-70454819D02*
X112738095Y-70454819D01*
X113023809Y-70454819D02*
X113023809Y-69454819D01*
X113023809Y-69454819D02*
X112928571Y-69597676D01*
X112928571Y-69597676D02*
X112833333Y-69692914D01*
X112833333Y-69692914D02*
X112738095Y-69740533D01*
X114166666Y-69454819D02*
X113976190Y-69454819D01*
X113976190Y-69454819D02*
X113880952Y-69502438D01*
X113880952Y-69502438D02*
X113833333Y-69550057D01*
X113833333Y-69550057D02*
X113738095Y-69692914D01*
X113738095Y-69692914D02*
X113690476Y-69883390D01*
X113690476Y-69883390D02*
X113690476Y-70264342D01*
X113690476Y-70264342D02*
X113738095Y-70359580D01*
X113738095Y-70359580D02*
X113785714Y-70407200D01*
X113785714Y-70407200D02*
X113880952Y-70454819D01*
X113880952Y-70454819D02*
X114071428Y-70454819D01*
X114071428Y-70454819D02*
X114166666Y-70407200D01*
X114166666Y-70407200D02*
X114214285Y-70359580D01*
X114214285Y-70359580D02*
X114261904Y-70264342D01*
X114261904Y-70264342D02*
X114261904Y-70026247D01*
X114261904Y-70026247D02*
X114214285Y-69931009D01*
X114214285Y-69931009D02*
X114166666Y-69883390D01*
X114166666Y-69883390D02*
X114071428Y-69835771D01*
X114071428Y-69835771D02*
X113880952Y-69835771D01*
X113880952Y-69835771D02*
X113785714Y-69883390D01*
X113785714Y-69883390D02*
X113738095Y-69931009D01*
X113738095Y-69931009D02*
X113690476Y-70026247D01*
X138333333Y-92609580D02*
X138285714Y-92657200D01*
X138285714Y-92657200D02*
X138142857Y-92704819D01*
X138142857Y-92704819D02*
X138047619Y-92704819D01*
X138047619Y-92704819D02*
X137904762Y-92657200D01*
X137904762Y-92657200D02*
X137809524Y-92561961D01*
X137809524Y-92561961D02*
X137761905Y-92466723D01*
X137761905Y-92466723D02*
X137714286Y-92276247D01*
X137714286Y-92276247D02*
X137714286Y-92133390D01*
X137714286Y-92133390D02*
X137761905Y-91942914D01*
X137761905Y-91942914D02*
X137809524Y-91847676D01*
X137809524Y-91847676D02*
X137904762Y-91752438D01*
X137904762Y-91752438D02*
X138047619Y-91704819D01*
X138047619Y-91704819D02*
X138142857Y-91704819D01*
X138142857Y-91704819D02*
X138285714Y-91752438D01*
X138285714Y-91752438D02*
X138333333Y-91800057D01*
X138714286Y-91800057D02*
X138761905Y-91752438D01*
X138761905Y-91752438D02*
X138857143Y-91704819D01*
X138857143Y-91704819D02*
X139095238Y-91704819D01*
X139095238Y-91704819D02*
X139190476Y-91752438D01*
X139190476Y-91752438D02*
X139238095Y-91800057D01*
X139238095Y-91800057D02*
X139285714Y-91895295D01*
X139285714Y-91895295D02*
X139285714Y-91990533D01*
X139285714Y-91990533D02*
X139238095Y-92133390D01*
X139238095Y-92133390D02*
X138666667Y-92704819D01*
X138666667Y-92704819D02*
X139285714Y-92704819D01*
X134607142Y-93609580D02*
X134559523Y-93657200D01*
X134559523Y-93657200D02*
X134416666Y-93704819D01*
X134416666Y-93704819D02*
X134321428Y-93704819D01*
X134321428Y-93704819D02*
X134178571Y-93657200D01*
X134178571Y-93657200D02*
X134083333Y-93561961D01*
X134083333Y-93561961D02*
X134035714Y-93466723D01*
X134035714Y-93466723D02*
X133988095Y-93276247D01*
X133988095Y-93276247D02*
X133988095Y-93133390D01*
X133988095Y-93133390D02*
X134035714Y-92942914D01*
X134035714Y-92942914D02*
X134083333Y-92847676D01*
X134083333Y-92847676D02*
X134178571Y-92752438D01*
X134178571Y-92752438D02*
X134321428Y-92704819D01*
X134321428Y-92704819D02*
X134416666Y-92704819D01*
X134416666Y-92704819D02*
X134559523Y-92752438D01*
X134559523Y-92752438D02*
X134607142Y-92800057D01*
X135559523Y-93704819D02*
X134988095Y-93704819D01*
X135273809Y-93704819D02*
X135273809Y-92704819D01*
X135273809Y-92704819D02*
X135178571Y-92847676D01*
X135178571Y-92847676D02*
X135083333Y-92942914D01*
X135083333Y-92942914D02*
X134988095Y-92990533D01*
X135940476Y-92800057D02*
X135988095Y-92752438D01*
X135988095Y-92752438D02*
X136083333Y-92704819D01*
X136083333Y-92704819D02*
X136321428Y-92704819D01*
X136321428Y-92704819D02*
X136416666Y-92752438D01*
X136416666Y-92752438D02*
X136464285Y-92800057D01*
X136464285Y-92800057D02*
X136511904Y-92895295D01*
X136511904Y-92895295D02*
X136511904Y-92990533D01*
X136511904Y-92990533D02*
X136464285Y-93133390D01*
X136464285Y-93133390D02*
X135892857Y-93704819D01*
X135892857Y-93704819D02*
X136511904Y-93704819D01*
X140833333Y-92609580D02*
X140785714Y-92657200D01*
X140785714Y-92657200D02*
X140642857Y-92704819D01*
X140642857Y-92704819D02*
X140547619Y-92704819D01*
X140547619Y-92704819D02*
X140404762Y-92657200D01*
X140404762Y-92657200D02*
X140309524Y-92561961D01*
X140309524Y-92561961D02*
X140261905Y-92466723D01*
X140261905Y-92466723D02*
X140214286Y-92276247D01*
X140214286Y-92276247D02*
X140214286Y-92133390D01*
X140214286Y-92133390D02*
X140261905Y-91942914D01*
X140261905Y-91942914D02*
X140309524Y-91847676D01*
X140309524Y-91847676D02*
X140404762Y-91752438D01*
X140404762Y-91752438D02*
X140547619Y-91704819D01*
X140547619Y-91704819D02*
X140642857Y-91704819D01*
X140642857Y-91704819D02*
X140785714Y-91752438D01*
X140785714Y-91752438D02*
X140833333Y-91800057D01*
X141690476Y-92038152D02*
X141690476Y-92704819D01*
X141452381Y-91657200D02*
X141214286Y-92371485D01*
X141214286Y-92371485D02*
X141833333Y-92371485D01*
D13*
X147032380Y-88292318D02*
X147032380Y-89320413D01*
X147032380Y-89320413D02*
X147092857Y-89441365D01*
X147092857Y-89441365D02*
X147153333Y-89501842D01*
X147153333Y-89501842D02*
X147274285Y-89562318D01*
X147274285Y-89562318D02*
X147516190Y-89562318D01*
X147516190Y-89562318D02*
X147637142Y-89501842D01*
X147637142Y-89501842D02*
X147697619Y-89441365D01*
X147697619Y-89441365D02*
X147758095Y-89320413D01*
X147758095Y-89320413D02*
X147758095Y-88292318D01*
X149028095Y-89562318D02*
X148302380Y-89562318D01*
X148665237Y-89562318D02*
X148665237Y-88292318D01*
X148665237Y-88292318D02*
X148544285Y-88473746D01*
X148544285Y-88473746D02*
X148423333Y-88594699D01*
X148423333Y-88594699D02*
X148302380Y-88655175D01*
D10*
X123857142Y-103114819D02*
X123523809Y-102638628D01*
X123285714Y-103114819D02*
X123285714Y-102114819D01*
X123285714Y-102114819D02*
X123666666Y-102114819D01*
X123666666Y-102114819D02*
X123761904Y-102162438D01*
X123761904Y-102162438D02*
X123809523Y-102210057D01*
X123809523Y-102210057D02*
X123857142Y-102305295D01*
X123857142Y-102305295D02*
X123857142Y-102448152D01*
X123857142Y-102448152D02*
X123809523Y-102543390D01*
X123809523Y-102543390D02*
X123761904Y-102591009D01*
X123761904Y-102591009D02*
X123666666Y-102638628D01*
X123666666Y-102638628D02*
X123285714Y-102638628D01*
X124809523Y-103114819D02*
X124238095Y-103114819D01*
X124523809Y-103114819D02*
X124523809Y-102114819D01*
X124523809Y-102114819D02*
X124428571Y-102257676D01*
X124428571Y-102257676D02*
X124333333Y-102352914D01*
X124333333Y-102352914D02*
X124238095Y-102400533D01*
X125142857Y-102114819D02*
X125761904Y-102114819D01*
X125761904Y-102114819D02*
X125428571Y-102495771D01*
X125428571Y-102495771D02*
X125571428Y-102495771D01*
X125571428Y-102495771D02*
X125666666Y-102543390D01*
X125666666Y-102543390D02*
X125714285Y-102591009D01*
X125714285Y-102591009D02*
X125761904Y-102686247D01*
X125761904Y-102686247D02*
X125761904Y-102924342D01*
X125761904Y-102924342D02*
X125714285Y-103019580D01*
X125714285Y-103019580D02*
X125666666Y-103067200D01*
X125666666Y-103067200D02*
X125571428Y-103114819D01*
X125571428Y-103114819D02*
X125285714Y-103114819D01*
X125285714Y-103114819D02*
X125190476Y-103067200D01*
X125190476Y-103067200D02*
X125142857Y-103019580D01*
X132857142Y-68204819D02*
X132523809Y-67728628D01*
X132285714Y-68204819D02*
X132285714Y-67204819D01*
X132285714Y-67204819D02*
X132666666Y-67204819D01*
X132666666Y-67204819D02*
X132761904Y-67252438D01*
X132761904Y-67252438D02*
X132809523Y-67300057D01*
X132809523Y-67300057D02*
X132857142Y-67395295D01*
X132857142Y-67395295D02*
X132857142Y-67538152D01*
X132857142Y-67538152D02*
X132809523Y-67633390D01*
X132809523Y-67633390D02*
X132761904Y-67681009D01*
X132761904Y-67681009D02*
X132666666Y-67728628D01*
X132666666Y-67728628D02*
X132285714Y-67728628D01*
X133809523Y-68204819D02*
X133238095Y-68204819D01*
X133523809Y-68204819D02*
X133523809Y-67204819D01*
X133523809Y-67204819D02*
X133428571Y-67347676D01*
X133428571Y-67347676D02*
X133333333Y-67442914D01*
X133333333Y-67442914D02*
X133238095Y-67490533D01*
X134142857Y-67204819D02*
X134809523Y-67204819D01*
X134809523Y-67204819D02*
X134380952Y-68204819D01*
X125607142Y-72634819D02*
X125273809Y-72158628D01*
X125035714Y-72634819D02*
X125035714Y-71634819D01*
X125035714Y-71634819D02*
X125416666Y-71634819D01*
X125416666Y-71634819D02*
X125511904Y-71682438D01*
X125511904Y-71682438D02*
X125559523Y-71730057D01*
X125559523Y-71730057D02*
X125607142Y-71825295D01*
X125607142Y-71825295D02*
X125607142Y-71968152D01*
X125607142Y-71968152D02*
X125559523Y-72063390D01*
X125559523Y-72063390D02*
X125511904Y-72111009D01*
X125511904Y-72111009D02*
X125416666Y-72158628D01*
X125416666Y-72158628D02*
X125035714Y-72158628D01*
X126559523Y-72634819D02*
X125988095Y-72634819D01*
X126273809Y-72634819D02*
X126273809Y-71634819D01*
X126273809Y-71634819D02*
X126178571Y-71777676D01*
X126178571Y-71777676D02*
X126083333Y-71872914D01*
X126083333Y-71872914D02*
X125988095Y-71920533D01*
X127416666Y-71634819D02*
X127226190Y-71634819D01*
X127226190Y-71634819D02*
X127130952Y-71682438D01*
X127130952Y-71682438D02*
X127083333Y-71730057D01*
X127083333Y-71730057D02*
X126988095Y-71872914D01*
X126988095Y-71872914D02*
X126940476Y-72063390D01*
X126940476Y-72063390D02*
X126940476Y-72444342D01*
X126940476Y-72444342D02*
X126988095Y-72539580D01*
X126988095Y-72539580D02*
X127035714Y-72587200D01*
X127035714Y-72587200D02*
X127130952Y-72634819D01*
X127130952Y-72634819D02*
X127321428Y-72634819D01*
X127321428Y-72634819D02*
X127416666Y-72587200D01*
X127416666Y-72587200D02*
X127464285Y-72539580D01*
X127464285Y-72539580D02*
X127511904Y-72444342D01*
X127511904Y-72444342D02*
X127511904Y-72206247D01*
X127511904Y-72206247D02*
X127464285Y-72111009D01*
X127464285Y-72111009D02*
X127416666Y-72063390D01*
X127416666Y-72063390D02*
X127321428Y-72015771D01*
X127321428Y-72015771D02*
X127130952Y-72015771D01*
X127130952Y-72015771D02*
X127035714Y-72063390D01*
X127035714Y-72063390D02*
X126988095Y-72111009D01*
X126988095Y-72111009D02*
X126940476Y-72206247D01*
X113457142Y-103204819D02*
X113123809Y-102728628D01*
X112885714Y-103204819D02*
X112885714Y-102204819D01*
X112885714Y-102204819D02*
X113266666Y-102204819D01*
X113266666Y-102204819D02*
X113361904Y-102252438D01*
X113361904Y-102252438D02*
X113409523Y-102300057D01*
X113409523Y-102300057D02*
X113457142Y-102395295D01*
X113457142Y-102395295D02*
X113457142Y-102538152D01*
X113457142Y-102538152D02*
X113409523Y-102633390D01*
X113409523Y-102633390D02*
X113361904Y-102681009D01*
X113361904Y-102681009D02*
X113266666Y-102728628D01*
X113266666Y-102728628D02*
X112885714Y-102728628D01*
X114409523Y-103204819D02*
X113838095Y-103204819D01*
X114123809Y-103204819D02*
X114123809Y-102204819D01*
X114123809Y-102204819D02*
X114028571Y-102347676D01*
X114028571Y-102347676D02*
X113933333Y-102442914D01*
X113933333Y-102442914D02*
X113838095Y-102490533D01*
X114790476Y-102300057D02*
X114838095Y-102252438D01*
X114838095Y-102252438D02*
X114933333Y-102204819D01*
X114933333Y-102204819D02*
X115171428Y-102204819D01*
X115171428Y-102204819D02*
X115266666Y-102252438D01*
X115266666Y-102252438D02*
X115314285Y-102300057D01*
X115314285Y-102300057D02*
X115361904Y-102395295D01*
X115361904Y-102395295D02*
X115361904Y-102490533D01*
X115361904Y-102490533D02*
X115314285Y-102633390D01*
X115314285Y-102633390D02*
X114742857Y-103204819D01*
X114742857Y-103204819D02*
X115361904Y-103204819D01*
X138357142Y-103204819D02*
X138023809Y-102728628D01*
X137785714Y-103204819D02*
X137785714Y-102204819D01*
X137785714Y-102204819D02*
X138166666Y-102204819D01*
X138166666Y-102204819D02*
X138261904Y-102252438D01*
X138261904Y-102252438D02*
X138309523Y-102300057D01*
X138309523Y-102300057D02*
X138357142Y-102395295D01*
X138357142Y-102395295D02*
X138357142Y-102538152D01*
X138357142Y-102538152D02*
X138309523Y-102633390D01*
X138309523Y-102633390D02*
X138261904Y-102681009D01*
X138261904Y-102681009D02*
X138166666Y-102728628D01*
X138166666Y-102728628D02*
X137785714Y-102728628D01*
X139309523Y-103204819D02*
X138738095Y-103204819D01*
X139023809Y-103204819D02*
X139023809Y-102204819D01*
X139023809Y-102204819D02*
X138928571Y-102347676D01*
X138928571Y-102347676D02*
X138833333Y-102442914D01*
X138833333Y-102442914D02*
X138738095Y-102490533D01*
X139928571Y-102204819D02*
X140023809Y-102204819D01*
X140023809Y-102204819D02*
X140119047Y-102252438D01*
X140119047Y-102252438D02*
X140166666Y-102300057D01*
X140166666Y-102300057D02*
X140214285Y-102395295D01*
X140214285Y-102395295D02*
X140261904Y-102585771D01*
X140261904Y-102585771D02*
X140261904Y-102823866D01*
X140261904Y-102823866D02*
X140214285Y-103014342D01*
X140214285Y-103014342D02*
X140166666Y-103109580D01*
X140166666Y-103109580D02*
X140119047Y-103157200D01*
X140119047Y-103157200D02*
X140023809Y-103204819D01*
X140023809Y-103204819D02*
X139928571Y-103204819D01*
X139928571Y-103204819D02*
X139833333Y-103157200D01*
X139833333Y-103157200D02*
X139785714Y-103109580D01*
X139785714Y-103109580D02*
X139738095Y-103014342D01*
X139738095Y-103014342D02*
X139690476Y-102823866D01*
X139690476Y-102823866D02*
X139690476Y-102585771D01*
X139690476Y-102585771D02*
X139738095Y-102395295D01*
X139738095Y-102395295D02*
X139785714Y-102300057D01*
X139785714Y-102300057D02*
X139833333Y-102252438D01*
X139833333Y-102252438D02*
X139928571Y-102204819D01*
X131333333Y-75954819D02*
X131000000Y-75478628D01*
X130761905Y-75954819D02*
X130761905Y-74954819D01*
X130761905Y-74954819D02*
X131142857Y-74954819D01*
X131142857Y-74954819D02*
X131238095Y-75002438D01*
X131238095Y-75002438D02*
X131285714Y-75050057D01*
X131285714Y-75050057D02*
X131333333Y-75145295D01*
X131333333Y-75145295D02*
X131333333Y-75288152D01*
X131333333Y-75288152D02*
X131285714Y-75383390D01*
X131285714Y-75383390D02*
X131238095Y-75431009D01*
X131238095Y-75431009D02*
X131142857Y-75478628D01*
X131142857Y-75478628D02*
X130761905Y-75478628D01*
X132238095Y-74954819D02*
X131761905Y-74954819D01*
X131761905Y-74954819D02*
X131714286Y-75431009D01*
X131714286Y-75431009D02*
X131761905Y-75383390D01*
X131761905Y-75383390D02*
X131857143Y-75335771D01*
X131857143Y-75335771D02*
X132095238Y-75335771D01*
X132095238Y-75335771D02*
X132190476Y-75383390D01*
X132190476Y-75383390D02*
X132238095Y-75431009D01*
X132238095Y-75431009D02*
X132285714Y-75526247D01*
X132285714Y-75526247D02*
X132285714Y-75764342D01*
X132285714Y-75764342D02*
X132238095Y-75859580D01*
X132238095Y-75859580D02*
X132190476Y-75907200D01*
X132190476Y-75907200D02*
X132095238Y-75954819D01*
X132095238Y-75954819D02*
X131857143Y-75954819D01*
X131857143Y-75954819D02*
X131761905Y-75907200D01*
X131761905Y-75907200D02*
X131714286Y-75859580D01*
D13*
X150760237Y-65324318D02*
X150760237Y-64054318D01*
X152090714Y-65203365D02*
X152030238Y-65263842D01*
X152030238Y-65263842D02*
X151848809Y-65324318D01*
X151848809Y-65324318D02*
X151727857Y-65324318D01*
X151727857Y-65324318D02*
X151546428Y-65263842D01*
X151546428Y-65263842D02*
X151425476Y-65142889D01*
X151425476Y-65142889D02*
X151364999Y-65021937D01*
X151364999Y-65021937D02*
X151304523Y-64780032D01*
X151304523Y-64780032D02*
X151304523Y-64598603D01*
X151304523Y-64598603D02*
X151364999Y-64356699D01*
X151364999Y-64356699D02*
X151425476Y-64235746D01*
X151425476Y-64235746D02*
X151546428Y-64114794D01*
X151546428Y-64114794D02*
X151727857Y-64054318D01*
X151727857Y-64054318D02*
X151848809Y-64054318D01*
X151848809Y-64054318D02*
X152030238Y-64114794D01*
X152030238Y-64114794D02*
X152090714Y-64175270D01*
X153300238Y-65324318D02*
X152574523Y-65324318D01*
X152937380Y-65324318D02*
X152937380Y-64054318D01*
X152937380Y-64054318D02*
X152816428Y-64235746D01*
X152816428Y-64235746D02*
X152695476Y-64356699D01*
X152695476Y-64356699D02*
X152574523Y-64417175D01*
D10*
X122511905Y-58954819D02*
X122511905Y-57954819D01*
X122511905Y-57954819D02*
X122750000Y-57954819D01*
X122750000Y-57954819D02*
X122892857Y-58002438D01*
X122892857Y-58002438D02*
X122988095Y-58097676D01*
X122988095Y-58097676D02*
X123035714Y-58192914D01*
X123035714Y-58192914D02*
X123083333Y-58383390D01*
X123083333Y-58383390D02*
X123083333Y-58526247D01*
X123083333Y-58526247D02*
X123035714Y-58716723D01*
X123035714Y-58716723D02*
X122988095Y-58811961D01*
X122988095Y-58811961D02*
X122892857Y-58907200D01*
X122892857Y-58907200D02*
X122750000Y-58954819D01*
X122750000Y-58954819D02*
X122511905Y-58954819D01*
X124035714Y-58954819D02*
X123464286Y-58954819D01*
X123750000Y-58954819D02*
X123750000Y-57954819D01*
X123750000Y-57954819D02*
X123654762Y-58097676D01*
X123654762Y-58097676D02*
X123559524Y-58192914D01*
X123559524Y-58192914D02*
X123464286Y-58240533D01*
X133607142Y-81149580D02*
X133559523Y-81197200D01*
X133559523Y-81197200D02*
X133416666Y-81244819D01*
X133416666Y-81244819D02*
X133321428Y-81244819D01*
X133321428Y-81244819D02*
X133178571Y-81197200D01*
X133178571Y-81197200D02*
X133083333Y-81101961D01*
X133083333Y-81101961D02*
X133035714Y-81006723D01*
X133035714Y-81006723D02*
X132988095Y-80816247D01*
X132988095Y-80816247D02*
X132988095Y-80673390D01*
X132988095Y-80673390D02*
X133035714Y-80482914D01*
X133035714Y-80482914D02*
X133083333Y-80387676D01*
X133083333Y-80387676D02*
X133178571Y-80292438D01*
X133178571Y-80292438D02*
X133321428Y-80244819D01*
X133321428Y-80244819D02*
X133416666Y-80244819D01*
X133416666Y-80244819D02*
X133559523Y-80292438D01*
X133559523Y-80292438D02*
X133607142Y-80340057D01*
X134559523Y-81244819D02*
X133988095Y-81244819D01*
X134273809Y-81244819D02*
X134273809Y-80244819D01*
X134273809Y-80244819D02*
X134178571Y-80387676D01*
X134178571Y-80387676D02*
X134083333Y-80482914D01*
X134083333Y-80482914D02*
X133988095Y-80530533D01*
X135511904Y-81244819D02*
X134940476Y-81244819D01*
X135226190Y-81244819D02*
X135226190Y-80244819D01*
X135226190Y-80244819D02*
X135130952Y-80387676D01*
X135130952Y-80387676D02*
X135035714Y-80482914D01*
X135035714Y-80482914D02*
X134940476Y-80530533D01*
X117607142Y-103184819D02*
X117273809Y-102708628D01*
X117035714Y-103184819D02*
X117035714Y-102184819D01*
X117035714Y-102184819D02*
X117416666Y-102184819D01*
X117416666Y-102184819D02*
X117511904Y-102232438D01*
X117511904Y-102232438D02*
X117559523Y-102280057D01*
X117559523Y-102280057D02*
X117607142Y-102375295D01*
X117607142Y-102375295D02*
X117607142Y-102518152D01*
X117607142Y-102518152D02*
X117559523Y-102613390D01*
X117559523Y-102613390D02*
X117511904Y-102661009D01*
X117511904Y-102661009D02*
X117416666Y-102708628D01*
X117416666Y-102708628D02*
X117035714Y-102708628D01*
X118559523Y-103184819D02*
X117988095Y-103184819D01*
X118273809Y-103184819D02*
X118273809Y-102184819D01*
X118273809Y-102184819D02*
X118178571Y-102327676D01*
X118178571Y-102327676D02*
X118083333Y-102422914D01*
X118083333Y-102422914D02*
X117988095Y-102470533D01*
X119511904Y-103184819D02*
X118940476Y-103184819D01*
X119226190Y-103184819D02*
X119226190Y-102184819D01*
X119226190Y-102184819D02*
X119130952Y-102327676D01*
X119130952Y-102327676D02*
X119035714Y-102422914D01*
X119035714Y-102422914D02*
X118940476Y-102470533D01*
X151933333Y-93659580D02*
X151885714Y-93707200D01*
X151885714Y-93707200D02*
X151742857Y-93754819D01*
X151742857Y-93754819D02*
X151647619Y-93754819D01*
X151647619Y-93754819D02*
X151504762Y-93707200D01*
X151504762Y-93707200D02*
X151409524Y-93611961D01*
X151409524Y-93611961D02*
X151361905Y-93516723D01*
X151361905Y-93516723D02*
X151314286Y-93326247D01*
X151314286Y-93326247D02*
X151314286Y-93183390D01*
X151314286Y-93183390D02*
X151361905Y-92992914D01*
X151361905Y-92992914D02*
X151409524Y-92897676D01*
X151409524Y-92897676D02*
X151504762Y-92802438D01*
X151504762Y-92802438D02*
X151647619Y-92754819D01*
X151647619Y-92754819D02*
X151742857Y-92754819D01*
X151742857Y-92754819D02*
X151885714Y-92802438D01*
X151885714Y-92802438D02*
X151933333Y-92850057D01*
X152266667Y-92754819D02*
X152933333Y-92754819D01*
X152933333Y-92754819D02*
X152504762Y-93754819D01*
X130857142Y-103184819D02*
X130523809Y-102708628D01*
X130285714Y-103184819D02*
X130285714Y-102184819D01*
X130285714Y-102184819D02*
X130666666Y-102184819D01*
X130666666Y-102184819D02*
X130761904Y-102232438D01*
X130761904Y-102232438D02*
X130809523Y-102280057D01*
X130809523Y-102280057D02*
X130857142Y-102375295D01*
X130857142Y-102375295D02*
X130857142Y-102518152D01*
X130857142Y-102518152D02*
X130809523Y-102613390D01*
X130809523Y-102613390D02*
X130761904Y-102661009D01*
X130761904Y-102661009D02*
X130666666Y-102708628D01*
X130666666Y-102708628D02*
X130285714Y-102708628D01*
X131809523Y-103184819D02*
X131238095Y-103184819D01*
X131523809Y-103184819D02*
X131523809Y-102184819D01*
X131523809Y-102184819D02*
X131428571Y-102327676D01*
X131428571Y-102327676D02*
X131333333Y-102422914D01*
X131333333Y-102422914D02*
X131238095Y-102470533D01*
X132666666Y-102518152D02*
X132666666Y-103184819D01*
X132428571Y-102137200D02*
X132190476Y-102851485D01*
X132190476Y-102851485D02*
X132809523Y-102851485D01*
X143083333Y-83859580D02*
X143035714Y-83907200D01*
X143035714Y-83907200D02*
X142892857Y-83954819D01*
X142892857Y-83954819D02*
X142797619Y-83954819D01*
X142797619Y-83954819D02*
X142654762Y-83907200D01*
X142654762Y-83907200D02*
X142559524Y-83811961D01*
X142559524Y-83811961D02*
X142511905Y-83716723D01*
X142511905Y-83716723D02*
X142464286Y-83526247D01*
X142464286Y-83526247D02*
X142464286Y-83383390D01*
X142464286Y-83383390D02*
X142511905Y-83192914D01*
X142511905Y-83192914D02*
X142559524Y-83097676D01*
X142559524Y-83097676D02*
X142654762Y-83002438D01*
X142654762Y-83002438D02*
X142797619Y-82954819D01*
X142797619Y-82954819D02*
X142892857Y-82954819D01*
X142892857Y-82954819D02*
X143035714Y-83002438D01*
X143035714Y-83002438D02*
X143083333Y-83050057D01*
X143988095Y-82954819D02*
X143511905Y-82954819D01*
X143511905Y-82954819D02*
X143464286Y-83431009D01*
X143464286Y-83431009D02*
X143511905Y-83383390D01*
X143511905Y-83383390D02*
X143607143Y-83335771D01*
X143607143Y-83335771D02*
X143845238Y-83335771D01*
X143845238Y-83335771D02*
X143940476Y-83383390D01*
X143940476Y-83383390D02*
X143988095Y-83431009D01*
X143988095Y-83431009D02*
X144035714Y-83526247D01*
X144035714Y-83526247D02*
X144035714Y-83764342D01*
X144035714Y-83764342D02*
X143988095Y-83859580D01*
X143988095Y-83859580D02*
X143940476Y-83907200D01*
X143940476Y-83907200D02*
X143845238Y-83954819D01*
X143845238Y-83954819D02*
X143607143Y-83954819D01*
X143607143Y-83954819D02*
X143511905Y-83907200D01*
X143511905Y-83907200D02*
X143464286Y-83859580D01*
X162333333Y-101454819D02*
X162000000Y-100978628D01*
X161761905Y-101454819D02*
X161761905Y-100454819D01*
X161761905Y-100454819D02*
X162142857Y-100454819D01*
X162142857Y-100454819D02*
X162238095Y-100502438D01*
X162238095Y-100502438D02*
X162285714Y-100550057D01*
X162285714Y-100550057D02*
X162333333Y-100645295D01*
X162333333Y-100645295D02*
X162333333Y-100788152D01*
X162333333Y-100788152D02*
X162285714Y-100883390D01*
X162285714Y-100883390D02*
X162238095Y-100931009D01*
X162238095Y-100931009D02*
X162142857Y-100978628D01*
X162142857Y-100978628D02*
X161761905Y-100978628D01*
X163285714Y-101454819D02*
X162714286Y-101454819D01*
X163000000Y-101454819D02*
X163000000Y-100454819D01*
X163000000Y-100454819D02*
X162904762Y-100597676D01*
X162904762Y-100597676D02*
X162809524Y-100692914D01*
X162809524Y-100692914D02*
X162714286Y-100740533D01*
X152083333Y-100109580D02*
X152035714Y-100157200D01*
X152035714Y-100157200D02*
X151892857Y-100204819D01*
X151892857Y-100204819D02*
X151797619Y-100204819D01*
X151797619Y-100204819D02*
X151654762Y-100157200D01*
X151654762Y-100157200D02*
X151559524Y-100061961D01*
X151559524Y-100061961D02*
X151511905Y-99966723D01*
X151511905Y-99966723D02*
X151464286Y-99776247D01*
X151464286Y-99776247D02*
X151464286Y-99633390D01*
X151464286Y-99633390D02*
X151511905Y-99442914D01*
X151511905Y-99442914D02*
X151559524Y-99347676D01*
X151559524Y-99347676D02*
X151654762Y-99252438D01*
X151654762Y-99252438D02*
X151797619Y-99204819D01*
X151797619Y-99204819D02*
X151892857Y-99204819D01*
X151892857Y-99204819D02*
X152035714Y-99252438D01*
X152035714Y-99252438D02*
X152083333Y-99300057D01*
X152559524Y-100204819D02*
X152750000Y-100204819D01*
X152750000Y-100204819D02*
X152845238Y-100157200D01*
X152845238Y-100157200D02*
X152892857Y-100109580D01*
X152892857Y-100109580D02*
X152988095Y-99966723D01*
X152988095Y-99966723D02*
X153035714Y-99776247D01*
X153035714Y-99776247D02*
X153035714Y-99395295D01*
X153035714Y-99395295D02*
X152988095Y-99300057D01*
X152988095Y-99300057D02*
X152940476Y-99252438D01*
X152940476Y-99252438D02*
X152845238Y-99204819D01*
X152845238Y-99204819D02*
X152654762Y-99204819D01*
X152654762Y-99204819D02*
X152559524Y-99252438D01*
X152559524Y-99252438D02*
X152511905Y-99300057D01*
X152511905Y-99300057D02*
X152464286Y-99395295D01*
X152464286Y-99395295D02*
X152464286Y-99633390D01*
X152464286Y-99633390D02*
X152511905Y-99728628D01*
X152511905Y-99728628D02*
X152559524Y-99776247D01*
X152559524Y-99776247D02*
X152654762Y-99823866D01*
X152654762Y-99823866D02*
X152845238Y-99823866D01*
X152845238Y-99823866D02*
X152940476Y-99776247D01*
X152940476Y-99776247D02*
X152988095Y-99728628D01*
X152988095Y-99728628D02*
X153035714Y-99633390D01*
X140333333Y-80359580D02*
X140285714Y-80407200D01*
X140285714Y-80407200D02*
X140142857Y-80454819D01*
X140142857Y-80454819D02*
X140047619Y-80454819D01*
X140047619Y-80454819D02*
X139904762Y-80407200D01*
X139904762Y-80407200D02*
X139809524Y-80311961D01*
X139809524Y-80311961D02*
X139761905Y-80216723D01*
X139761905Y-80216723D02*
X139714286Y-80026247D01*
X139714286Y-80026247D02*
X139714286Y-79883390D01*
X139714286Y-79883390D02*
X139761905Y-79692914D01*
X139761905Y-79692914D02*
X139809524Y-79597676D01*
X139809524Y-79597676D02*
X139904762Y-79502438D01*
X139904762Y-79502438D02*
X140047619Y-79454819D01*
X140047619Y-79454819D02*
X140142857Y-79454819D01*
X140142857Y-79454819D02*
X140285714Y-79502438D01*
X140285714Y-79502438D02*
X140333333Y-79550057D01*
X140666667Y-79454819D02*
X141285714Y-79454819D01*
X141285714Y-79454819D02*
X140952381Y-79835771D01*
X140952381Y-79835771D02*
X141095238Y-79835771D01*
X141095238Y-79835771D02*
X141190476Y-79883390D01*
X141190476Y-79883390D02*
X141238095Y-79931009D01*
X141238095Y-79931009D02*
X141285714Y-80026247D01*
X141285714Y-80026247D02*
X141285714Y-80264342D01*
X141285714Y-80264342D02*
X141238095Y-80359580D01*
X141238095Y-80359580D02*
X141190476Y-80407200D01*
X141190476Y-80407200D02*
X141095238Y-80454819D01*
X141095238Y-80454819D02*
X140809524Y-80454819D01*
X140809524Y-80454819D02*
X140714286Y-80407200D01*
X140714286Y-80407200D02*
X140666667Y-80359580D01*
X148607142Y-58359580D02*
X148559523Y-58407200D01*
X148559523Y-58407200D02*
X148416666Y-58454819D01*
X148416666Y-58454819D02*
X148321428Y-58454819D01*
X148321428Y-58454819D02*
X148178571Y-58407200D01*
X148178571Y-58407200D02*
X148083333Y-58311961D01*
X148083333Y-58311961D02*
X148035714Y-58216723D01*
X148035714Y-58216723D02*
X147988095Y-58026247D01*
X147988095Y-58026247D02*
X147988095Y-57883390D01*
X147988095Y-57883390D02*
X148035714Y-57692914D01*
X148035714Y-57692914D02*
X148083333Y-57597676D01*
X148083333Y-57597676D02*
X148178571Y-57502438D01*
X148178571Y-57502438D02*
X148321428Y-57454819D01*
X148321428Y-57454819D02*
X148416666Y-57454819D01*
X148416666Y-57454819D02*
X148559523Y-57502438D01*
X148559523Y-57502438D02*
X148607142Y-57550057D01*
X148988095Y-57550057D02*
X149035714Y-57502438D01*
X149035714Y-57502438D02*
X149130952Y-57454819D01*
X149130952Y-57454819D02*
X149369047Y-57454819D01*
X149369047Y-57454819D02*
X149464285Y-57502438D01*
X149464285Y-57502438D02*
X149511904Y-57550057D01*
X149511904Y-57550057D02*
X149559523Y-57645295D01*
X149559523Y-57645295D02*
X149559523Y-57740533D01*
X149559523Y-57740533D02*
X149511904Y-57883390D01*
X149511904Y-57883390D02*
X148940476Y-58454819D01*
X148940476Y-58454819D02*
X149559523Y-58454819D01*
X150511904Y-58454819D02*
X149940476Y-58454819D01*
X150226190Y-58454819D02*
X150226190Y-57454819D01*
X150226190Y-57454819D02*
X150130952Y-57597676D01*
X150130952Y-57597676D02*
X150035714Y-57692914D01*
X150035714Y-57692914D02*
X149940476Y-57740533D01*
X147357142Y-66859580D02*
X147309523Y-66907200D01*
X147309523Y-66907200D02*
X147166666Y-66954819D01*
X147166666Y-66954819D02*
X147071428Y-66954819D01*
X147071428Y-66954819D02*
X146928571Y-66907200D01*
X146928571Y-66907200D02*
X146833333Y-66811961D01*
X146833333Y-66811961D02*
X146785714Y-66716723D01*
X146785714Y-66716723D02*
X146738095Y-66526247D01*
X146738095Y-66526247D02*
X146738095Y-66383390D01*
X146738095Y-66383390D02*
X146785714Y-66192914D01*
X146785714Y-66192914D02*
X146833333Y-66097676D01*
X146833333Y-66097676D02*
X146928571Y-66002438D01*
X146928571Y-66002438D02*
X147071428Y-65954819D01*
X147071428Y-65954819D02*
X147166666Y-65954819D01*
X147166666Y-65954819D02*
X147309523Y-66002438D01*
X147309523Y-66002438D02*
X147357142Y-66050057D01*
X147738095Y-66050057D02*
X147785714Y-66002438D01*
X147785714Y-66002438D02*
X147880952Y-65954819D01*
X147880952Y-65954819D02*
X148119047Y-65954819D01*
X148119047Y-65954819D02*
X148214285Y-66002438D01*
X148214285Y-66002438D02*
X148261904Y-66050057D01*
X148261904Y-66050057D02*
X148309523Y-66145295D01*
X148309523Y-66145295D02*
X148309523Y-66240533D01*
X148309523Y-66240533D02*
X148261904Y-66383390D01*
X148261904Y-66383390D02*
X147690476Y-66954819D01*
X147690476Y-66954819D02*
X148309523Y-66954819D01*
X148928571Y-65954819D02*
X149023809Y-65954819D01*
X149023809Y-65954819D02*
X149119047Y-66002438D01*
X149119047Y-66002438D02*
X149166666Y-66050057D01*
X149166666Y-66050057D02*
X149214285Y-66145295D01*
X149214285Y-66145295D02*
X149261904Y-66335771D01*
X149261904Y-66335771D02*
X149261904Y-66573866D01*
X149261904Y-66573866D02*
X149214285Y-66764342D01*
X149214285Y-66764342D02*
X149166666Y-66859580D01*
X149166666Y-66859580D02*
X149119047Y-66907200D01*
X149119047Y-66907200D02*
X149023809Y-66954819D01*
X149023809Y-66954819D02*
X148928571Y-66954819D01*
X148928571Y-66954819D02*
X148833333Y-66907200D01*
X148833333Y-66907200D02*
X148785714Y-66859580D01*
X148785714Y-66859580D02*
X148738095Y-66764342D01*
X148738095Y-66764342D02*
X148690476Y-66573866D01*
X148690476Y-66573866D02*
X148690476Y-66335771D01*
X148690476Y-66335771D02*
X148738095Y-66145295D01*
X148738095Y-66145295D02*
X148785714Y-66050057D01*
X148785714Y-66050057D02*
X148833333Y-66002438D01*
X148833333Y-66002438D02*
X148928571Y-65954819D01*
X110107142Y-74609580D02*
X110059523Y-74657200D01*
X110059523Y-74657200D02*
X109916666Y-74704819D01*
X109916666Y-74704819D02*
X109821428Y-74704819D01*
X109821428Y-74704819D02*
X109678571Y-74657200D01*
X109678571Y-74657200D02*
X109583333Y-74561961D01*
X109583333Y-74561961D02*
X109535714Y-74466723D01*
X109535714Y-74466723D02*
X109488095Y-74276247D01*
X109488095Y-74276247D02*
X109488095Y-74133390D01*
X109488095Y-74133390D02*
X109535714Y-73942914D01*
X109535714Y-73942914D02*
X109583333Y-73847676D01*
X109583333Y-73847676D02*
X109678571Y-73752438D01*
X109678571Y-73752438D02*
X109821428Y-73704819D01*
X109821428Y-73704819D02*
X109916666Y-73704819D01*
X109916666Y-73704819D02*
X110059523Y-73752438D01*
X110059523Y-73752438D02*
X110107142Y-73800057D01*
X111059523Y-74704819D02*
X110488095Y-74704819D01*
X110773809Y-74704819D02*
X110773809Y-73704819D01*
X110773809Y-73704819D02*
X110678571Y-73847676D01*
X110678571Y-73847676D02*
X110583333Y-73942914D01*
X110583333Y-73942914D02*
X110488095Y-73990533D01*
X111964285Y-73704819D02*
X111488095Y-73704819D01*
X111488095Y-73704819D02*
X111440476Y-74181009D01*
X111440476Y-74181009D02*
X111488095Y-74133390D01*
X111488095Y-74133390D02*
X111583333Y-74085771D01*
X111583333Y-74085771D02*
X111821428Y-74085771D01*
X111821428Y-74085771D02*
X111916666Y-74133390D01*
X111916666Y-74133390D02*
X111964285Y-74181009D01*
X111964285Y-74181009D02*
X112011904Y-74276247D01*
X112011904Y-74276247D02*
X112011904Y-74514342D01*
X112011904Y-74514342D02*
X111964285Y-74609580D01*
X111964285Y-74609580D02*
X111916666Y-74657200D01*
X111916666Y-74657200D02*
X111821428Y-74704819D01*
X111821428Y-74704819D02*
X111583333Y-74704819D01*
X111583333Y-74704819D02*
X111488095Y-74657200D01*
X111488095Y-74657200D02*
X111440476Y-74609580D01*
X148833333Y-103954819D02*
X148500000Y-103478628D01*
X148261905Y-103954819D02*
X148261905Y-102954819D01*
X148261905Y-102954819D02*
X148642857Y-102954819D01*
X148642857Y-102954819D02*
X148738095Y-103002438D01*
X148738095Y-103002438D02*
X148785714Y-103050057D01*
X148785714Y-103050057D02*
X148833333Y-103145295D01*
X148833333Y-103145295D02*
X148833333Y-103288152D01*
X148833333Y-103288152D02*
X148785714Y-103383390D01*
X148785714Y-103383390D02*
X148738095Y-103431009D01*
X148738095Y-103431009D02*
X148642857Y-103478628D01*
X148642857Y-103478628D02*
X148261905Y-103478628D01*
X149214286Y-103050057D02*
X149261905Y-103002438D01*
X149261905Y-103002438D02*
X149357143Y-102954819D01*
X149357143Y-102954819D02*
X149595238Y-102954819D01*
X149595238Y-102954819D02*
X149690476Y-103002438D01*
X149690476Y-103002438D02*
X149738095Y-103050057D01*
X149738095Y-103050057D02*
X149785714Y-103145295D01*
X149785714Y-103145295D02*
X149785714Y-103240533D01*
X149785714Y-103240533D02*
X149738095Y-103383390D01*
X149738095Y-103383390D02*
X149166667Y-103954819D01*
X149166667Y-103954819D02*
X149785714Y-103954819D01*
X155083333Y-98109580D02*
X155035714Y-98157200D01*
X155035714Y-98157200D02*
X154892857Y-98204819D01*
X154892857Y-98204819D02*
X154797619Y-98204819D01*
X154797619Y-98204819D02*
X154654762Y-98157200D01*
X154654762Y-98157200D02*
X154559524Y-98061961D01*
X154559524Y-98061961D02*
X154511905Y-97966723D01*
X154511905Y-97966723D02*
X154464286Y-97776247D01*
X154464286Y-97776247D02*
X154464286Y-97633390D01*
X154464286Y-97633390D02*
X154511905Y-97442914D01*
X154511905Y-97442914D02*
X154559524Y-97347676D01*
X154559524Y-97347676D02*
X154654762Y-97252438D01*
X154654762Y-97252438D02*
X154797619Y-97204819D01*
X154797619Y-97204819D02*
X154892857Y-97204819D01*
X154892857Y-97204819D02*
X155035714Y-97252438D01*
X155035714Y-97252438D02*
X155083333Y-97300057D01*
X156035714Y-98204819D02*
X155464286Y-98204819D01*
X155750000Y-98204819D02*
X155750000Y-97204819D01*
X155750000Y-97204819D02*
X155654762Y-97347676D01*
X155654762Y-97347676D02*
X155559524Y-97442914D01*
X155559524Y-97442914D02*
X155464286Y-97490533D01*
X133607142Y-82859580D02*
X133559523Y-82907200D01*
X133559523Y-82907200D02*
X133416666Y-82954819D01*
X133416666Y-82954819D02*
X133321428Y-82954819D01*
X133321428Y-82954819D02*
X133178571Y-82907200D01*
X133178571Y-82907200D02*
X133083333Y-82811961D01*
X133083333Y-82811961D02*
X133035714Y-82716723D01*
X133035714Y-82716723D02*
X132988095Y-82526247D01*
X132988095Y-82526247D02*
X132988095Y-82383390D01*
X132988095Y-82383390D02*
X133035714Y-82192914D01*
X133035714Y-82192914D02*
X133083333Y-82097676D01*
X133083333Y-82097676D02*
X133178571Y-82002438D01*
X133178571Y-82002438D02*
X133321428Y-81954819D01*
X133321428Y-81954819D02*
X133416666Y-81954819D01*
X133416666Y-81954819D02*
X133559523Y-82002438D01*
X133559523Y-82002438D02*
X133607142Y-82050057D01*
X134559523Y-82954819D02*
X133988095Y-82954819D01*
X134273809Y-82954819D02*
X134273809Y-81954819D01*
X134273809Y-81954819D02*
X134178571Y-82097676D01*
X134178571Y-82097676D02*
X134083333Y-82192914D01*
X134083333Y-82192914D02*
X133988095Y-82240533D01*
X135178571Y-81954819D02*
X135273809Y-81954819D01*
X135273809Y-81954819D02*
X135369047Y-82002438D01*
X135369047Y-82002438D02*
X135416666Y-82050057D01*
X135416666Y-82050057D02*
X135464285Y-82145295D01*
X135464285Y-82145295D02*
X135511904Y-82335771D01*
X135511904Y-82335771D02*
X135511904Y-82573866D01*
X135511904Y-82573866D02*
X135464285Y-82764342D01*
X135464285Y-82764342D02*
X135416666Y-82859580D01*
X135416666Y-82859580D02*
X135369047Y-82907200D01*
X135369047Y-82907200D02*
X135273809Y-82954819D01*
X135273809Y-82954819D02*
X135178571Y-82954819D01*
X135178571Y-82954819D02*
X135083333Y-82907200D01*
X135083333Y-82907200D02*
X135035714Y-82859580D01*
X135035714Y-82859580D02*
X134988095Y-82764342D01*
X134988095Y-82764342D02*
X134940476Y-82573866D01*
X134940476Y-82573866D02*
X134940476Y-82335771D01*
X134940476Y-82335771D02*
X134988095Y-82145295D01*
X134988095Y-82145295D02*
X135035714Y-82050057D01*
X135035714Y-82050057D02*
X135083333Y-82002438D01*
X135083333Y-82002438D02*
X135178571Y-81954819D01*
X131107142Y-90109580D02*
X131059523Y-90157200D01*
X131059523Y-90157200D02*
X130916666Y-90204819D01*
X130916666Y-90204819D02*
X130821428Y-90204819D01*
X130821428Y-90204819D02*
X130678571Y-90157200D01*
X130678571Y-90157200D02*
X130583333Y-90061961D01*
X130583333Y-90061961D02*
X130535714Y-89966723D01*
X130535714Y-89966723D02*
X130488095Y-89776247D01*
X130488095Y-89776247D02*
X130488095Y-89633390D01*
X130488095Y-89633390D02*
X130535714Y-89442914D01*
X130535714Y-89442914D02*
X130583333Y-89347676D01*
X130583333Y-89347676D02*
X130678571Y-89252438D01*
X130678571Y-89252438D02*
X130821428Y-89204819D01*
X130821428Y-89204819D02*
X130916666Y-89204819D01*
X130916666Y-89204819D02*
X131059523Y-89252438D01*
X131059523Y-89252438D02*
X131107142Y-89300057D01*
X132059523Y-90204819D02*
X131488095Y-90204819D01*
X131773809Y-90204819D02*
X131773809Y-89204819D01*
X131773809Y-89204819D02*
X131678571Y-89347676D01*
X131678571Y-89347676D02*
X131583333Y-89442914D01*
X131583333Y-89442914D02*
X131488095Y-89490533D01*
X132392857Y-89204819D02*
X133011904Y-89204819D01*
X133011904Y-89204819D02*
X132678571Y-89585771D01*
X132678571Y-89585771D02*
X132821428Y-89585771D01*
X132821428Y-89585771D02*
X132916666Y-89633390D01*
X132916666Y-89633390D02*
X132964285Y-89681009D01*
X132964285Y-89681009D02*
X133011904Y-89776247D01*
X133011904Y-89776247D02*
X133011904Y-90014342D01*
X133011904Y-90014342D02*
X132964285Y-90109580D01*
X132964285Y-90109580D02*
X132916666Y-90157200D01*
X132916666Y-90157200D02*
X132821428Y-90204819D01*
X132821428Y-90204819D02*
X132535714Y-90204819D01*
X132535714Y-90204819D02*
X132440476Y-90157200D01*
X132440476Y-90157200D02*
X132392857Y-90109580D01*
X130328609Y-81204819D02*
X129995276Y-80728628D01*
X129757181Y-81204819D02*
X129757181Y-80204819D01*
X129757181Y-80204819D02*
X130138133Y-80204819D01*
X130138133Y-80204819D02*
X130233371Y-80252438D01*
X130233371Y-80252438D02*
X130280990Y-80300057D01*
X130280990Y-80300057D02*
X130328609Y-80395295D01*
X130328609Y-80395295D02*
X130328609Y-80538152D01*
X130328609Y-80538152D02*
X130280990Y-80633390D01*
X130280990Y-80633390D02*
X130233371Y-80681009D01*
X130233371Y-80681009D02*
X130138133Y-80728628D01*
X130138133Y-80728628D02*
X129757181Y-80728628D01*
X131185752Y-80204819D02*
X130995276Y-80204819D01*
X130995276Y-80204819D02*
X130900038Y-80252438D01*
X130900038Y-80252438D02*
X130852419Y-80300057D01*
X130852419Y-80300057D02*
X130757181Y-80442914D01*
X130757181Y-80442914D02*
X130709562Y-80633390D01*
X130709562Y-80633390D02*
X130709562Y-81014342D01*
X130709562Y-81014342D02*
X130757181Y-81109580D01*
X130757181Y-81109580D02*
X130804800Y-81157200D01*
X130804800Y-81157200D02*
X130900038Y-81204819D01*
X130900038Y-81204819D02*
X131090514Y-81204819D01*
X131090514Y-81204819D02*
X131185752Y-81157200D01*
X131185752Y-81157200D02*
X131233371Y-81109580D01*
X131233371Y-81109580D02*
X131280990Y-81014342D01*
X131280990Y-81014342D02*
X131280990Y-80776247D01*
X131280990Y-80776247D02*
X131233371Y-80681009D01*
X131233371Y-80681009D02*
X131185752Y-80633390D01*
X131185752Y-80633390D02*
X131090514Y-80585771D01*
X131090514Y-80585771D02*
X130900038Y-80585771D01*
X130900038Y-80585771D02*
X130804800Y-80633390D01*
X130804800Y-80633390D02*
X130757181Y-80681009D01*
X130757181Y-80681009D02*
X130709562Y-80776247D01*
X156607142Y-80359580D02*
X156559523Y-80407200D01*
X156559523Y-80407200D02*
X156416666Y-80454819D01*
X156416666Y-80454819D02*
X156321428Y-80454819D01*
X156321428Y-80454819D02*
X156178571Y-80407200D01*
X156178571Y-80407200D02*
X156083333Y-80311961D01*
X156083333Y-80311961D02*
X156035714Y-80216723D01*
X156035714Y-80216723D02*
X155988095Y-80026247D01*
X155988095Y-80026247D02*
X155988095Y-79883390D01*
X155988095Y-79883390D02*
X156035714Y-79692914D01*
X156035714Y-79692914D02*
X156083333Y-79597676D01*
X156083333Y-79597676D02*
X156178571Y-79502438D01*
X156178571Y-79502438D02*
X156321428Y-79454819D01*
X156321428Y-79454819D02*
X156416666Y-79454819D01*
X156416666Y-79454819D02*
X156559523Y-79502438D01*
X156559523Y-79502438D02*
X156607142Y-79550057D01*
X156988095Y-79550057D02*
X157035714Y-79502438D01*
X157035714Y-79502438D02*
X157130952Y-79454819D01*
X157130952Y-79454819D02*
X157369047Y-79454819D01*
X157369047Y-79454819D02*
X157464285Y-79502438D01*
X157464285Y-79502438D02*
X157511904Y-79550057D01*
X157511904Y-79550057D02*
X157559523Y-79645295D01*
X157559523Y-79645295D02*
X157559523Y-79740533D01*
X157559523Y-79740533D02*
X157511904Y-79883390D01*
X157511904Y-79883390D02*
X156940476Y-80454819D01*
X156940476Y-80454819D02*
X157559523Y-80454819D01*
X157892857Y-79454819D02*
X158511904Y-79454819D01*
X158511904Y-79454819D02*
X158178571Y-79835771D01*
X158178571Y-79835771D02*
X158321428Y-79835771D01*
X158321428Y-79835771D02*
X158416666Y-79883390D01*
X158416666Y-79883390D02*
X158464285Y-79931009D01*
X158464285Y-79931009D02*
X158511904Y-80026247D01*
X158511904Y-80026247D02*
X158511904Y-80264342D01*
X158511904Y-80264342D02*
X158464285Y-80359580D01*
X158464285Y-80359580D02*
X158416666Y-80407200D01*
X158416666Y-80407200D02*
X158321428Y-80454819D01*
X158321428Y-80454819D02*
X158035714Y-80454819D01*
X158035714Y-80454819D02*
X157940476Y-80407200D01*
X157940476Y-80407200D02*
X157892857Y-80359580D01*
X130583333Y-86704819D02*
X130250000Y-86228628D01*
X130011905Y-86704819D02*
X130011905Y-85704819D01*
X130011905Y-85704819D02*
X130392857Y-85704819D01*
X130392857Y-85704819D02*
X130488095Y-85752438D01*
X130488095Y-85752438D02*
X130535714Y-85800057D01*
X130535714Y-85800057D02*
X130583333Y-85895295D01*
X130583333Y-85895295D02*
X130583333Y-86038152D01*
X130583333Y-86038152D02*
X130535714Y-86133390D01*
X130535714Y-86133390D02*
X130488095Y-86181009D01*
X130488095Y-86181009D02*
X130392857Y-86228628D01*
X130392857Y-86228628D02*
X130011905Y-86228628D01*
X130916667Y-85704819D02*
X131583333Y-85704819D01*
X131583333Y-85704819D02*
X131154762Y-86704819D01*
X125607142Y-67954819D02*
X125273809Y-67478628D01*
X125035714Y-67954819D02*
X125035714Y-66954819D01*
X125035714Y-66954819D02*
X125416666Y-66954819D01*
X125416666Y-66954819D02*
X125511904Y-67002438D01*
X125511904Y-67002438D02*
X125559523Y-67050057D01*
X125559523Y-67050057D02*
X125607142Y-67145295D01*
X125607142Y-67145295D02*
X125607142Y-67288152D01*
X125607142Y-67288152D02*
X125559523Y-67383390D01*
X125559523Y-67383390D02*
X125511904Y-67431009D01*
X125511904Y-67431009D02*
X125416666Y-67478628D01*
X125416666Y-67478628D02*
X125035714Y-67478628D01*
X126559523Y-67954819D02*
X125988095Y-67954819D01*
X126273809Y-67954819D02*
X126273809Y-66954819D01*
X126273809Y-66954819D02*
X126178571Y-67097676D01*
X126178571Y-67097676D02*
X126083333Y-67192914D01*
X126083333Y-67192914D02*
X125988095Y-67240533D01*
X127464285Y-66954819D02*
X126988095Y-66954819D01*
X126988095Y-66954819D02*
X126940476Y-67431009D01*
X126940476Y-67431009D02*
X126988095Y-67383390D01*
X126988095Y-67383390D02*
X127083333Y-67335771D01*
X127083333Y-67335771D02*
X127321428Y-67335771D01*
X127321428Y-67335771D02*
X127416666Y-67383390D01*
X127416666Y-67383390D02*
X127464285Y-67431009D01*
X127464285Y-67431009D02*
X127511904Y-67526247D01*
X127511904Y-67526247D02*
X127511904Y-67764342D01*
X127511904Y-67764342D02*
X127464285Y-67859580D01*
X127464285Y-67859580D02*
X127416666Y-67907200D01*
X127416666Y-67907200D02*
X127321428Y-67954819D01*
X127321428Y-67954819D02*
X127083333Y-67954819D01*
X127083333Y-67954819D02*
X126988095Y-67907200D01*
X126988095Y-67907200D02*
X126940476Y-67859580D01*
X123583333Y-76204819D02*
X123250000Y-75728628D01*
X123011905Y-76204819D02*
X123011905Y-75204819D01*
X123011905Y-75204819D02*
X123392857Y-75204819D01*
X123392857Y-75204819D02*
X123488095Y-75252438D01*
X123488095Y-75252438D02*
X123535714Y-75300057D01*
X123535714Y-75300057D02*
X123583333Y-75395295D01*
X123583333Y-75395295D02*
X123583333Y-75538152D01*
X123583333Y-75538152D02*
X123535714Y-75633390D01*
X123535714Y-75633390D02*
X123488095Y-75681009D01*
X123488095Y-75681009D02*
X123392857Y-75728628D01*
X123392857Y-75728628D02*
X123011905Y-75728628D01*
X124059524Y-76204819D02*
X124250000Y-76204819D01*
X124250000Y-76204819D02*
X124345238Y-76157200D01*
X124345238Y-76157200D02*
X124392857Y-76109580D01*
X124392857Y-76109580D02*
X124488095Y-75966723D01*
X124488095Y-75966723D02*
X124535714Y-75776247D01*
X124535714Y-75776247D02*
X124535714Y-75395295D01*
X124535714Y-75395295D02*
X124488095Y-75300057D01*
X124488095Y-75300057D02*
X124440476Y-75252438D01*
X124440476Y-75252438D02*
X124345238Y-75204819D01*
X124345238Y-75204819D02*
X124154762Y-75204819D01*
X124154762Y-75204819D02*
X124059524Y-75252438D01*
X124059524Y-75252438D02*
X124011905Y-75300057D01*
X124011905Y-75300057D02*
X123964286Y-75395295D01*
X123964286Y-75395295D02*
X123964286Y-75633390D01*
X123964286Y-75633390D02*
X124011905Y-75728628D01*
X124011905Y-75728628D02*
X124059524Y-75776247D01*
X124059524Y-75776247D02*
X124154762Y-75823866D01*
X124154762Y-75823866D02*
X124345238Y-75823866D01*
X124345238Y-75823866D02*
X124440476Y-75776247D01*
X124440476Y-75776247D02*
X124488095Y-75728628D01*
X124488095Y-75728628D02*
X124535714Y-75633390D01*
X144607142Y-68109580D02*
X144559523Y-68157200D01*
X144559523Y-68157200D02*
X144416666Y-68204819D01*
X144416666Y-68204819D02*
X144321428Y-68204819D01*
X144321428Y-68204819D02*
X144178571Y-68157200D01*
X144178571Y-68157200D02*
X144083333Y-68061961D01*
X144083333Y-68061961D02*
X144035714Y-67966723D01*
X144035714Y-67966723D02*
X143988095Y-67776247D01*
X143988095Y-67776247D02*
X143988095Y-67633390D01*
X143988095Y-67633390D02*
X144035714Y-67442914D01*
X144035714Y-67442914D02*
X144083333Y-67347676D01*
X144083333Y-67347676D02*
X144178571Y-67252438D01*
X144178571Y-67252438D02*
X144321428Y-67204819D01*
X144321428Y-67204819D02*
X144416666Y-67204819D01*
X144416666Y-67204819D02*
X144559523Y-67252438D01*
X144559523Y-67252438D02*
X144607142Y-67300057D01*
X145559523Y-68204819D02*
X144988095Y-68204819D01*
X145273809Y-68204819D02*
X145273809Y-67204819D01*
X145273809Y-67204819D02*
X145178571Y-67347676D01*
X145178571Y-67347676D02*
X145083333Y-67442914D01*
X145083333Y-67442914D02*
X144988095Y-67490533D01*
X146035714Y-68204819D02*
X146226190Y-68204819D01*
X146226190Y-68204819D02*
X146321428Y-68157200D01*
X146321428Y-68157200D02*
X146369047Y-68109580D01*
X146369047Y-68109580D02*
X146464285Y-67966723D01*
X146464285Y-67966723D02*
X146511904Y-67776247D01*
X146511904Y-67776247D02*
X146511904Y-67395295D01*
X146511904Y-67395295D02*
X146464285Y-67300057D01*
X146464285Y-67300057D02*
X146416666Y-67252438D01*
X146416666Y-67252438D02*
X146321428Y-67204819D01*
X146321428Y-67204819D02*
X146130952Y-67204819D01*
X146130952Y-67204819D02*
X146035714Y-67252438D01*
X146035714Y-67252438D02*
X145988095Y-67300057D01*
X145988095Y-67300057D02*
X145940476Y-67395295D01*
X145940476Y-67395295D02*
X145940476Y-67633390D01*
X145940476Y-67633390D02*
X145988095Y-67728628D01*
X145988095Y-67728628D02*
X146035714Y-67776247D01*
X146035714Y-67776247D02*
X146130952Y-67823866D01*
X146130952Y-67823866D02*
X146321428Y-67823866D01*
X146321428Y-67823866D02*
X146416666Y-67776247D01*
X146416666Y-67776247D02*
X146464285Y-67728628D01*
X146464285Y-67728628D02*
X146511904Y-67633390D01*
X148607142Y-55859580D02*
X148559523Y-55907200D01*
X148559523Y-55907200D02*
X148416666Y-55954819D01*
X148416666Y-55954819D02*
X148321428Y-55954819D01*
X148321428Y-55954819D02*
X148178571Y-55907200D01*
X148178571Y-55907200D02*
X148083333Y-55811961D01*
X148083333Y-55811961D02*
X148035714Y-55716723D01*
X148035714Y-55716723D02*
X147988095Y-55526247D01*
X147988095Y-55526247D02*
X147988095Y-55383390D01*
X147988095Y-55383390D02*
X148035714Y-55192914D01*
X148035714Y-55192914D02*
X148083333Y-55097676D01*
X148083333Y-55097676D02*
X148178571Y-55002438D01*
X148178571Y-55002438D02*
X148321428Y-54954819D01*
X148321428Y-54954819D02*
X148416666Y-54954819D01*
X148416666Y-54954819D02*
X148559523Y-55002438D01*
X148559523Y-55002438D02*
X148607142Y-55050057D01*
X148988095Y-55050057D02*
X149035714Y-55002438D01*
X149035714Y-55002438D02*
X149130952Y-54954819D01*
X149130952Y-54954819D02*
X149369047Y-54954819D01*
X149369047Y-54954819D02*
X149464285Y-55002438D01*
X149464285Y-55002438D02*
X149511904Y-55050057D01*
X149511904Y-55050057D02*
X149559523Y-55145295D01*
X149559523Y-55145295D02*
X149559523Y-55240533D01*
X149559523Y-55240533D02*
X149511904Y-55383390D01*
X149511904Y-55383390D02*
X148940476Y-55954819D01*
X148940476Y-55954819D02*
X149559523Y-55954819D01*
X149940476Y-55050057D02*
X149988095Y-55002438D01*
X149988095Y-55002438D02*
X150083333Y-54954819D01*
X150083333Y-54954819D02*
X150321428Y-54954819D01*
X150321428Y-54954819D02*
X150416666Y-55002438D01*
X150416666Y-55002438D02*
X150464285Y-55050057D01*
X150464285Y-55050057D02*
X150511904Y-55145295D01*
X150511904Y-55145295D02*
X150511904Y-55240533D01*
X150511904Y-55240533D02*
X150464285Y-55383390D01*
X150464285Y-55383390D02*
X149892857Y-55954819D01*
X149892857Y-55954819D02*
X150511904Y-55954819D01*
D14*
%TO.C,J5*%
X158720000Y-71910000D02*
X158720000Y-73185000D01*
X158785000Y-73185000D02*
X158720000Y-73185000D01*
X158785000Y-73185000D02*
X158785000Y-76815000D01*
X152280000Y-73185000D02*
X152215000Y-73185000D01*
X152215000Y-73185000D02*
X152215000Y-76815000D01*
X158785000Y-76815000D02*
X158720000Y-76815000D01*
X152280000Y-76815000D02*
X152215000Y-76815000D01*
D15*
%TO.C,J1*%
X111150000Y-55100000D02*
G75*
G02*
X111150000Y-55000000I0J50000D01*
G01*
X111150000Y-55000000D02*
G75*
G02*
X111150000Y-55100000I0J-50000D01*
G01*
D16*
X120850000Y-66500000D02*
X120850000Y-63500000D01*
X120850000Y-63500000D02*
X119999000Y-63500000D01*
X119999000Y-63500000D02*
X119999000Y-56973000D01*
X119999000Y-56973000D02*
X118750000Y-56973000D01*
X118750000Y-66500000D02*
X120850000Y-66500000D01*
X112550000Y-66500000D02*
X115950000Y-66500000D01*
X112550000Y-57500000D02*
X115950000Y-57500000D01*
D15*
X111150000Y-55100000D02*
X111150000Y-55100000D01*
X111150000Y-55000000D02*
X111150000Y-55000000D01*
D16*
X109750000Y-57500000D02*
X106150000Y-57500000D01*
X106150000Y-66500000D02*
X109750000Y-66500000D01*
X106150000Y-57500000D02*
X106150000Y-66500000D01*
D14*
%TO.C,R3*%
X159004724Y-99227500D02*
X158495276Y-99227500D01*
X159004724Y-100272500D02*
X158495276Y-100272500D01*
D16*
%TO.C,LED5*%
X118680001Y-71000000D02*
X118680001Y-71000000D01*
X118680001Y-71000000D01*
X118680001Y-71000000D01*
X118680001Y-71000000D01*
X118680001Y-71000000D01*
X118680001Y-71000001D01*
X118680001Y-71000001D01*
X118680001Y-71000001D01*
X118680001Y-71000001D01*
X118680001Y-71000001D01*
X118680001Y-71000001D01*
X118680001Y-71000001D01*
X118680000Y-71000001D01*
X118680000Y-71000001D01*
X118680000Y-71000001D01*
X118680000Y-71000001D01*
X118680000Y-71000001D01*
X118680000Y-71000001D01*
X118680000Y-71000001D01*
X118680000Y-71000001D01*
X118680000Y-71000001D01*
X118680000Y-71000001D01*
X118680000Y-71000001D01*
X118680000Y-71000001D01*
X118679999Y-71000001D01*
X118679999Y-71000001D01*
X118679999Y-71000001D01*
X118679999Y-71000001D01*
X118679999Y-71000001D01*
X118679999Y-71000001D01*
X118679999Y-71000000D01*
X118679999Y-71000000D01*
X118679999Y-71000000D01*
X118679999Y-71000000D01*
X118679999Y-71000000D01*
X118679999Y-71000000D01*
X118679999Y-71000000D02*
X118679999Y-71000000D01*
X118679999Y-71000000D01*
X118679999Y-71000000D01*
X118679999Y-71000000D01*
X118679999Y-71000000D01*
X118679999Y-71000000D01*
X118679999Y-70999999D01*
X118679999Y-70999999D01*
X118679999Y-70999999D01*
X118679999Y-70999999D01*
X118679999Y-70999999D01*
X118680000Y-70999999D01*
X118680000Y-70999999D01*
X118680000Y-70999999D01*
X118680000Y-70999999D01*
X118680000Y-70999999D01*
X118680000Y-70999999D01*
X118680000Y-70999999D01*
X118680000Y-70999999D01*
X118680000Y-70999999D01*
X118680000Y-70999999D01*
X118680000Y-70999999D01*
X118680000Y-70999999D01*
X118680001Y-70999999D01*
X118680001Y-70999999D01*
X118680001Y-70999999D01*
X118680001Y-70999999D01*
X118680001Y-70999999D01*
X118680001Y-70999999D01*
X118680001Y-71000000D01*
X118680001Y-71000000D01*
X118680001Y-71000000D01*
X118680001Y-71000000D01*
X118680001Y-71000000D01*
X118680001Y-71000000D01*
X118680001Y-71000000D01*
%TO.C,IC2*%
X136500000Y-60000000D02*
X143000000Y-60000000D01*
X136500000Y-63500000D02*
X136500000Y-60000000D01*
X142875000Y-57725000D02*
X142875000Y-59475000D01*
X143000000Y-60000000D02*
X143000000Y-63500000D01*
X143000000Y-63500000D02*
X136500000Y-63500000D01*
D14*
%TO.C,J3*%
X159170000Y-82800000D02*
X159170000Y-84130000D01*
X159170000Y-85400000D02*
X159170000Y-93080000D01*
X160500000Y-82800000D02*
X159170000Y-82800000D01*
X161770000Y-82800000D02*
X161770000Y-85400000D01*
X161770000Y-85400000D02*
X159170000Y-85400000D01*
X164370000Y-82800000D02*
X161770000Y-82800000D01*
X164370000Y-82800000D02*
X164370000Y-93080000D01*
X164370000Y-93080000D02*
X159170000Y-93080000D01*
%TO.C,R18*%
X133245276Y-71227500D02*
X133754724Y-71227500D01*
X133245276Y-72272500D02*
X133754724Y-72272500D01*
%TO.C,R4*%
X151495276Y-101227500D02*
X152004724Y-101227500D01*
X151495276Y-102272500D02*
X152004724Y-102272500D01*
D16*
%TO.C,C8*%
X145250000Y-78475000D02*
X145250000Y-79525000D01*
D14*
%TO.C,R8*%
X131004724Y-92227500D02*
X130495276Y-92227500D01*
X131004724Y-93272500D02*
X130495276Y-93272500D01*
D16*
%TO.C,C18*%
X134200000Y-59500000D02*
X132800000Y-59500000D01*
%TO.C,C14*%
X114950000Y-72050000D02*
X115550000Y-72050000D01*
%TO.C,C17*%
X130530000Y-59500000D02*
X129130000Y-59500000D01*
%TO.C,C6*%
X154550000Y-86500000D02*
X153950000Y-86500000D01*
%TO.C,C16*%
X112700000Y-72050000D02*
X113300000Y-72050000D01*
D14*
%TO.C,J4*%
X136010000Y-104670000D02*
X137340000Y-104670000D01*
X136010000Y-106000000D02*
X136010000Y-104670000D01*
X138610000Y-104670000D02*
X156450000Y-104670000D01*
X138610000Y-107330000D02*
X138610000Y-104670000D01*
X138610000Y-107330000D02*
X156450000Y-107330000D01*
X156450000Y-107330000D02*
X156450000Y-104670000D01*
D16*
%TO.C,C12*%
X135250000Y-91800000D02*
X135250000Y-91200000D01*
%TO.C,C4*%
X140300000Y-90200000D02*
X140900000Y-90200000D01*
%TO.C,U1*%
X144850000Y-85838000D02*
X151150000Y-85838000D01*
X144850000Y-92138000D02*
X144850000Y-85838000D01*
X151150000Y-85838000D02*
X151150000Y-92138000D01*
X151150000Y-92138000D02*
X144850000Y-92138000D01*
D17*
X143400000Y-85488000D02*
G75*
G02*
X143150000Y-85488000I-125000J0D01*
G01*
X143150000Y-85488000D02*
G75*
G02*
X143400000Y-85488000I125000J0D01*
G01*
D14*
%TO.C,R13*%
X123772936Y-99790000D02*
X125227064Y-99790000D01*
X123772936Y-101610000D02*
X125227064Y-101610000D01*
%TO.C,Y1*%
X134990000Y-83690000D02*
X134990000Y-88310000D01*
X134990000Y-88310000D02*
X140510000Y-88310000D01*
%TO.C,R17*%
X133245276Y-68977500D02*
X133754724Y-68977500D01*
X133245276Y-70022500D02*
X133754724Y-70022500D01*
D16*
%TO.C,S1*%
X107300000Y-77480000D02*
X117200000Y-77480000D01*
X107300000Y-86520000D02*
X107300000Y-77480000D01*
X108440000Y-76860000D02*
X108440000Y-76860000D01*
X108640000Y-76860000D02*
X108640000Y-76860000D01*
X117200000Y-77480000D02*
X117200000Y-86520000D01*
X117200000Y-86520000D02*
X107300000Y-86520000D01*
X108440000Y-76860000D02*
G75*
G02*
X108640000Y-76860000I100000J0D01*
G01*
X108640000Y-76860000D02*
G75*
G02*
X108440000Y-76860000I-100000J0D01*
G01*
D14*
%TO.C,R16*%
X126504724Y-70227500D02*
X125995276Y-70227500D01*
X126504724Y-71272500D02*
X125995276Y-71272500D01*
%TO.C,R12*%
X112272936Y-99840000D02*
X113727064Y-99840000D01*
X112272936Y-101660000D02*
X113727064Y-101660000D01*
%TO.C,R10*%
X138272936Y-99840000D02*
X139727064Y-99840000D01*
X138272936Y-101660000D02*
X139727064Y-101660000D01*
%TO.C,R5*%
X131754724Y-76477500D02*
X131245276Y-76477500D01*
X131754724Y-77522500D02*
X131245276Y-77522500D01*
D16*
%TO.C,IC1*%
X150250000Y-62250000D02*
X156750000Y-62250000D01*
X150250000Y-65750000D02*
X150250000Y-62250000D01*
X156625000Y-59975000D02*
X156625000Y-61725000D01*
X156750000Y-62250000D02*
X156750000Y-65750000D01*
X156750000Y-65750000D02*
X150250000Y-65750000D01*
%TO.C,D1*%
X124350000Y-60625000D02*
X124350000Y-62375000D01*
X125650000Y-59812000D02*
X125650000Y-62375000D01*
%TO.C,C11*%
X137750000Y-81090000D02*
X137750000Y-80490000D01*
D14*
%TO.C,R11*%
X118977064Y-99840000D02*
X117522936Y-99840000D01*
X118977064Y-101660000D02*
X117522936Y-101660000D01*
D16*
%TO.C,LED1*%
X124450001Y-77250000D02*
X124450001Y-77250000D01*
X124450001Y-77250000D01*
X124450001Y-77250000D01*
X124450001Y-77250000D01*
X124450001Y-77250000D01*
X124450001Y-77250001D01*
X124450001Y-77250001D01*
X124450001Y-77250001D01*
X124450001Y-77250001D01*
X124450001Y-77250001D01*
X124450001Y-77250001D01*
X124450001Y-77250001D01*
X124450000Y-77250001D01*
X124450000Y-77250001D01*
X124450000Y-77250001D01*
X124450000Y-77250001D01*
X124450000Y-77250001D01*
X124450000Y-77250001D01*
X124450000Y-77250001D01*
X124450000Y-77250001D01*
X124450000Y-77250001D01*
X124450000Y-77250001D01*
X124450000Y-77250001D01*
X124450000Y-77250001D01*
X124449999Y-77250001D01*
X124449999Y-77250001D01*
X124449999Y-77250001D01*
X124449999Y-77250001D01*
X124449999Y-77250001D01*
X124449999Y-77250001D01*
X124449999Y-77250000D01*
X124449999Y-77250000D01*
X124449999Y-77250000D01*
X124449999Y-77250000D01*
X124449999Y-77250000D01*
X124449999Y-77250000D01*
X124449999Y-77250000D02*
X124449999Y-77250000D01*
X124449999Y-77250000D01*
X124449999Y-77250000D01*
X124449999Y-77250000D01*
X124449999Y-77250000D01*
X124449999Y-77250000D01*
X124449999Y-77249999D01*
X124449999Y-77249999D01*
X124449999Y-77249999D01*
X124449999Y-77249999D01*
X124449999Y-77249999D01*
X124450000Y-77249999D01*
X124450000Y-77249999D01*
X124450000Y-77249999D01*
X124450000Y-77249999D01*
X124450000Y-77249999D01*
X124450000Y-77249999D01*
X124450000Y-77249999D01*
X124450000Y-77249999D01*
X124450000Y-77249999D01*
X124450000Y-77249999D01*
X124450000Y-77249999D01*
X124450000Y-77249999D01*
X124450001Y-77249999D01*
X124450001Y-77249999D01*
X124450001Y-77249999D01*
X124450001Y-77249999D01*
X124450001Y-77249999D01*
X124450001Y-77249999D01*
X124450001Y-77250000D01*
X124450001Y-77250000D01*
X124450001Y-77250000D01*
X124450001Y-77250000D01*
X124450001Y-77250000D01*
X124450001Y-77250000D01*
X124450001Y-77250000D01*
%TO.C,C7*%
X151500000Y-95300000D02*
X151500000Y-94700000D01*
%TO.C,LED6*%
X137337501Y-72050000D02*
X137337501Y-72050000D01*
X137337501Y-72050000D01*
X137337501Y-72050000D01*
X137337501Y-72050000D01*
X137337501Y-72050000D01*
X137337501Y-72050001D01*
X137337501Y-72050001D01*
X137337501Y-72050001D01*
X137337501Y-72050001D01*
X137337501Y-72050001D01*
X137337501Y-72050001D01*
X137337501Y-72050001D01*
X137337500Y-72050001D01*
X137337500Y-72050001D01*
X137337500Y-72050001D01*
X137337500Y-72050001D01*
X137337500Y-72050001D01*
X137337500Y-72050001D01*
X137337500Y-72050001D01*
X137337500Y-72050001D01*
X137337500Y-72050001D01*
X137337500Y-72050001D01*
X137337500Y-72050001D01*
X137337500Y-72050001D01*
X137337499Y-72050001D01*
X137337499Y-72050001D01*
X137337499Y-72050001D01*
X137337499Y-72050001D01*
X137337499Y-72050001D01*
X137337499Y-72050001D01*
X137337499Y-72050000D01*
X137337499Y-72050000D01*
X137337499Y-72050000D01*
X137337499Y-72050000D01*
X137337499Y-72050000D01*
X137337499Y-72050000D01*
X137337499Y-72050000D02*
X137337499Y-72050000D01*
X137337499Y-72050000D01*
X137337499Y-72050000D01*
X137337499Y-72050000D01*
X137337499Y-72050000D01*
X137337499Y-72050000D01*
X137337499Y-72049999D01*
X137337499Y-72049999D01*
X137337499Y-72049999D01*
X137337499Y-72049999D01*
X137337499Y-72049999D01*
X137337500Y-72049999D01*
X137337500Y-72049999D01*
X137337500Y-72049999D01*
X137337500Y-72049999D01*
X137337500Y-72049999D01*
X137337500Y-72049999D01*
X137337500Y-72049999D01*
X137337500Y-72049999D01*
X137337500Y-72049999D01*
X137337500Y-72049999D01*
X137337500Y-72049999D01*
X137337500Y-72049999D01*
X137337501Y-72049999D01*
X137337501Y-72049999D01*
X137337501Y-72049999D01*
X137337501Y-72049999D01*
X137337501Y-72049999D01*
X137337501Y-72049999D01*
X137337501Y-72050000D01*
X137337501Y-72050000D01*
X137337501Y-72050000D01*
X137337501Y-72050000D01*
X137337501Y-72050000D01*
X137337501Y-72050000D01*
X137337501Y-72050000D01*
D14*
%TO.C,R14*%
X132227064Y-99840000D02*
X130772936Y-99840000D01*
X132227064Y-101660000D02*
X130772936Y-101660000D01*
D16*
%TO.C,C5*%
X144500000Y-81938000D02*
X144500000Y-82538000D01*
D14*
%TO.C,R1*%
X162754724Y-99227500D02*
X162245276Y-99227500D01*
X162754724Y-100272500D02*
X162245276Y-100272500D01*
D16*
%TO.C,C9*%
X151750000Y-98525000D02*
X151750000Y-97475000D01*
%TO.C,C3*%
X140900000Y-81800000D02*
X141500000Y-81800000D01*
%TO.C,C21*%
X155250000Y-57300000D02*
X155250000Y-58700000D01*
%TO.C,S2*%
X107300000Y-88980000D02*
X117200000Y-88980000D01*
X107300000Y-98020000D02*
X107300000Y-88980000D01*
X108440000Y-88360000D02*
X108440000Y-88360000D01*
X108640000Y-88360000D02*
X108640000Y-88360000D01*
X117200000Y-88980000D02*
X117200000Y-98020000D01*
X117200000Y-98020000D02*
X107300000Y-98020000D01*
X108440000Y-88360000D02*
G75*
G02*
X108640000Y-88360000I100000J0D01*
G01*
X108640000Y-88360000D02*
G75*
G02*
X108440000Y-88360000I-100000J0D01*
G01*
%TO.C,C20*%
X148700000Y-63500000D02*
X147300000Y-63500000D01*
%TO.C,LED2*%
X124750001Y-84800000D02*
X124750001Y-84800000D01*
X124750001Y-84800000D01*
X124750001Y-84800000D01*
X124750001Y-84800000D01*
X124750001Y-84800000D01*
X124750001Y-84800001D01*
X124750001Y-84800001D01*
X124750001Y-84800001D01*
X124750001Y-84800001D01*
X124750001Y-84800001D01*
X124750001Y-84800001D01*
X124750001Y-84800001D01*
X124750000Y-84800001D01*
X124750000Y-84800001D01*
X124750000Y-84800001D01*
X124750000Y-84800001D01*
X124750000Y-84800001D01*
X124750000Y-84800001D01*
X124750000Y-84800001D01*
X124750000Y-84800001D01*
X124750000Y-84800001D01*
X124750000Y-84800001D01*
X124750000Y-84800001D01*
X124750000Y-84800001D01*
X124749999Y-84800001D01*
X124749999Y-84800001D01*
X124749999Y-84800001D01*
X124749999Y-84800001D01*
X124749999Y-84800001D01*
X124749999Y-84800001D01*
X124749999Y-84800000D01*
X124749999Y-84800000D01*
X124749999Y-84800000D01*
X124749999Y-84800000D01*
X124749999Y-84800000D01*
X124749999Y-84800000D01*
X124749999Y-84800000D02*
X124749999Y-84800000D01*
X124749999Y-84800000D01*
X124749999Y-84800000D01*
X124749999Y-84800000D01*
X124749999Y-84800000D01*
X124749999Y-84800000D01*
X124749999Y-84799999D01*
X124749999Y-84799999D01*
X124749999Y-84799999D01*
X124749999Y-84799999D01*
X124749999Y-84799999D01*
X124750000Y-84799999D01*
X124750000Y-84799999D01*
X124750000Y-84799999D01*
X124750000Y-84799999D01*
X124750000Y-84799999D01*
X124750000Y-84799999D01*
X124750000Y-84799999D01*
X124750000Y-84799999D01*
X124750000Y-84799999D01*
X124750000Y-84799999D01*
X124750000Y-84799999D01*
X124750000Y-84799999D01*
X124750001Y-84799999D01*
X124750001Y-84799999D01*
X124750001Y-84799999D01*
X124750001Y-84799999D01*
X124750001Y-84799999D01*
X124750001Y-84799999D01*
X124750001Y-84800000D01*
X124750001Y-84800000D01*
X124750001Y-84800000D01*
X124750001Y-84800000D01*
X124750001Y-84800000D01*
X124750001Y-84800000D01*
X124750001Y-84800000D01*
%TO.C,C15*%
X110410000Y-72050000D02*
X111010000Y-72050000D01*
D14*
%TO.C,R2*%
X148477500Y-100745276D02*
X148477500Y-101254724D01*
X149522500Y-100745276D02*
X149522500Y-101254724D01*
D16*
%TO.C,C1*%
X154550000Y-94750000D02*
X155950000Y-94750000D01*
%TO.C,C10*%
X137750000Y-82800000D02*
X137750000Y-82200000D01*
%TO.C,C13*%
X135250000Y-90050000D02*
X135250000Y-89450000D01*
D14*
%TO.C,R6*%
X131004724Y-81727500D02*
X130495276Y-81727500D01*
X131004724Y-82772500D02*
X130495276Y-82772500D01*
D16*
%TO.C,LED3*%
X124750001Y-90050000D02*
X124750001Y-90050000D01*
X124750001Y-90050000D01*
X124750001Y-90050000D01*
X124750001Y-90050000D01*
X124750001Y-90050000D01*
X124750001Y-90050001D01*
X124750001Y-90050001D01*
X124750001Y-90050001D01*
X124750001Y-90050001D01*
X124750001Y-90050001D01*
X124750001Y-90050001D01*
X124750001Y-90050001D01*
X124750000Y-90050001D01*
X124750000Y-90050001D01*
X124750000Y-90050001D01*
X124750000Y-90050001D01*
X124750000Y-90050001D01*
X124750000Y-90050001D01*
X124750000Y-90050001D01*
X124750000Y-90050001D01*
X124750000Y-90050001D01*
X124750000Y-90050001D01*
X124750000Y-90050001D01*
X124750000Y-90050001D01*
X124749999Y-90050001D01*
X124749999Y-90050001D01*
X124749999Y-90050001D01*
X124749999Y-90050001D01*
X124749999Y-90050001D01*
X124749999Y-90050001D01*
X124749999Y-90050000D01*
X124749999Y-90050000D01*
X124749999Y-90050000D01*
X124749999Y-90050000D01*
X124749999Y-90050000D01*
X124749999Y-90050000D01*
X124749999Y-90050000D02*
X124749999Y-90050000D01*
X124749999Y-90050000D01*
X124749999Y-90050000D01*
X124749999Y-90050000D01*
X124749999Y-90050000D01*
X124749999Y-90050000D01*
X124749999Y-90049999D01*
X124749999Y-90049999D01*
X124749999Y-90049999D01*
X124749999Y-90049999D01*
X124749999Y-90049999D01*
X124750000Y-90049999D01*
X124750000Y-90049999D01*
X124750000Y-90049999D01*
X124750000Y-90049999D01*
X124750000Y-90049999D01*
X124750000Y-90049999D01*
X124750000Y-90049999D01*
X124750000Y-90049999D01*
X124750000Y-90049999D01*
X124750000Y-90049999D01*
X124750000Y-90049999D01*
X124750000Y-90049999D01*
X124750001Y-90049999D01*
X124750001Y-90049999D01*
X124750001Y-90049999D01*
X124750001Y-90049999D01*
X124750001Y-90049999D01*
X124750001Y-90049999D01*
X124750001Y-90050000D01*
X124750001Y-90050000D01*
X124750001Y-90050000D01*
X124750001Y-90050000D01*
X124750001Y-90050000D01*
X124750001Y-90050000D01*
X124750001Y-90050000D01*
%TO.C,C23*%
X161750000Y-80700000D02*
X161750000Y-79300000D01*
D14*
%TO.C,R7*%
X131004724Y-86977500D02*
X130495276Y-86977500D01*
X131004724Y-88022500D02*
X130495276Y-88022500D01*
%TO.C,R15*%
X126504724Y-68477500D02*
X125995276Y-68477500D01*
X126504724Y-69522500D02*
X125995276Y-69522500D01*
D16*
%TO.C,LED4*%
X124750001Y-95300000D02*
X124750001Y-95300000D01*
X124750001Y-95300000D01*
X124750001Y-95300000D01*
X124750001Y-95300000D01*
X124750001Y-95300000D01*
X124750001Y-95300001D01*
X124750001Y-95300001D01*
X124750001Y-95300001D01*
X124750001Y-95300001D01*
X124750001Y-95300001D01*
X124750001Y-95300001D01*
X124750001Y-95300001D01*
X124750000Y-95300001D01*
X124750000Y-95300001D01*
X124750000Y-95300001D01*
X124750000Y-95300001D01*
X124750000Y-95300001D01*
X124750000Y-95300001D01*
X124750000Y-95300001D01*
X124750000Y-95300001D01*
X124750000Y-95300001D01*
X124750000Y-95300001D01*
X124750000Y-95300001D01*
X124750000Y-95300001D01*
X124749999Y-95300001D01*
X124749999Y-95300001D01*
X124749999Y-95300001D01*
X124749999Y-95300001D01*
X124749999Y-95300001D01*
X124749999Y-95300001D01*
X124749999Y-95300000D01*
X124749999Y-95300000D01*
X124749999Y-95300000D01*
X124749999Y-95300000D01*
X124749999Y-95300000D01*
X124749999Y-95300000D01*
X124749999Y-95300000D02*
X124749999Y-95300000D01*
X124749999Y-95300000D01*
X124749999Y-95300000D01*
X124749999Y-95300000D01*
X124749999Y-95300000D01*
X124749999Y-95300000D01*
X124749999Y-95299999D01*
X124749999Y-95299999D01*
X124749999Y-95299999D01*
X124749999Y-95299999D01*
X124749999Y-95299999D01*
X124750000Y-95299999D01*
X124750000Y-95299999D01*
X124750000Y-95299999D01*
X124750000Y-95299999D01*
X124750000Y-95299999D01*
X124750000Y-95299999D01*
X124750000Y-95299999D01*
X124750000Y-95299999D01*
X124750000Y-95299999D01*
X124750000Y-95299999D01*
X124750000Y-95299999D01*
X124750000Y-95299999D01*
X124750001Y-95299999D01*
X124750001Y-95299999D01*
X124750001Y-95299999D01*
X124750001Y-95299999D01*
X124750001Y-95299999D01*
X124750001Y-95299999D01*
X124750001Y-95300000D01*
X124750001Y-95300000D01*
X124750001Y-95300000D01*
X124750001Y-95300000D01*
X124750001Y-95300000D01*
X124750001Y-95300000D01*
X124750001Y-95300000D01*
D14*
%TO.C,R9*%
X126977064Y-73090000D02*
X125522936Y-73090000D01*
X126977064Y-74910000D02*
X125522936Y-74910000D01*
D16*
%TO.C,C19*%
X145950000Y-63500000D02*
X144550000Y-63500000D01*
%TO.C,C22*%
X155250000Y-54800000D02*
X155250000Y-56200000D01*
%TD*%
M02*
