%TF.GenerationSoftware,KiCad,Pcbnew,9.0.5*%
%TF.CreationDate,2025-10-26T23:22:08+01:00*%
%TF.ProjectId,emetteur,656d6574-7465-4757-922e-6b696361645f,rev?*%
%TF.SameCoordinates,Original*%
%TF.FileFunction,Copper,L2,Inr*%
%TF.FilePolarity,Positive*%
%FSLAX46Y46*%
G04 Gerber Fmt 4.6, Leading zero omitted, Abs format (unit mm)*
G04 Created by KiCad (PCBNEW 9.0.5) date 2025-10-26 23:22:08*
%MOMM*%
%LPD*%
G01*
G04 APERTURE LIST*
%TA.AperFunction,ComponentPad*%
%ADD10C,1.300000*%
%TD*%
%TA.AperFunction,ComponentPad*%
%ADD11R,1.700000X1.700000*%
%TD*%
%TA.AperFunction,ComponentPad*%
%ADD12C,1.700000*%
%TD*%
%TA.AperFunction,ComponentPad*%
%ADD13C,1.500000*%
%TD*%
%TA.AperFunction,ViaPad*%
%ADD14C,0.700000*%
%TD*%
%TA.AperFunction,ViaPad*%
%ADD15C,1.000000*%
%TD*%
G04 APERTURE END LIST*
D10*
%TO.N,GND*%
%TO.C,LED5*%
X118710000Y-72000000D03*
%TO.N,Net-(LED5-A)*%
X121250000Y-72000000D03*
%TD*%
D11*
%TO.N,GND*%
%TO.C,J3*%
X160500000Y-84130000D03*
D12*
%TO.N,+3.3V*%
X163040000Y-84130000D03*
%TO.N,/\u00C9metteur cam\u00E9ra/~{RESET}*%
X160500000Y-86670000D03*
%TO.N,GND*%
X163040000Y-86670000D03*
%TO.N,/\u00C9metteur cam\u00E9ra/SPI_{2}_SCLK*%
X160500000Y-89210000D03*
%TO.N,/\u00C9metteur cam\u00E9ra/SPI_{2}_MISO*%
X163040000Y-89210000D03*
%TO.N,/\u00C9metteur cam\u00E9ra/SPI_{2}_MOSI*%
X160500000Y-91750000D03*
%TO.N,/\u00C9metteur cam\u00E9ra/IRQ_{0}*%
X163040000Y-91750000D03*
%TD*%
D11*
%TO.N,+3.3V*%
%TO.C,J4*%
X137340000Y-106000000D03*
D12*
%TO.N,/\u00C9metteur cam\u00E9ra/SPI_{1}_SCLK*%
X139880000Y-106000000D03*
%TO.N,/\u00C9metteur cam\u00E9ra/SPI_{1}_MOSI*%
X142420000Y-106000000D03*
%TO.N,/\u00C9metteur cam\u00E9ra/SPI_{1}_MISO*%
X144960000Y-106000000D03*
%TO.N,+5V*%
X147500000Y-106000000D03*
%TO.N,GND*%
X150040000Y-106000000D03*
%TO.N,/\u00C9metteur cam\u00E9ra/I2C_{2}_SDA*%
X152580000Y-106000000D03*
%TO.N,/\u00C9metteur cam\u00E9ra/I2C_{2}_SCL*%
X155120000Y-106000000D03*
%TD*%
D13*
%TO.N,GND*%
%TO.C,S1*%
X108440000Y-79460000D03*
%TO.N,/\u00C9metteur cam\u00E9ra/~{RESET}*%
X116060000Y-79460000D03*
%TO.N,+3.3V*%
X108440000Y-82000000D03*
%TO.N,/\u00C9metteur cam\u00E9ra/BootMode*%
X116060000Y-82000000D03*
%TO.N,+3.3V*%
X108440000Y-84540000D03*
%TO.N,/\u00C9metteur cam\u00E9ra/usrSubmitCmd*%
X116060000Y-84540000D03*
%TD*%
D10*
%TO.N,GND*%
%TO.C,LED1*%
X124480000Y-78250000D03*
%TO.N,Net-(LED1-A)*%
X127020000Y-78250000D03*
%TD*%
%TO.N,GND*%
%TO.C,LED6*%
X138337500Y-72020000D03*
%TO.N,Net-(LED6-A)*%
X138337500Y-69480000D03*
%TD*%
D13*
%TO.N,+3.3V*%
%TO.C,S2*%
X108440000Y-90960000D03*
%TO.N,/\u00C9metteur cam\u00E9ra/usrCmd_{0}*%
X116060000Y-90960000D03*
%TO.N,+3.3V*%
X108440000Y-93500000D03*
%TO.N,/\u00C9metteur cam\u00E9ra/usrCmd_{1}*%
X116060000Y-93500000D03*
%TO.N,+3.3V*%
X108440000Y-96040000D03*
%TO.N,/\u00C9metteur cam\u00E9ra/usrCmd_{2}*%
X116060000Y-96040000D03*
%TD*%
D10*
%TO.N,GND*%
%TO.C,LED2*%
X125750000Y-84770000D03*
%TO.N,Net-(LED2-A)*%
X125750000Y-82230000D03*
%TD*%
%TO.N,GND*%
%TO.C,LED3*%
X125750000Y-90020000D03*
%TO.N,Net-(LED3-A)*%
X125750000Y-87480000D03*
%TD*%
%TO.N,GND*%
%TO.C,LED4*%
X125750000Y-95270000D03*
%TO.N,Net-(LED4-A)*%
X125750000Y-92730000D03*
%TD*%
D14*
%TO.N,GND*%
X156750000Y-71250000D03*
%TO.N,+3.3V*%
X159500000Y-73000000D03*
%TO.N,GND*%
X135250000Y-100750000D03*
D15*
X124000000Y-64750000D03*
D14*
X153750000Y-93150000D03*
X154250000Y-88250000D03*
X145300000Y-81000000D03*
D15*
X158750000Y-61500000D03*
D14*
X134494000Y-85494000D03*
X109500000Y-100750000D03*
D15*
X139750000Y-57000000D03*
X127750000Y-64750000D03*
D14*
X140994000Y-87494000D03*
X121500000Y-100750000D03*
X150750000Y-96250000D03*
D15*
X158750000Y-64000000D03*
D14*
X108750000Y-71250000D03*
X139400000Y-89400000D03*
%TO.N,+3.3V*%
X139400000Y-91000000D03*
D15*
X163500000Y-98000000D03*
X151750000Y-57750000D03*
D14*
X142000000Y-85500000D03*
D15*
X153500000Y-69000000D03*
D14*
X153600000Y-96350000D03*
X152300000Y-96250000D03*
X130250000Y-74000000D03*
X142750000Y-82238000D03*
D15*
X151750000Y-55250000D03*
D14*
X154250000Y-84762000D03*
X147500000Y-102000000D03*
D15*
%TO.N,+5V*%
X146750000Y-60500000D03*
X135250000Y-103000000D03*
X129000000Y-69250000D03*
D14*
%TO.N,/\u00C9metteur cam\u00E9ra/~{RESET}*%
X143500000Y-84500000D03*
%TO.N,Net-(U1-VCAP_1)*%
X150000000Y-97250000D03*
X146250000Y-81000000D03*
%TO.N,/\u00C9metteur cam\u00E9ra/usrSubmitCmd*%
X116700000Y-99300000D03*
X137000000Y-94000000D03*
%TO.N,/\u00C9metteur cam\u00E9ra/SPI_{1}_MOSI*%
X146500000Y-101000000D03*
X142500000Y-104250000D03*
%TO.N,/\u00C9metteur cam\u00E9ra/JTDO*%
X155500000Y-75250000D03*
X151000000Y-80500000D03*
%TO.N,/\u00C9metteur cam\u00E9ra/SPI_{2}_SCLK*%
X157500000Y-91750000D03*
%TO.N,/\u00C9metteur cam\u00E9ra/SPI_{2}_MISO*%
X158500000Y-91250000D03*
%TO.N,/\u00C9metteur cam\u00E9ra/IRQ_{0}*%
X162125000Y-95875000D03*
X142000000Y-94000000D03*
%TO.N,/\u00C9metteur cam\u00E9ra/BootMode*%
X144000000Y-93000000D03*
%TO.N,/\u00C9metteur cam\u00E9ra/usrCmd_{0}*%
X142250000Y-96750000D03*
X146750000Y-96750000D03*
%TO.N,/\u00C9metteur cam\u00E9ra/usrCmd_{1}*%
X147500000Y-97750000D03*
X142250000Y-97750000D03*
X127500000Y-97750000D03*
X127500000Y-100750000D03*
%TO.N,/\u00C9metteur cam\u00E9ra/usrCmd_{2}*%
X148250000Y-98750000D03*
X142250000Y-98750000D03*
%TO.N,GND*%
X151500000Y-73000000D03*
%TD*%
%TA.AperFunction,Conductor*%
%TO.N,GND*%
G36*
X162753032Y-53700648D02*
G01*
X163091830Y-53717293D01*
X163103938Y-53718485D01*
X163436457Y-53767810D01*
X163448371Y-53770180D01*
X163774463Y-53851861D01*
X163786105Y-53855394D01*
X163887307Y-53891604D01*
X164102597Y-53968636D01*
X164113832Y-53973290D01*
X164144224Y-53987664D01*
X164417724Y-54117019D01*
X164428441Y-54122747D01*
X164716767Y-54295564D01*
X164726882Y-54302322D01*
X164956828Y-54472861D01*
X164996890Y-54502573D01*
X165006296Y-54510293D01*
X165255370Y-54736040D01*
X165263959Y-54744629D01*
X165330333Y-54817861D01*
X165489706Y-54993703D01*
X165497426Y-55003109D01*
X165697675Y-55273114D01*
X165704435Y-55283232D01*
X165859436Y-55541835D01*
X165877245Y-55571546D01*
X165882982Y-55582279D01*
X166026709Y-55886167D01*
X166031365Y-55897409D01*
X166144605Y-56213894D01*
X166148138Y-56225538D01*
X166229816Y-56551615D01*
X166232190Y-56563550D01*
X166281513Y-56896060D01*
X166282706Y-56908170D01*
X166299351Y-57246966D01*
X166299500Y-57253051D01*
X166299500Y-105246948D01*
X166299351Y-105253033D01*
X166282706Y-105591829D01*
X166281513Y-105603939D01*
X166232190Y-105936449D01*
X166229816Y-105948384D01*
X166148138Y-106274461D01*
X166144605Y-106286105D01*
X166031365Y-106602590D01*
X166026709Y-106613832D01*
X165882982Y-106917720D01*
X165877245Y-106928453D01*
X165704435Y-107216767D01*
X165697675Y-107226885D01*
X165497426Y-107496890D01*
X165489706Y-107506296D01*
X165263967Y-107755362D01*
X165255362Y-107763967D01*
X165006296Y-107989706D01*
X164996890Y-107997426D01*
X164726885Y-108197675D01*
X164716767Y-108204435D01*
X164428453Y-108377245D01*
X164417720Y-108382982D01*
X164113832Y-108526709D01*
X164102590Y-108531365D01*
X163786105Y-108644605D01*
X163774461Y-108648138D01*
X163448384Y-108729816D01*
X163436449Y-108732190D01*
X163103939Y-108781513D01*
X163091829Y-108782706D01*
X162772897Y-108798375D01*
X162753031Y-108799351D01*
X162746949Y-108799500D01*
X109753051Y-108799500D01*
X109746968Y-108799351D01*
X109725947Y-108798318D01*
X109408170Y-108782706D01*
X109396060Y-108781513D01*
X109063550Y-108732190D01*
X109051615Y-108729816D01*
X108725538Y-108648138D01*
X108713894Y-108644605D01*
X108397409Y-108531365D01*
X108386167Y-108526709D01*
X108082279Y-108382982D01*
X108071551Y-108377247D01*
X107783232Y-108204435D01*
X107773114Y-108197675D01*
X107503109Y-107997426D01*
X107493703Y-107989706D01*
X107452389Y-107952261D01*
X107244629Y-107763959D01*
X107236040Y-107755370D01*
X107010293Y-107506296D01*
X107002573Y-107496890D01*
X106894002Y-107350499D01*
X106802322Y-107226882D01*
X106795564Y-107216767D01*
X106790036Y-107207544D01*
X106622747Y-106928441D01*
X106617017Y-106917720D01*
X106610993Y-106904984D01*
X106473290Y-106613832D01*
X106468634Y-106602590D01*
X106438515Y-106518414D01*
X106391604Y-106387307D01*
X106355394Y-106286105D01*
X106351861Y-106274461D01*
X106309736Y-106106287D01*
X106270180Y-105948371D01*
X106267809Y-105936449D01*
X106247030Y-105796370D01*
X106218485Y-105603938D01*
X106217293Y-105591828D01*
X106200649Y-105253032D01*
X106200500Y-105246948D01*
X106200500Y-105128711D01*
X107899500Y-105128711D01*
X107899500Y-105371288D01*
X107931161Y-105611785D01*
X107993947Y-105846104D01*
X108036313Y-105948384D01*
X108086776Y-106070212D01*
X108208064Y-106280289D01*
X108208066Y-106280292D01*
X108208067Y-106280293D01*
X108355733Y-106472736D01*
X108355739Y-106472743D01*
X108527256Y-106644260D01*
X108527263Y-106644266D01*
X108598667Y-106699056D01*
X108719711Y-106791936D01*
X108929788Y-106913224D01*
X109153900Y-107006054D01*
X109388211Y-107068838D01*
X109566638Y-107092328D01*
X109628711Y-107100500D01*
X109628712Y-107100500D01*
X109871289Y-107100500D01*
X109933339Y-107092331D01*
X110111789Y-107068838D01*
X110346100Y-107006054D01*
X110570212Y-106913224D01*
X110780289Y-106791936D01*
X110972738Y-106644265D01*
X111144265Y-106472738D01*
X111291936Y-106280289D01*
X111413224Y-106070212D01*
X111506054Y-105846100D01*
X111568838Y-105611789D01*
X111600500Y-105371288D01*
X111600500Y-105128712D01*
X111600500Y-105128711D01*
X111600500Y-105128708D01*
X111598694Y-105114989D01*
X111597002Y-105102135D01*
X135989500Y-105102135D01*
X135989500Y-106897870D01*
X135989501Y-106897876D01*
X135995908Y-106957483D01*
X136046202Y-107092328D01*
X136046206Y-107092335D01*
X136132452Y-107207544D01*
X136132455Y-107207547D01*
X136247664Y-107293793D01*
X136247671Y-107293797D01*
X136382517Y-107344091D01*
X136382516Y-107344091D01*
X136389444Y-107344835D01*
X136442127Y-107350500D01*
X138237872Y-107350499D01*
X138297483Y-107344091D01*
X138432331Y-107293796D01*
X138547546Y-107207546D01*
X138633796Y-107092331D01*
X138682810Y-106960916D01*
X138724681Y-106904984D01*
X138790145Y-106880566D01*
X138858418Y-106895417D01*
X138886673Y-106916569D01*
X139000213Y-107030109D01*
X139172179Y-107155048D01*
X139172181Y-107155049D01*
X139172184Y-107155051D01*
X139361588Y-107251557D01*
X139563757Y-107317246D01*
X139773713Y-107350500D01*
X139773714Y-107350500D01*
X139986286Y-107350500D01*
X139986287Y-107350500D01*
X140196243Y-107317246D01*
X140398412Y-107251557D01*
X140587816Y-107155051D01*
X140674138Y-107092335D01*
X140759786Y-107030109D01*
X140759788Y-107030106D01*
X140759792Y-107030104D01*
X140910104Y-106879792D01*
X140910106Y-106879788D01*
X140910109Y-106879786D01*
X141035048Y-106707820D01*
X141035047Y-106707820D01*
X141035051Y-106707816D01*
X141039514Y-106699054D01*
X141087488Y-106648259D01*
X141155308Y-106631463D01*
X141221444Y-106653999D01*
X141260486Y-106699056D01*
X141264951Y-106707820D01*
X141389890Y-106879786D01*
X141540213Y-107030109D01*
X141712179Y-107155048D01*
X141712181Y-107155049D01*
X141712184Y-107155051D01*
X141901588Y-107251557D01*
X142103757Y-107317246D01*
X142313713Y-107350500D01*
X142313714Y-107350500D01*
X142526286Y-107350500D01*
X142526287Y-107350500D01*
X142736243Y-107317246D01*
X142938412Y-107251557D01*
X143127816Y-107155051D01*
X143214138Y-107092335D01*
X143299786Y-107030109D01*
X143299788Y-107030106D01*
X143299792Y-107030104D01*
X143450104Y-106879792D01*
X143450106Y-106879788D01*
X143450109Y-106879786D01*
X143575048Y-106707820D01*
X143575047Y-106707820D01*
X143575051Y-106707816D01*
X143579514Y-106699054D01*
X143627488Y-106648259D01*
X143695308Y-106631463D01*
X143761444Y-106653999D01*
X143800486Y-106699056D01*
X143804951Y-106707820D01*
X143929890Y-106879786D01*
X144080213Y-107030109D01*
X144252179Y-107155048D01*
X144252181Y-107155049D01*
X144252184Y-107155051D01*
X144441588Y-107251557D01*
X144643757Y-107317246D01*
X144853713Y-107350500D01*
X144853714Y-107350500D01*
X145066286Y-107350500D01*
X145066287Y-107350500D01*
X145276243Y-107317246D01*
X145478412Y-107251557D01*
X145667816Y-107155051D01*
X145754138Y-107092335D01*
X145839786Y-107030109D01*
X145839788Y-107030106D01*
X145839792Y-107030104D01*
X145990104Y-106879792D01*
X145990106Y-106879788D01*
X145990109Y-106879786D01*
X146115048Y-106707820D01*
X146115047Y-106707820D01*
X146115051Y-106707816D01*
X146119514Y-106699054D01*
X146167488Y-106648259D01*
X146235308Y-106631463D01*
X146301444Y-106653999D01*
X146340486Y-106699056D01*
X146344951Y-106707820D01*
X146469890Y-106879786D01*
X146620213Y-107030109D01*
X146792179Y-107155048D01*
X146792181Y-107155049D01*
X146792184Y-107155051D01*
X146981588Y-107251557D01*
X147183757Y-107317246D01*
X147393713Y-107350500D01*
X147393714Y-107350500D01*
X147606286Y-107350500D01*
X147606287Y-107350500D01*
X147816243Y-107317246D01*
X148018412Y-107251557D01*
X148207816Y-107155051D01*
X148294138Y-107092335D01*
X148379786Y-107030109D01*
X148379788Y-107030106D01*
X148379792Y-107030104D01*
X148530104Y-106879792D01*
X148530106Y-106879788D01*
X148530109Y-106879786D01*
X148655048Y-106707820D01*
X148655047Y-106707820D01*
X148655051Y-106707816D01*
X148751557Y-106518412D01*
X148817246Y-106316243D01*
X148850500Y-106106287D01*
X148850500Y-105893713D01*
X151229500Y-105893713D01*
X151229500Y-106106286D01*
X151257980Y-106286105D01*
X151262754Y-106316243D01*
X151324662Y-106506776D01*
X151328444Y-106518414D01*
X151424951Y-106707820D01*
X151549890Y-106879786D01*
X151700213Y-107030109D01*
X151872179Y-107155048D01*
X151872181Y-107155049D01*
X151872184Y-107155051D01*
X152061588Y-107251557D01*
X152263757Y-107317246D01*
X152473713Y-107350500D01*
X152473714Y-107350500D01*
X152686286Y-107350500D01*
X152686287Y-107350500D01*
X152896243Y-107317246D01*
X153098412Y-107251557D01*
X153287816Y-107155051D01*
X153374138Y-107092335D01*
X153459786Y-107030109D01*
X153459788Y-107030106D01*
X153459792Y-107030104D01*
X153610104Y-106879792D01*
X153610106Y-106879788D01*
X153610109Y-106879786D01*
X153735048Y-106707820D01*
X153735047Y-106707820D01*
X153735051Y-106707816D01*
X153739514Y-106699054D01*
X153787488Y-106648259D01*
X153855308Y-106631463D01*
X153921444Y-106653999D01*
X153960486Y-106699056D01*
X153964951Y-106707820D01*
X154089890Y-106879786D01*
X154240213Y-107030109D01*
X154412179Y-107155048D01*
X154412181Y-107155049D01*
X154412184Y-107155051D01*
X154601588Y-107251557D01*
X154803757Y-107317246D01*
X155013713Y-107350500D01*
X155013714Y-107350500D01*
X155226286Y-107350500D01*
X155226287Y-107350500D01*
X155436243Y-107317246D01*
X155638412Y-107251557D01*
X155827816Y-107155051D01*
X155914138Y-107092335D01*
X155999786Y-107030109D01*
X155999788Y-107030106D01*
X155999792Y-107030104D01*
X156150104Y-106879792D01*
X156150106Y-106879788D01*
X156150109Y-106879786D01*
X156275048Y-106707820D01*
X156275047Y-106707820D01*
X156275051Y-106707816D01*
X156371557Y-106518412D01*
X156437246Y-106316243D01*
X156470500Y-106106287D01*
X156470500Y-105893713D01*
X156437246Y-105683757D01*
X156371557Y-105481588D01*
X156275051Y-105292184D01*
X156275049Y-105292181D01*
X156275048Y-105292179D01*
X156206288Y-105197538D01*
X156156283Y-105128711D01*
X160899500Y-105128711D01*
X160899500Y-105371288D01*
X160931161Y-105611785D01*
X160993947Y-105846104D01*
X161036313Y-105948384D01*
X161086776Y-106070212D01*
X161208064Y-106280289D01*
X161208066Y-106280292D01*
X161208067Y-106280293D01*
X161355733Y-106472736D01*
X161355739Y-106472743D01*
X161527256Y-106644260D01*
X161527263Y-106644266D01*
X161598667Y-106699056D01*
X161719711Y-106791936D01*
X161929788Y-106913224D01*
X162153900Y-107006054D01*
X162388211Y-107068838D01*
X162566638Y-107092328D01*
X162628711Y-107100500D01*
X162628712Y-107100500D01*
X162871289Y-107100500D01*
X162933339Y-107092331D01*
X163111789Y-107068838D01*
X163346100Y-107006054D01*
X163570212Y-106913224D01*
X163780289Y-106791936D01*
X163972738Y-106644265D01*
X164144265Y-106472738D01*
X164291936Y-106280289D01*
X164413224Y-106070212D01*
X164506054Y-105846100D01*
X164568838Y-105611789D01*
X164600500Y-105371288D01*
X164600500Y-105128712D01*
X164600499Y-105128708D01*
X164579592Y-104969896D01*
X164568838Y-104888211D01*
X164506054Y-104653900D01*
X164505624Y-104652863D01*
X164413226Y-104429794D01*
X164413224Y-104429788D01*
X164291936Y-104219711D01*
X164144265Y-104027262D01*
X164144260Y-104027256D01*
X163972743Y-103855739D01*
X163972736Y-103855733D01*
X163780293Y-103708067D01*
X163780292Y-103708066D01*
X163780289Y-103708064D01*
X163570212Y-103586776D01*
X163570205Y-103586773D01*
X163346104Y-103493947D01*
X163115603Y-103432184D01*
X163111789Y-103431162D01*
X163111788Y-103431161D01*
X163111785Y-103431161D01*
X162871289Y-103399500D01*
X162871288Y-103399500D01*
X162628712Y-103399500D01*
X162628711Y-103399500D01*
X162388214Y-103431161D01*
X162153895Y-103493947D01*
X161929794Y-103586773D01*
X161929785Y-103586777D01*
X161747851Y-103691817D01*
X161720103Y-103707838D01*
X161719706Y-103708067D01*
X161527263Y-103855733D01*
X161527256Y-103855739D01*
X161355739Y-104027256D01*
X161355733Y-104027263D01*
X161208067Y-104219706D01*
X161086777Y-104429785D01*
X161086773Y-104429794D01*
X160993947Y-104653895D01*
X160931161Y-104888214D01*
X160899500Y-105128711D01*
X156156283Y-105128711D01*
X156150109Y-105120213D01*
X155999786Y-104969890D01*
X155827820Y-104844951D01*
X155638414Y-104748444D01*
X155638413Y-104748443D01*
X155638412Y-104748443D01*
X155436243Y-104682754D01*
X155436241Y-104682753D01*
X155436240Y-104682753D01*
X155274957Y-104657208D01*
X155226287Y-104649500D01*
X155013713Y-104649500D01*
X154965042Y-104657208D01*
X154803760Y-104682753D01*
X154702672Y-104715598D01*
X154613376Y-104744613D01*
X154601585Y-104748444D01*
X154412179Y-104844951D01*
X154240213Y-104969890D01*
X154089890Y-105120213D01*
X153964949Y-105292182D01*
X153960484Y-105300946D01*
X153912509Y-105351742D01*
X153844688Y-105368536D01*
X153778553Y-105345998D01*
X153739516Y-105300946D01*
X153735050Y-105292182D01*
X153610109Y-105120213D01*
X153459786Y-104969890D01*
X153287820Y-104844951D01*
X153098414Y-104748444D01*
X153098413Y-104748443D01*
X153098412Y-104748443D01*
X152896243Y-104682754D01*
X152896241Y-104682753D01*
X152896240Y-104682753D01*
X152734957Y-104657208D01*
X152686287Y-104649500D01*
X152473713Y-104649500D01*
X152425042Y-104657208D01*
X152263760Y-104682753D01*
X152162672Y-104715598D01*
X152073376Y-104744613D01*
X152061585Y-104748444D01*
X151872179Y-104844951D01*
X151700213Y-104969890D01*
X151549890Y-105120213D01*
X151424951Y-105292179D01*
X151328444Y-105481585D01*
X151262753Y-105683760D01*
X151229500Y-105893713D01*
X148850500Y-105893713D01*
X148817246Y-105683757D01*
X148751557Y-105481588D01*
X148655051Y-105292184D01*
X148655049Y-105292181D01*
X148655048Y-105292179D01*
X148530109Y-105120213D01*
X148379786Y-104969890D01*
X148207820Y-104844951D01*
X148018414Y-104748444D01*
X148018413Y-104748443D01*
X148018412Y-104748443D01*
X147816243Y-104682754D01*
X147816241Y-104682753D01*
X147816240Y-104682753D01*
X147654957Y-104657208D01*
X147606287Y-104649500D01*
X147393713Y-104649500D01*
X147345042Y-104657208D01*
X147183760Y-104682753D01*
X147082672Y-104715598D01*
X146993376Y-104744613D01*
X146981585Y-104748444D01*
X146792179Y-104844951D01*
X146620213Y-104969890D01*
X146469890Y-105120213D01*
X146344949Y-105292182D01*
X146340484Y-105300946D01*
X146292509Y-105351742D01*
X146224688Y-105368536D01*
X146158553Y-105345998D01*
X146119516Y-105300946D01*
X146115050Y-105292182D01*
X145990109Y-105120213D01*
X145839786Y-104969890D01*
X145667820Y-104844951D01*
X145478414Y-104748444D01*
X145478413Y-104748443D01*
X145478412Y-104748443D01*
X145276243Y-104682754D01*
X145276241Y-104682753D01*
X145276240Y-104682753D01*
X145114957Y-104657208D01*
X145066287Y-104649500D01*
X144853713Y-104649500D01*
X144805042Y-104657208D01*
X144643760Y-104682753D01*
X144542672Y-104715598D01*
X144453376Y-104744613D01*
X144441585Y-104748444D01*
X144252179Y-104844951D01*
X144080213Y-104969890D01*
X143929890Y-105120213D01*
X143804949Y-105292182D01*
X143800484Y-105300946D01*
X143752509Y-105351742D01*
X143684688Y-105368536D01*
X143618553Y-105345998D01*
X143579516Y-105300946D01*
X143575050Y-105292182D01*
X143450109Y-105120213D01*
X143299790Y-104969894D01*
X143299785Y-104969890D01*
X143222614Y-104913822D01*
X143179948Y-104858492D01*
X143173969Y-104788879D01*
X143192397Y-104744613D01*
X143218060Y-104706206D01*
X143253703Y-104652863D01*
X143317816Y-104498082D01*
X143350500Y-104333767D01*
X143350500Y-104166233D01*
X143317816Y-104001918D01*
X143257266Y-103855739D01*
X143253704Y-103847139D01*
X143160626Y-103707837D01*
X143042162Y-103589373D01*
X142902860Y-103496295D01*
X142748082Y-103432184D01*
X142748074Y-103432182D01*
X142583771Y-103399500D01*
X142583767Y-103399500D01*
X142416233Y-103399500D01*
X142416228Y-103399500D01*
X142251925Y-103432182D01*
X142251917Y-103432184D01*
X142097139Y-103496295D01*
X141957837Y-103589373D01*
X141839373Y-103707837D01*
X141746295Y-103847139D01*
X141682184Y-104001917D01*
X141682182Y-104001925D01*
X141649500Y-104166228D01*
X141649500Y-104333771D01*
X141682182Y-104498074D01*
X141682184Y-104498082D01*
X141746295Y-104652859D01*
X141746300Y-104652869D01*
X141755856Y-104667170D01*
X141776734Y-104733848D01*
X141758250Y-104801228D01*
X141715334Y-104840769D01*
X141716336Y-104842404D01*
X141712184Y-104844948D01*
X141540213Y-104969890D01*
X141389890Y-105120213D01*
X141264949Y-105292182D01*
X141260484Y-105300946D01*
X141212509Y-105351742D01*
X141144688Y-105368536D01*
X141078553Y-105345998D01*
X141039516Y-105300946D01*
X141035050Y-105292182D01*
X140910109Y-105120213D01*
X140759786Y-104969890D01*
X140587820Y-104844951D01*
X140398414Y-104748444D01*
X140398413Y-104748443D01*
X140398412Y-104748443D01*
X140196243Y-104682754D01*
X140196241Y-104682753D01*
X140196240Y-104682753D01*
X140034957Y-104657208D01*
X139986287Y-104649500D01*
X139773713Y-104649500D01*
X139725042Y-104657208D01*
X139563760Y-104682753D01*
X139462672Y-104715598D01*
X139373376Y-104744613D01*
X139361585Y-104748444D01*
X139172179Y-104844951D01*
X139000215Y-104969889D01*
X138886673Y-105083431D01*
X138825350Y-105116915D01*
X138755658Y-105111931D01*
X138699725Y-105070059D01*
X138682810Y-105039082D01*
X138633797Y-104907671D01*
X138633793Y-104907664D01*
X138547547Y-104792455D01*
X138547544Y-104792452D01*
X138432335Y-104706206D01*
X138432328Y-104706202D01*
X138297482Y-104655908D01*
X138297483Y-104655908D01*
X138237883Y-104649501D01*
X138237881Y-104649500D01*
X138237873Y-104649500D01*
X138237864Y-104649500D01*
X136442129Y-104649500D01*
X136442123Y-104649501D01*
X136382516Y-104655908D01*
X136247671Y-104706202D01*
X136247664Y-104706206D01*
X136132455Y-104792452D01*
X136132452Y-104792455D01*
X136046206Y-104907664D01*
X136046202Y-104907671D01*
X135995908Y-105042517D01*
X135989501Y-105102116D01*
X135989500Y-105102135D01*
X111597002Y-105102135D01*
X111579591Y-104969889D01*
X111568838Y-104888211D01*
X111506054Y-104653900D01*
X111505624Y-104652863D01*
X111413226Y-104429794D01*
X111413224Y-104429788D01*
X111291936Y-104219711D01*
X111144265Y-104027262D01*
X111144260Y-104027256D01*
X110972743Y-103855739D01*
X110972736Y-103855733D01*
X110780293Y-103708067D01*
X110780292Y-103708066D01*
X110780289Y-103708064D01*
X110570212Y-103586776D01*
X110570205Y-103586773D01*
X110346104Y-103493947D01*
X110115603Y-103432184D01*
X110111789Y-103431162D01*
X110111788Y-103431161D01*
X110111785Y-103431161D01*
X109871289Y-103399500D01*
X109871288Y-103399500D01*
X109628712Y-103399500D01*
X109628711Y-103399500D01*
X109388214Y-103431161D01*
X109153895Y-103493947D01*
X108929794Y-103586773D01*
X108929785Y-103586777D01*
X108747851Y-103691817D01*
X108720103Y-103707838D01*
X108719706Y-103708067D01*
X108527263Y-103855733D01*
X108527256Y-103855739D01*
X108355739Y-104027256D01*
X108355733Y-104027263D01*
X108208067Y-104219706D01*
X108086777Y-104429785D01*
X108086773Y-104429794D01*
X107993947Y-104653895D01*
X107931161Y-104888214D01*
X107899500Y-105128711D01*
X106200500Y-105128711D01*
X106200500Y-103098543D01*
X134249499Y-103098543D01*
X134287947Y-103291829D01*
X134287950Y-103291839D01*
X134363364Y-103473907D01*
X134363371Y-103473920D01*
X134472860Y-103637781D01*
X134472863Y-103637785D01*
X134612214Y-103777136D01*
X134612218Y-103777139D01*
X134776079Y-103886628D01*
X134776092Y-103886635D01*
X134958160Y-103962049D01*
X134958165Y-103962051D01*
X134958169Y-103962051D01*
X134958170Y-103962052D01*
X135151456Y-104000500D01*
X135151459Y-104000500D01*
X135348543Y-104000500D01*
X135478582Y-103974632D01*
X135541835Y-103962051D01*
X135723914Y-103886632D01*
X135887782Y-103777139D01*
X136027139Y-103637782D01*
X136136632Y-103473914D01*
X136212051Y-103291835D01*
X136250500Y-103098541D01*
X136250500Y-102901459D01*
X136250500Y-102901456D01*
X136212052Y-102708170D01*
X136212051Y-102708169D01*
X136212051Y-102708165D01*
X136143291Y-102542162D01*
X136136635Y-102526092D01*
X136136628Y-102526079D01*
X136027139Y-102362218D01*
X136027136Y-102362214D01*
X135887785Y-102222863D01*
X135887781Y-102222860D01*
X135723920Y-102113371D01*
X135723907Y-102113364D01*
X135541839Y-102037950D01*
X135541829Y-102037947D01*
X135348543Y-101999500D01*
X135348541Y-101999500D01*
X135151459Y-101999500D01*
X135151457Y-101999500D01*
X134958170Y-102037947D01*
X134958160Y-102037950D01*
X134776092Y-102113364D01*
X134776079Y-102113371D01*
X134612218Y-102222860D01*
X134612214Y-102222863D01*
X134472863Y-102362214D01*
X134472860Y-102362218D01*
X134363371Y-102526079D01*
X134363364Y-102526092D01*
X134287950Y-102708160D01*
X134287947Y-102708170D01*
X134249500Y-102901456D01*
X134249500Y-102901459D01*
X134249500Y-103098541D01*
X134249500Y-103098543D01*
X134249499Y-103098543D01*
X106200500Y-103098543D01*
X106200500Y-100666228D01*
X126649500Y-100666228D01*
X126649500Y-100833771D01*
X126682182Y-100998074D01*
X126682184Y-100998082D01*
X126746295Y-101152860D01*
X126839373Y-101292162D01*
X126957837Y-101410626D01*
X127028494Y-101457837D01*
X127097137Y-101503703D01*
X127251918Y-101567816D01*
X127399326Y-101597137D01*
X127416228Y-101600499D01*
X127416232Y-101600500D01*
X127416233Y-101600500D01*
X127583768Y-101600500D01*
X127583769Y-101600499D01*
X127748082Y-101567816D01*
X127902863Y-101503703D01*
X128042162Y-101410626D01*
X128160626Y-101292162D01*
X128253703Y-101152863D01*
X128317816Y-100998082D01*
X128334098Y-100916228D01*
X145649500Y-100916228D01*
X145649500Y-101083771D01*
X145682182Y-101248074D01*
X145682184Y-101248082D01*
X145746295Y-101402860D01*
X145839373Y-101542162D01*
X145957837Y-101660626D01*
X146050494Y-101722537D01*
X146097137Y-101753703D01*
X146251918Y-101817816D01*
X146416228Y-101850499D01*
X146416232Y-101850500D01*
X146525500Y-101850500D01*
X146592539Y-101870185D01*
X146638294Y-101922989D01*
X146649500Y-101974500D01*
X146649500Y-102083771D01*
X146682182Y-102248074D01*
X146682184Y-102248082D01*
X146746295Y-102402860D01*
X146839373Y-102542162D01*
X146957837Y-102660626D01*
X147028977Y-102708160D01*
X147097137Y-102753703D01*
X147251918Y-102817816D01*
X147416228Y-102850499D01*
X147416232Y-102850500D01*
X147416233Y-102850500D01*
X147583768Y-102850500D01*
X147583769Y-102850499D01*
X147748082Y-102817816D01*
X147902863Y-102753703D01*
X148042162Y-102660626D01*
X148160626Y-102542162D01*
X148253703Y-102402863D01*
X148317816Y-102248082D01*
X148350500Y-102083767D01*
X148350500Y-101916233D01*
X148317816Y-101751918D01*
X148253703Y-101597137D01*
X148191272Y-101503703D01*
X148160626Y-101457837D01*
X148042162Y-101339373D01*
X147902860Y-101246295D01*
X147748082Y-101182184D01*
X147748074Y-101182182D01*
X147583771Y-101149500D01*
X147583767Y-101149500D01*
X147474500Y-101149500D01*
X147407461Y-101129815D01*
X147361706Y-101077011D01*
X147350500Y-101025500D01*
X147350500Y-100916232D01*
X147350499Y-100916228D01*
X147317816Y-100751918D01*
X147253703Y-100597137D01*
X147190084Y-100501925D01*
X147160626Y-100457837D01*
X147042162Y-100339373D01*
X146902860Y-100246295D01*
X146748082Y-100182184D01*
X146748074Y-100182182D01*
X146583771Y-100149500D01*
X146583767Y-100149500D01*
X146416233Y-100149500D01*
X146416228Y-100149500D01*
X146251925Y-100182182D01*
X146251917Y-100182184D01*
X146097139Y-100246295D01*
X145957837Y-100339373D01*
X145839373Y-100457837D01*
X145746295Y-100597139D01*
X145682184Y-100751917D01*
X145682182Y-100751925D01*
X145649500Y-100916228D01*
X128334098Y-100916228D01*
X128350500Y-100833767D01*
X128350500Y-100666233D01*
X128317816Y-100501918D01*
X128253703Y-100347137D01*
X128186324Y-100246297D01*
X128160626Y-100207837D01*
X128042162Y-100089373D01*
X127902860Y-99996295D01*
X127748082Y-99932184D01*
X127748074Y-99932182D01*
X127583771Y-99899500D01*
X127583767Y-99899500D01*
X127416233Y-99899500D01*
X127416228Y-99899500D01*
X127251925Y-99932182D01*
X127251917Y-99932184D01*
X127097139Y-99996295D01*
X126957837Y-100089373D01*
X126839373Y-100207837D01*
X126746295Y-100347139D01*
X126682184Y-100501917D01*
X126682182Y-100501925D01*
X126649500Y-100666228D01*
X106200500Y-100666228D01*
X106200500Y-99216228D01*
X115849500Y-99216228D01*
X115849500Y-99383771D01*
X115882182Y-99548074D01*
X115882184Y-99548082D01*
X115946295Y-99702860D01*
X116039373Y-99842162D01*
X116157837Y-99960626D01*
X116211220Y-99996295D01*
X116297137Y-100053703D01*
X116451918Y-100117816D01*
X116611206Y-100149500D01*
X116616228Y-100150499D01*
X116616232Y-100150500D01*
X116616233Y-100150500D01*
X116783768Y-100150500D01*
X116783769Y-100150499D01*
X116948082Y-100117816D01*
X117102863Y-100053703D01*
X117242162Y-99960626D01*
X117360626Y-99842162D01*
X117453703Y-99702863D01*
X117517816Y-99548082D01*
X117550500Y-99383767D01*
X117550500Y-99216233D01*
X117517816Y-99051918D01*
X117453703Y-98897137D01*
X117373521Y-98777136D01*
X117360626Y-98757837D01*
X117242162Y-98639373D01*
X117102860Y-98546295D01*
X116948082Y-98482184D01*
X116948074Y-98482182D01*
X116783771Y-98449500D01*
X116783767Y-98449500D01*
X116616233Y-98449500D01*
X116616228Y-98449500D01*
X116451925Y-98482182D01*
X116451917Y-98482184D01*
X116297139Y-98546295D01*
X116157837Y-98639373D01*
X116039373Y-98757837D01*
X115946295Y-98897139D01*
X115882184Y-99051917D01*
X115882182Y-99051925D01*
X115849500Y-99216228D01*
X106200500Y-99216228D01*
X106200500Y-97666228D01*
X126649500Y-97666228D01*
X126649500Y-97833771D01*
X126682182Y-97998074D01*
X126682184Y-97998082D01*
X126746295Y-98152860D01*
X126839373Y-98292162D01*
X126957837Y-98410626D01*
X127050494Y-98472537D01*
X127097137Y-98503703D01*
X127251918Y-98567816D01*
X127412714Y-98599800D01*
X127416228Y-98600499D01*
X127416232Y-98600500D01*
X127416233Y-98600500D01*
X127583768Y-98600500D01*
X127583769Y-98600499D01*
X127748082Y-98567816D01*
X127902863Y-98503703D01*
X128042162Y-98410626D01*
X128160626Y-98292162D01*
X128253703Y-98152863D01*
X128317816Y-97998082D01*
X128350500Y-97833767D01*
X128350500Y-97666233D01*
X128317816Y-97501918D01*
X128253703Y-97347137D01*
X128215859Y-97290500D01*
X128160626Y-97207837D01*
X128042162Y-97089373D01*
X127902860Y-96996295D01*
X127748082Y-96932184D01*
X127748074Y-96932182D01*
X127583771Y-96899500D01*
X127583767Y-96899500D01*
X127416233Y-96899500D01*
X127416228Y-96899500D01*
X127251925Y-96932182D01*
X127251917Y-96932184D01*
X127097139Y-96996295D01*
X126957837Y-97089373D01*
X126839373Y-97207837D01*
X126746295Y-97347139D01*
X126682184Y-97501917D01*
X126682182Y-97501925D01*
X126649500Y-97666228D01*
X106200500Y-97666228D01*
X106200500Y-90861577D01*
X107189500Y-90861577D01*
X107189500Y-91058422D01*
X107220290Y-91252826D01*
X107281117Y-91440029D01*
X107366616Y-91607829D01*
X107370476Y-91615405D01*
X107486172Y-91774646D01*
X107625354Y-91913828D01*
X107784595Y-92029524D01*
X107856653Y-92066239D01*
X107961213Y-92119515D01*
X108012009Y-92167489D01*
X108028804Y-92235310D01*
X108006267Y-92301445D01*
X107961213Y-92340485D01*
X107784594Y-92430476D01*
X107743148Y-92460589D01*
X107625354Y-92546172D01*
X107625352Y-92546174D01*
X107625351Y-92546174D01*
X107486174Y-92685351D01*
X107486174Y-92685352D01*
X107486172Y-92685354D01*
X107437811Y-92751917D01*
X107370476Y-92844594D01*
X107281117Y-93019970D01*
X107220290Y-93207173D01*
X107189500Y-93401577D01*
X107189500Y-93598422D01*
X107220290Y-93792826D01*
X107281117Y-93980029D01*
X107370476Y-94155405D01*
X107486172Y-94314646D01*
X107625354Y-94453828D01*
X107784595Y-94569524D01*
X107907992Y-94632397D01*
X107961213Y-94659515D01*
X108012009Y-94707489D01*
X108028804Y-94775310D01*
X108006267Y-94841445D01*
X107961213Y-94880485D01*
X107784594Y-94970476D01*
X107710238Y-95024500D01*
X107625354Y-95086172D01*
X107625352Y-95086174D01*
X107625351Y-95086174D01*
X107486174Y-95225351D01*
X107486174Y-95225352D01*
X107486172Y-95225354D01*
X107436485Y-95293741D01*
X107370476Y-95384594D01*
X107281117Y-95559970D01*
X107220290Y-95747173D01*
X107189500Y-95941577D01*
X107189500Y-96138422D01*
X107220290Y-96332826D01*
X107281117Y-96520029D01*
X107355612Y-96666232D01*
X107370476Y-96695405D01*
X107486172Y-96854646D01*
X107625354Y-96993828D01*
X107784595Y-97109524D01*
X107867455Y-97151743D01*
X107959970Y-97198882D01*
X107959972Y-97198882D01*
X107959975Y-97198884D01*
X108052764Y-97229033D01*
X108147173Y-97259709D01*
X108341578Y-97290500D01*
X108341583Y-97290500D01*
X108538422Y-97290500D01*
X108732826Y-97259709D01*
X108762707Y-97250000D01*
X108920025Y-97198884D01*
X109095405Y-97109524D01*
X109254646Y-96993828D01*
X109393828Y-96854646D01*
X109509524Y-96695405D01*
X109598884Y-96520025D01*
X109659709Y-96332826D01*
X109670256Y-96266233D01*
X109690500Y-96138422D01*
X109690500Y-95941577D01*
X109659709Y-95747173D01*
X109631487Y-95660317D01*
X109598884Y-95559975D01*
X109598882Y-95559972D01*
X109598882Y-95559970D01*
X109551743Y-95467455D01*
X109509524Y-95384595D01*
X109393828Y-95225354D01*
X109254646Y-95086172D01*
X109169762Y-95024500D01*
X109095403Y-94970474D01*
X108918787Y-94880485D01*
X108867990Y-94832511D01*
X108851195Y-94764690D01*
X108873732Y-94698555D01*
X108918787Y-94659515D01*
X109095403Y-94569525D01*
X109095402Y-94569525D01*
X109095405Y-94569524D01*
X109254646Y-94453828D01*
X109393828Y-94314646D01*
X109509524Y-94155405D01*
X109598884Y-93980025D01*
X109659709Y-93792826D01*
X109665905Y-93753704D01*
X109690500Y-93598422D01*
X109690500Y-93401577D01*
X109659709Y-93207173D01*
X109598882Y-93019970D01*
X109509523Y-92844594D01*
X109393828Y-92685354D01*
X109254646Y-92546172D01*
X109136852Y-92460589D01*
X109095403Y-92430474D01*
X108918787Y-92340485D01*
X108867990Y-92292511D01*
X108851195Y-92224690D01*
X108873732Y-92158555D01*
X108918787Y-92119515D01*
X109095403Y-92029525D01*
X109095402Y-92029525D01*
X109095405Y-92029524D01*
X109254646Y-91913828D01*
X109393828Y-91774646D01*
X109509524Y-91615405D01*
X109598884Y-91440025D01*
X109659709Y-91252826D01*
X109666834Y-91207838D01*
X109690500Y-91058422D01*
X109690500Y-90861577D01*
X114809500Y-90861577D01*
X114809500Y-91058422D01*
X114840290Y-91252826D01*
X114901117Y-91440029D01*
X114986616Y-91607829D01*
X114990476Y-91615405D01*
X115106172Y-91774646D01*
X115245354Y-91913828D01*
X115404595Y-92029524D01*
X115476653Y-92066239D01*
X115581213Y-92119515D01*
X115632009Y-92167489D01*
X115648804Y-92235310D01*
X115626267Y-92301445D01*
X115581213Y-92340485D01*
X115404594Y-92430476D01*
X115363148Y-92460589D01*
X115245354Y-92546172D01*
X115245352Y-92546174D01*
X115245351Y-92546174D01*
X115106174Y-92685351D01*
X115106174Y-92685352D01*
X115106172Y-92685354D01*
X115057811Y-92751917D01*
X114990476Y-92844594D01*
X114901117Y-93019970D01*
X114840290Y-93207173D01*
X114809500Y-93401577D01*
X114809500Y-93598422D01*
X114840290Y-93792826D01*
X114901117Y-93980029D01*
X114990476Y-94155405D01*
X115106172Y-94314646D01*
X115245354Y-94453828D01*
X115404595Y-94569524D01*
X115527992Y-94632397D01*
X115581213Y-94659515D01*
X115632009Y-94707489D01*
X115648804Y-94775310D01*
X115626267Y-94841445D01*
X115581213Y-94880485D01*
X115404594Y-94970476D01*
X115330238Y-95024500D01*
X115245354Y-95086172D01*
X115245352Y-95086174D01*
X115245351Y-95086174D01*
X115106174Y-95225351D01*
X115106174Y-95225352D01*
X115106172Y-95225354D01*
X115056485Y-95293741D01*
X114990476Y-95384594D01*
X114901117Y-95559970D01*
X114840290Y-95747173D01*
X114809500Y-95941577D01*
X114809500Y-96138422D01*
X114840290Y-96332826D01*
X114901117Y-96520029D01*
X114975612Y-96666232D01*
X114990476Y-96695405D01*
X115106172Y-96854646D01*
X115245354Y-96993828D01*
X115404595Y-97109524D01*
X115487455Y-97151743D01*
X115579970Y-97198882D01*
X115579972Y-97198882D01*
X115579975Y-97198884D01*
X115672764Y-97229033D01*
X115767173Y-97259709D01*
X115961578Y-97290500D01*
X115961583Y-97290500D01*
X116158422Y-97290500D01*
X116352826Y-97259709D01*
X116382707Y-97250000D01*
X116540025Y-97198884D01*
X116715405Y-97109524D01*
X116874646Y-96993828D01*
X117013828Y-96854646D01*
X117129524Y-96695405D01*
X117144390Y-96666228D01*
X141399500Y-96666228D01*
X141399500Y-96833771D01*
X141432182Y-96998074D01*
X141432184Y-96998082D01*
X141496295Y-97152859D01*
X141496302Y-97152872D01*
X141515170Y-97181111D01*
X141536047Y-97247789D01*
X141517561Y-97315168D01*
X141515170Y-97318889D01*
X141496302Y-97347127D01*
X141496295Y-97347140D01*
X141432184Y-97501917D01*
X141432182Y-97501925D01*
X141399500Y-97666228D01*
X141399500Y-97833771D01*
X141432182Y-97998074D01*
X141432184Y-97998082D01*
X141496295Y-98152859D01*
X141496302Y-98152872D01*
X141515170Y-98181111D01*
X141536047Y-98247789D01*
X141517561Y-98315168D01*
X141515170Y-98318889D01*
X141496302Y-98347127D01*
X141496295Y-98347140D01*
X141432184Y-98501917D01*
X141432182Y-98501925D01*
X141399500Y-98666228D01*
X141399500Y-98833771D01*
X141432182Y-98998074D01*
X141432184Y-98998082D01*
X141496295Y-99152860D01*
X141589373Y-99292162D01*
X141707837Y-99410626D01*
X141800494Y-99472537D01*
X141847137Y-99503703D01*
X142001918Y-99567816D01*
X142166228Y-99600499D01*
X142166232Y-99600500D01*
X142166233Y-99600500D01*
X142333768Y-99600500D01*
X142333769Y-99600499D01*
X142498082Y-99567816D01*
X142652863Y-99503703D01*
X142792162Y-99410626D01*
X142910626Y-99292162D01*
X143003703Y-99152863D01*
X143067816Y-98998082D01*
X143100500Y-98833767D01*
X143100500Y-98666233D01*
X143067816Y-98501918D01*
X143003703Y-98347137D01*
X142984828Y-98318889D01*
X142963951Y-98252214D01*
X142982435Y-98184834D01*
X142984829Y-98181109D01*
X143003703Y-98152863D01*
X143067816Y-97998082D01*
X143100500Y-97833767D01*
X143100500Y-97666233D01*
X143067816Y-97501918D01*
X143003703Y-97347137D01*
X142984828Y-97318889D01*
X142963951Y-97252214D01*
X142982435Y-97184834D01*
X142984829Y-97181109D01*
X143003703Y-97152863D01*
X143067816Y-96998082D01*
X143100500Y-96833767D01*
X143100500Y-96666233D01*
X143100499Y-96666228D01*
X145899500Y-96666228D01*
X145899500Y-96833771D01*
X145932182Y-96998074D01*
X145932184Y-96998082D01*
X145996295Y-97152860D01*
X146089373Y-97292162D01*
X146207837Y-97410626D01*
X146300494Y-97472537D01*
X146347137Y-97503703D01*
X146501918Y-97567816D01*
X146549692Y-97577318D01*
X146611600Y-97609701D01*
X146646176Y-97670416D01*
X146649500Y-97698935D01*
X146649500Y-97833771D01*
X146682182Y-97998074D01*
X146682184Y-97998082D01*
X146746295Y-98152860D01*
X146839373Y-98292162D01*
X146957837Y-98410626D01*
X147050494Y-98472537D01*
X147097137Y-98503703D01*
X147251918Y-98567816D01*
X147299692Y-98577318D01*
X147361600Y-98609701D01*
X147396176Y-98670416D01*
X147399500Y-98698935D01*
X147399500Y-98833771D01*
X147432182Y-98998074D01*
X147432184Y-98998082D01*
X147496295Y-99152860D01*
X147589373Y-99292162D01*
X147707837Y-99410626D01*
X147800494Y-99472537D01*
X147847137Y-99503703D01*
X148001918Y-99567816D01*
X148166228Y-99600499D01*
X148166232Y-99600500D01*
X148166233Y-99600500D01*
X148333768Y-99600500D01*
X148333769Y-99600499D01*
X148498082Y-99567816D01*
X148652863Y-99503703D01*
X148792162Y-99410626D01*
X148910626Y-99292162D01*
X149003703Y-99152863D01*
X149067816Y-98998082D01*
X149100500Y-98833767D01*
X149100500Y-98666233D01*
X149067816Y-98501918D01*
X149003703Y-98347137D01*
X148966747Y-98291829D01*
X148910626Y-98207837D01*
X148792162Y-98089373D01*
X148652860Y-97996295D01*
X148498082Y-97932184D01*
X148498077Y-97932182D01*
X148450307Y-97922680D01*
X148388396Y-97890294D01*
X148353823Y-97829578D01*
X148350500Y-97801063D01*
X148350500Y-97666232D01*
X148350499Y-97666228D01*
X148337286Y-97599800D01*
X148317816Y-97501918D01*
X148253703Y-97347137D01*
X148244770Y-97333768D01*
X148174791Y-97229036D01*
X148174788Y-97229033D01*
X148160623Y-97207834D01*
X148119017Y-97166228D01*
X149149500Y-97166228D01*
X149149500Y-97333771D01*
X149182182Y-97498074D01*
X149182184Y-97498082D01*
X149246295Y-97652860D01*
X149339373Y-97792162D01*
X149457837Y-97910626D01*
X149550494Y-97972537D01*
X149597137Y-98003703D01*
X149751918Y-98067816D01*
X149916228Y-98100499D01*
X149916232Y-98100500D01*
X149916233Y-98100500D01*
X150083768Y-98100500D01*
X150083769Y-98100499D01*
X150093603Y-98098543D01*
X162499499Y-98098543D01*
X162537947Y-98291829D01*
X162537950Y-98291839D01*
X162613364Y-98473907D01*
X162613371Y-98473920D01*
X162722860Y-98637781D01*
X162722863Y-98637785D01*
X162862214Y-98777136D01*
X162862218Y-98777139D01*
X163026079Y-98886628D01*
X163026092Y-98886635D01*
X163208160Y-98962049D01*
X163208165Y-98962051D01*
X163208169Y-98962051D01*
X163208170Y-98962052D01*
X163401456Y-99000500D01*
X163401459Y-99000500D01*
X163598543Y-99000500D01*
X163728582Y-98974632D01*
X163791835Y-98962051D01*
X163948548Y-98897139D01*
X163973907Y-98886635D01*
X163973907Y-98886634D01*
X163973914Y-98886632D01*
X164137782Y-98777139D01*
X164277139Y-98637782D01*
X164386632Y-98473914D01*
X164462051Y-98291835D01*
X164489695Y-98152860D01*
X164500500Y-98098543D01*
X164500500Y-97901456D01*
X164462052Y-97708170D01*
X164462051Y-97708169D01*
X164462051Y-97708165D01*
X164446415Y-97670416D01*
X164386635Y-97526092D01*
X164386628Y-97526079D01*
X164277139Y-97362218D01*
X164277136Y-97362214D01*
X164137785Y-97222863D01*
X164137781Y-97222860D01*
X163973920Y-97113371D01*
X163973907Y-97113364D01*
X163791839Y-97037950D01*
X163791829Y-97037947D01*
X163598543Y-96999500D01*
X163598541Y-96999500D01*
X163401459Y-96999500D01*
X163401457Y-96999500D01*
X163208170Y-97037947D01*
X163208160Y-97037950D01*
X163026092Y-97113364D01*
X163026079Y-97113371D01*
X162862218Y-97222860D01*
X162862214Y-97222863D01*
X162722863Y-97362214D01*
X162722860Y-97362218D01*
X162613371Y-97526079D01*
X162613364Y-97526092D01*
X162537950Y-97708160D01*
X162537947Y-97708170D01*
X162499500Y-97901456D01*
X162499500Y-97901459D01*
X162499500Y-98098541D01*
X162499500Y-98098543D01*
X162499499Y-98098543D01*
X150093603Y-98098543D01*
X150248082Y-98067816D01*
X150402863Y-98003703D01*
X150542162Y-97910626D01*
X150562494Y-97890294D01*
X150645103Y-97807686D01*
X150660623Y-97792165D01*
X150660626Y-97792162D01*
X150753703Y-97652863D01*
X150817816Y-97498082D01*
X150850500Y-97333767D01*
X150850500Y-97166233D01*
X150817816Y-97001918D01*
X150753703Y-96847137D01*
X150690709Y-96752860D01*
X150660626Y-96707837D01*
X150542162Y-96589373D01*
X150402860Y-96496295D01*
X150248082Y-96432184D01*
X150248074Y-96432182D01*
X150083771Y-96399500D01*
X150083767Y-96399500D01*
X149916233Y-96399500D01*
X149916228Y-96399500D01*
X149751925Y-96432182D01*
X149751917Y-96432184D01*
X149597139Y-96496295D01*
X149457837Y-96589373D01*
X149339373Y-96707837D01*
X149246295Y-96847139D01*
X149182184Y-97001917D01*
X149182182Y-97001925D01*
X149149500Y-97166228D01*
X148119017Y-97166228D01*
X148042162Y-97089373D01*
X147902860Y-96996295D01*
X147748082Y-96932184D01*
X147748077Y-96932182D01*
X147700307Y-96922680D01*
X147638396Y-96890294D01*
X147603823Y-96829578D01*
X147600500Y-96801063D01*
X147600500Y-96666232D01*
X147600499Y-96666228D01*
X147588091Y-96603847D01*
X147567816Y-96501918D01*
X147503703Y-96347137D01*
X147494772Y-96333771D01*
X147424791Y-96229036D01*
X147424788Y-96229033D01*
X147410623Y-96207834D01*
X147369017Y-96166228D01*
X151449500Y-96166228D01*
X151449500Y-96333771D01*
X151482182Y-96498074D01*
X151482184Y-96498082D01*
X151546295Y-96652860D01*
X151639373Y-96792162D01*
X151757837Y-96910626D01*
X151796188Y-96936251D01*
X151897137Y-97003703D01*
X152051918Y-97067816D01*
X152216228Y-97100499D01*
X152216232Y-97100500D01*
X152216233Y-97100500D01*
X152383768Y-97100500D01*
X152383769Y-97100499D01*
X152548082Y-97067816D01*
X152702863Y-97003703D01*
X152826891Y-96920829D01*
X152893567Y-96899952D01*
X152960948Y-96918436D01*
X152983462Y-96936251D01*
X153057837Y-97010626D01*
X153143430Y-97067817D01*
X153197137Y-97103703D01*
X153197138Y-97103703D01*
X153197139Y-97103704D01*
X153211190Y-97109524D01*
X153351918Y-97167816D01*
X153508099Y-97198882D01*
X153516228Y-97200499D01*
X153516232Y-97200500D01*
X153516233Y-97200500D01*
X153683768Y-97200500D01*
X153683769Y-97200499D01*
X153848082Y-97167816D01*
X154002863Y-97103703D01*
X154142162Y-97010626D01*
X154260626Y-96892162D01*
X154353703Y-96752863D01*
X154417816Y-96598082D01*
X154450500Y-96433767D01*
X154450500Y-96266233D01*
X154417816Y-96101918D01*
X154353703Y-95947137D01*
X154286886Y-95847139D01*
X154260629Y-95807842D01*
X154260623Y-95807834D01*
X154244017Y-95791228D01*
X161274500Y-95791228D01*
X161274500Y-95958771D01*
X161307182Y-96123074D01*
X161307184Y-96123082D01*
X161371295Y-96277860D01*
X161464373Y-96417162D01*
X161582837Y-96535626D01*
X161663276Y-96589373D01*
X161722137Y-96628703D01*
X161876918Y-96692816D01*
X162041228Y-96725499D01*
X162041232Y-96725500D01*
X162041233Y-96725500D01*
X162208768Y-96725500D01*
X162208769Y-96725499D01*
X162373082Y-96692816D01*
X162527863Y-96628703D01*
X162667162Y-96535626D01*
X162785626Y-96417162D01*
X162878703Y-96277863D01*
X162942816Y-96123082D01*
X162975500Y-95958767D01*
X162975500Y-95791233D01*
X162942816Y-95626918D01*
X162890037Y-95499500D01*
X162878704Y-95472139D01*
X162785626Y-95332837D01*
X162667162Y-95214373D01*
X162527860Y-95121295D01*
X162373082Y-95057184D01*
X162373074Y-95057182D01*
X162208771Y-95024500D01*
X162208767Y-95024500D01*
X162041233Y-95024500D01*
X162041228Y-95024500D01*
X161876925Y-95057182D01*
X161876917Y-95057184D01*
X161722139Y-95121295D01*
X161582837Y-95214373D01*
X161464373Y-95332837D01*
X161371295Y-95472139D01*
X161307184Y-95626917D01*
X161307182Y-95626925D01*
X161274500Y-95791228D01*
X154244017Y-95791228D01*
X154142162Y-95689373D01*
X154002860Y-95596295D01*
X153848082Y-95532184D01*
X153848074Y-95532182D01*
X153683771Y-95499500D01*
X153683767Y-95499500D01*
X153516233Y-95499500D01*
X153516228Y-95499500D01*
X153351925Y-95532182D01*
X153351917Y-95532184D01*
X153197140Y-95596295D01*
X153073108Y-95679170D01*
X153006430Y-95700047D01*
X152939050Y-95681562D01*
X152916537Y-95663748D01*
X152842162Y-95589373D01*
X152702860Y-95496295D01*
X152548082Y-95432184D01*
X152548074Y-95432182D01*
X152383771Y-95399500D01*
X152383767Y-95399500D01*
X152216233Y-95399500D01*
X152216228Y-95399500D01*
X152051925Y-95432182D01*
X152051917Y-95432184D01*
X151897139Y-95496295D01*
X151757837Y-95589373D01*
X151639373Y-95707837D01*
X151546295Y-95847139D01*
X151482184Y-96001917D01*
X151482182Y-96001925D01*
X151449500Y-96166228D01*
X147369017Y-96166228D01*
X147292162Y-96089373D01*
X147152860Y-95996295D01*
X146998082Y-95932184D01*
X146998074Y-95932182D01*
X146833771Y-95899500D01*
X146833767Y-95899500D01*
X146666233Y-95899500D01*
X146666228Y-95899500D01*
X146501925Y-95932182D01*
X146501917Y-95932184D01*
X146347139Y-95996295D01*
X146207837Y-96089373D01*
X146089373Y-96207837D01*
X145996295Y-96347139D01*
X145932184Y-96501917D01*
X145932182Y-96501925D01*
X145899500Y-96666228D01*
X143100499Y-96666228D01*
X143067816Y-96501918D01*
X143003703Y-96347137D01*
X142972537Y-96300494D01*
X142910626Y-96207837D01*
X142792162Y-96089373D01*
X142652860Y-95996295D01*
X142498082Y-95932184D01*
X142498074Y-95932182D01*
X142333771Y-95899500D01*
X142333767Y-95899500D01*
X142166233Y-95899500D01*
X142166228Y-95899500D01*
X142001925Y-95932182D01*
X142001917Y-95932184D01*
X141847139Y-95996295D01*
X141707837Y-96089373D01*
X141589373Y-96207837D01*
X141496295Y-96347139D01*
X141432184Y-96501917D01*
X141432182Y-96501925D01*
X141399500Y-96666228D01*
X117144390Y-96666228D01*
X117218884Y-96520025D01*
X117279709Y-96332826D01*
X117290256Y-96266233D01*
X117310500Y-96138422D01*
X117310500Y-95941577D01*
X117279709Y-95747173D01*
X117251487Y-95660317D01*
X117218884Y-95559975D01*
X117218882Y-95559972D01*
X117218882Y-95559970D01*
X117171743Y-95467455D01*
X117129524Y-95384595D01*
X117013828Y-95225354D01*
X116874646Y-95086172D01*
X116789762Y-95024500D01*
X116715403Y-94970474D01*
X116538787Y-94880485D01*
X116487990Y-94832511D01*
X116471195Y-94764690D01*
X116493732Y-94698555D01*
X116538787Y-94659515D01*
X116715403Y-94569525D01*
X116715402Y-94569525D01*
X116715405Y-94569524D01*
X116874646Y-94453828D01*
X117013828Y-94314646D01*
X117129524Y-94155405D01*
X117218884Y-93980025D01*
X117239613Y-93916228D01*
X136149500Y-93916228D01*
X136149500Y-94083771D01*
X136182182Y-94248074D01*
X136182184Y-94248082D01*
X136246295Y-94402860D01*
X136339373Y-94542162D01*
X136457837Y-94660626D01*
X136527973Y-94707489D01*
X136597137Y-94753703D01*
X136751918Y-94817816D01*
X136916228Y-94850499D01*
X136916232Y-94850500D01*
X136916233Y-94850500D01*
X137083768Y-94850500D01*
X137083769Y-94850499D01*
X137248082Y-94817816D01*
X137402863Y-94753703D01*
X137542162Y-94660626D01*
X137660626Y-94542162D01*
X137753703Y-94402863D01*
X137817816Y-94248082D01*
X137850500Y-94083767D01*
X137850500Y-93916233D01*
X137850499Y-93916228D01*
X141149500Y-93916228D01*
X141149500Y-94083771D01*
X141182182Y-94248074D01*
X141182184Y-94248082D01*
X141246295Y-94402860D01*
X141339373Y-94542162D01*
X141457837Y-94660626D01*
X141527973Y-94707489D01*
X141597137Y-94753703D01*
X141751918Y-94817816D01*
X141916228Y-94850499D01*
X141916232Y-94850500D01*
X141916233Y-94850500D01*
X142083768Y-94850500D01*
X142083769Y-94850499D01*
X142248082Y-94817816D01*
X142402863Y-94753703D01*
X142542162Y-94660626D01*
X142660626Y-94542162D01*
X142753703Y-94402863D01*
X142817816Y-94248082D01*
X142850500Y-94083767D01*
X142850500Y-93916233D01*
X142817816Y-93751918D01*
X142758018Y-93607554D01*
X142753704Y-93597139D01*
X142660626Y-93457837D01*
X142542162Y-93339373D01*
X142402860Y-93246295D01*
X142248082Y-93182184D01*
X142248074Y-93182182D01*
X142083771Y-93149500D01*
X142083767Y-93149500D01*
X141916233Y-93149500D01*
X141916228Y-93149500D01*
X141751925Y-93182182D01*
X141751917Y-93182184D01*
X141597139Y-93246295D01*
X141457837Y-93339373D01*
X141339373Y-93457837D01*
X141246295Y-93597139D01*
X141182184Y-93751917D01*
X141182182Y-93751925D01*
X141149500Y-93916228D01*
X137850499Y-93916228D01*
X137817816Y-93751918D01*
X137758018Y-93607554D01*
X137753704Y-93597139D01*
X137660626Y-93457837D01*
X137542162Y-93339373D01*
X137402860Y-93246295D01*
X137248082Y-93182184D01*
X137248074Y-93182182D01*
X137083771Y-93149500D01*
X137083767Y-93149500D01*
X136916233Y-93149500D01*
X136916228Y-93149500D01*
X136751925Y-93182182D01*
X136751917Y-93182184D01*
X136597139Y-93246295D01*
X136457837Y-93339373D01*
X136339373Y-93457837D01*
X136246295Y-93597139D01*
X136182184Y-93751917D01*
X136182182Y-93751925D01*
X136149500Y-93916228D01*
X117239613Y-93916228D01*
X117279709Y-93792826D01*
X117285905Y-93753704D01*
X117310500Y-93598422D01*
X117310500Y-93401577D01*
X117279709Y-93207173D01*
X117218882Y-93019970D01*
X117129523Y-92844594D01*
X117013828Y-92685354D01*
X116967922Y-92639448D01*
X124599500Y-92639448D01*
X124599500Y-92820551D01*
X124627829Y-92999410D01*
X124683787Y-93171636D01*
X124683788Y-93171639D01*
X124766006Y-93332997D01*
X124872441Y-93479494D01*
X124872445Y-93479499D01*
X125000500Y-93607554D01*
X125000505Y-93607558D01*
X125073548Y-93660626D01*
X125147006Y-93713996D01*
X125224935Y-93753703D01*
X125308360Y-93796211D01*
X125308363Y-93796212D01*
X125394476Y-93824191D01*
X125480591Y-93852171D01*
X125563429Y-93865291D01*
X125659449Y-93880500D01*
X125659454Y-93880500D01*
X125840551Y-93880500D01*
X125927259Y-93866765D01*
X126019409Y-93852171D01*
X126191639Y-93796211D01*
X126352994Y-93713996D01*
X126499501Y-93607553D01*
X126627553Y-93479501D01*
X126733996Y-93332994D01*
X126816211Y-93171639D01*
X126872171Y-92999409D01*
X126885346Y-92916228D01*
X143149500Y-92916228D01*
X143149500Y-93083771D01*
X143182182Y-93248074D01*
X143182184Y-93248082D01*
X143246295Y-93402860D01*
X143339373Y-93542162D01*
X143457837Y-93660626D01*
X143550494Y-93722537D01*
X143597137Y-93753703D01*
X143751918Y-93817816D01*
X143916228Y-93850499D01*
X143916232Y-93850500D01*
X143916233Y-93850500D01*
X144083768Y-93850500D01*
X144083769Y-93850499D01*
X144248082Y-93817816D01*
X144402863Y-93753703D01*
X144542162Y-93660626D01*
X144660626Y-93542162D01*
X144753703Y-93402863D01*
X144817816Y-93248082D01*
X144850500Y-93083767D01*
X144850500Y-92916233D01*
X144817816Y-92751918D01*
X144753703Y-92597137D01*
X144722537Y-92550494D01*
X144660626Y-92457837D01*
X144542162Y-92339373D01*
X144402860Y-92246295D01*
X144248082Y-92182184D01*
X144248074Y-92182182D01*
X144083771Y-92149500D01*
X144083767Y-92149500D01*
X143916233Y-92149500D01*
X143916228Y-92149500D01*
X143751925Y-92182182D01*
X143751917Y-92182184D01*
X143597139Y-92246295D01*
X143457837Y-92339373D01*
X143339373Y-92457837D01*
X143246295Y-92597139D01*
X143182184Y-92751917D01*
X143182182Y-92751925D01*
X143149500Y-92916228D01*
X126885346Y-92916228D01*
X126887116Y-92905051D01*
X126889383Y-92890742D01*
X126889383Y-92890740D01*
X126900500Y-92820552D01*
X126900500Y-92639448D01*
X126878999Y-92503703D01*
X126872171Y-92460591D01*
X126820462Y-92301445D01*
X126816212Y-92288363D01*
X126816211Y-92288360D01*
X126783769Y-92224690D01*
X126733996Y-92127006D01*
X126708638Y-92092104D01*
X126627558Y-91980505D01*
X126627554Y-91980500D01*
X126499499Y-91852445D01*
X126499494Y-91852441D01*
X126352997Y-91746006D01*
X126352996Y-91746005D01*
X126352994Y-91746004D01*
X126301300Y-91719664D01*
X126191639Y-91663788D01*
X126191636Y-91663787D01*
X126019410Y-91607829D01*
X125840551Y-91579500D01*
X125840546Y-91579500D01*
X125659454Y-91579500D01*
X125659449Y-91579500D01*
X125480589Y-91607829D01*
X125308363Y-91663787D01*
X125308360Y-91663788D01*
X125147002Y-91746006D01*
X125000505Y-91852441D01*
X125000500Y-91852445D01*
X124872445Y-91980500D01*
X124872441Y-91980505D01*
X124766006Y-92127002D01*
X124683788Y-92288360D01*
X124683787Y-92288363D01*
X124627829Y-92460589D01*
X124599500Y-92639448D01*
X116967922Y-92639448D01*
X116874646Y-92546172D01*
X116756852Y-92460589D01*
X116715403Y-92430474D01*
X116538787Y-92340485D01*
X116487990Y-92292511D01*
X116471195Y-92224690D01*
X116493732Y-92158555D01*
X116538787Y-92119515D01*
X116715403Y-92029525D01*
X116715402Y-92029525D01*
X116715405Y-92029524D01*
X116874646Y-91913828D01*
X117013828Y-91774646D01*
X117129524Y-91615405D01*
X117218884Y-91440025D01*
X117279709Y-91252826D01*
X117286834Y-91207838D01*
X117310500Y-91058422D01*
X117310500Y-90916228D01*
X138549500Y-90916228D01*
X138549500Y-91083771D01*
X138582182Y-91248074D01*
X138582184Y-91248082D01*
X138646295Y-91402860D01*
X138739373Y-91542162D01*
X138857837Y-91660626D01*
X138866229Y-91666233D01*
X138997137Y-91753703D01*
X139151918Y-91817816D01*
X139316228Y-91850499D01*
X139316232Y-91850500D01*
X139316233Y-91850500D01*
X139483768Y-91850500D01*
X139483769Y-91850499D01*
X139648082Y-91817816D01*
X139802863Y-91753703D01*
X139933778Y-91666228D01*
X156649500Y-91666228D01*
X156649500Y-91833771D01*
X156682182Y-91998074D01*
X156682184Y-91998082D01*
X156746295Y-92152860D01*
X156839373Y-92292162D01*
X156957837Y-92410626D01*
X157050494Y-92472537D01*
X157097137Y-92503703D01*
X157251918Y-92567816D01*
X157399326Y-92597137D01*
X157416228Y-92600499D01*
X157416232Y-92600500D01*
X157416233Y-92600500D01*
X157583768Y-92600500D01*
X157583769Y-92600499D01*
X157748082Y-92567816D01*
X157902863Y-92503703D01*
X158042162Y-92410626D01*
X158160626Y-92292162D01*
X158215191Y-92210500D01*
X158257088Y-92147798D01*
X158259294Y-92149272D01*
X158300147Y-92107618D01*
X158368272Y-92092104D01*
X158384808Y-92094249D01*
X158416233Y-92100500D01*
X158416234Y-92100500D01*
X158583768Y-92100500D01*
X158583769Y-92100499D01*
X158748082Y-92067816D01*
X158902863Y-92003703D01*
X158985952Y-91948184D01*
X159052625Y-91927308D01*
X159120005Y-91945792D01*
X159166696Y-91997771D01*
X159177312Y-92031887D01*
X159181455Y-92058045D01*
X159182754Y-92066243D01*
X159241257Y-92246297D01*
X159248444Y-92268414D01*
X159344951Y-92457820D01*
X159469890Y-92629786D01*
X159620213Y-92780109D01*
X159792179Y-92905048D01*
X159792181Y-92905049D01*
X159792184Y-92905051D01*
X159981588Y-93001557D01*
X160183757Y-93067246D01*
X160393713Y-93100500D01*
X160393714Y-93100500D01*
X160606286Y-93100500D01*
X160606287Y-93100500D01*
X160816243Y-93067246D01*
X161018412Y-93001557D01*
X161207816Y-92905051D01*
X161324120Y-92820552D01*
X161379786Y-92780109D01*
X161379788Y-92780106D01*
X161379792Y-92780104D01*
X161530104Y-92629792D01*
X161530106Y-92629788D01*
X161530109Y-92629786D01*
X161655048Y-92457820D01*
X161655047Y-92457820D01*
X161655051Y-92457816D01*
X161659514Y-92449054D01*
X161707488Y-92398259D01*
X161775308Y-92381463D01*
X161841444Y-92403999D01*
X161880486Y-92449056D01*
X161884951Y-92457820D01*
X162009890Y-92629786D01*
X162160213Y-92780109D01*
X162332179Y-92905048D01*
X162332181Y-92905049D01*
X162332184Y-92905051D01*
X162521588Y-93001557D01*
X162723757Y-93067246D01*
X162933713Y-93100500D01*
X162933714Y-93100500D01*
X163146286Y-93100500D01*
X163146287Y-93100500D01*
X163356243Y-93067246D01*
X163558412Y-93001557D01*
X163747816Y-92905051D01*
X163864120Y-92820552D01*
X163919786Y-92780109D01*
X163919788Y-92780106D01*
X163919792Y-92780104D01*
X164070104Y-92629792D01*
X164070106Y-92629788D01*
X164070109Y-92629786D01*
X164195048Y-92457820D01*
X164195047Y-92457820D01*
X164195051Y-92457816D01*
X164291557Y-92268412D01*
X164357246Y-92066243D01*
X164390500Y-91856287D01*
X164390500Y-91643713D01*
X164357246Y-91433757D01*
X164291557Y-91231588D01*
X164195051Y-91042184D01*
X164195049Y-91042181D01*
X164195048Y-91042179D01*
X164070109Y-90870213D01*
X163919786Y-90719890D01*
X163747820Y-90594951D01*
X163747115Y-90594591D01*
X163739054Y-90590485D01*
X163688259Y-90542512D01*
X163671463Y-90474692D01*
X163693999Y-90408556D01*
X163739054Y-90369515D01*
X163747816Y-90365051D01*
X163831029Y-90304594D01*
X163919786Y-90240109D01*
X163919788Y-90240106D01*
X163919792Y-90240104D01*
X164070104Y-90089792D01*
X164070106Y-90089788D01*
X164070109Y-90089786D01*
X164195048Y-89917820D01*
X164195047Y-89917820D01*
X164195051Y-89917816D01*
X164291557Y-89728412D01*
X164357246Y-89526243D01*
X164390500Y-89316287D01*
X164390500Y-89103713D01*
X164357246Y-88893757D01*
X164291557Y-88691588D01*
X164195051Y-88502184D01*
X164195049Y-88502181D01*
X164195048Y-88502179D01*
X164070109Y-88330213D01*
X163919786Y-88179890D01*
X163747820Y-88054951D01*
X163558414Y-87958444D01*
X163558413Y-87958443D01*
X163558412Y-87958443D01*
X163356243Y-87892754D01*
X163356241Y-87892753D01*
X163356240Y-87892753D01*
X163194957Y-87867208D01*
X163146287Y-87859500D01*
X162933713Y-87859500D01*
X162885042Y-87867208D01*
X162723760Y-87892753D01*
X162521585Y-87958444D01*
X162332179Y-88054951D01*
X162160213Y-88179890D01*
X162009890Y-88330213D01*
X161884949Y-88502182D01*
X161880484Y-88510946D01*
X161832509Y-88561742D01*
X161764688Y-88578536D01*
X161698553Y-88555998D01*
X161659516Y-88510946D01*
X161655050Y-88502182D01*
X161530109Y-88330213D01*
X161379786Y-88179890D01*
X161207820Y-88054951D01*
X161207115Y-88054591D01*
X161199054Y-88050485D01*
X161148259Y-88002512D01*
X161131463Y-87934692D01*
X161153999Y-87868556D01*
X161199054Y-87829515D01*
X161207816Y-87825051D01*
X161311929Y-87749409D01*
X161379786Y-87700109D01*
X161379788Y-87700106D01*
X161379792Y-87700104D01*
X161530104Y-87549792D01*
X161530106Y-87549788D01*
X161530109Y-87549786D01*
X161655048Y-87377820D01*
X161655047Y-87377820D01*
X161655051Y-87377816D01*
X161751557Y-87188412D01*
X161817246Y-86986243D01*
X161850500Y-86776287D01*
X161850500Y-86563713D01*
X161817246Y-86353757D01*
X161751557Y-86151588D01*
X161655051Y-85962184D01*
X161655049Y-85962181D01*
X161655048Y-85962179D01*
X161530109Y-85790213D01*
X161379786Y-85639890D01*
X161207820Y-85514951D01*
X161018414Y-85418444D01*
X161018413Y-85418443D01*
X161018412Y-85418443D01*
X160816243Y-85352754D01*
X160816241Y-85352753D01*
X160816240Y-85352753D01*
X160654957Y-85327208D01*
X160606287Y-85319500D01*
X160393713Y-85319500D01*
X160345042Y-85327208D01*
X160183760Y-85352753D01*
X159981585Y-85418444D01*
X159792179Y-85514951D01*
X159620213Y-85639890D01*
X159469890Y-85790213D01*
X159344951Y-85962179D01*
X159248444Y-86151585D01*
X159182753Y-86353760D01*
X159160224Y-86496004D01*
X159149500Y-86563713D01*
X159149500Y-86776287D01*
X159182754Y-86986243D01*
X159199688Y-87038361D01*
X159248444Y-87188414D01*
X159344951Y-87377820D01*
X159469890Y-87549786D01*
X159620213Y-87700109D01*
X159792182Y-87825050D01*
X159800946Y-87829516D01*
X159851742Y-87877491D01*
X159868536Y-87945312D01*
X159845998Y-88011447D01*
X159800946Y-88050484D01*
X159792182Y-88054949D01*
X159620213Y-88179890D01*
X159469890Y-88330213D01*
X159344951Y-88502179D01*
X159248444Y-88691585D01*
X159182753Y-88893760D01*
X159149500Y-89103713D01*
X159149500Y-89316286D01*
X159182753Y-89526239D01*
X159248444Y-89728414D01*
X159344951Y-89917820D01*
X159469890Y-90089786D01*
X159620213Y-90240109D01*
X159792182Y-90365050D01*
X159800946Y-90369516D01*
X159851742Y-90417491D01*
X159868536Y-90485312D01*
X159845998Y-90551447D01*
X159800946Y-90590484D01*
X159792182Y-90594949D01*
X159620213Y-90719890D01*
X159469894Y-90870209D01*
X159468436Y-90872217D01*
X159467684Y-90872796D01*
X159466724Y-90873921D01*
X159466487Y-90873719D01*
X159413105Y-90914882D01*
X159343492Y-90920861D01*
X159281697Y-90888255D01*
X159257214Y-90852174D01*
X159256578Y-90852515D01*
X159253704Y-90847139D01*
X159160626Y-90707837D01*
X159042162Y-90589373D01*
X158902860Y-90496295D01*
X158748082Y-90432184D01*
X158748074Y-90432182D01*
X158583771Y-90399500D01*
X158583767Y-90399500D01*
X158416233Y-90399500D01*
X158416228Y-90399500D01*
X158251925Y-90432182D01*
X158251917Y-90432184D01*
X158097139Y-90496295D01*
X157957837Y-90589373D01*
X157839373Y-90707837D01*
X157742913Y-90852202D01*
X157740734Y-90850746D01*
X157699696Y-90892469D01*
X157631548Y-90907884D01*
X157615181Y-90905748D01*
X157583771Y-90899500D01*
X157583767Y-90899500D01*
X157416233Y-90899500D01*
X157416228Y-90899500D01*
X157251925Y-90932182D01*
X157251917Y-90932184D01*
X157097139Y-90996295D01*
X156957837Y-91089373D01*
X156839373Y-91207837D01*
X156746295Y-91347139D01*
X156682184Y-91501917D01*
X156682182Y-91501925D01*
X156649500Y-91666228D01*
X139933778Y-91666228D01*
X139942162Y-91660626D01*
X139959075Y-91643713D01*
X140030329Y-91572460D01*
X140060623Y-91542165D01*
X140060626Y-91542162D01*
X140153703Y-91402863D01*
X140217816Y-91248082D01*
X140250500Y-91083767D01*
X140250500Y-90916233D01*
X140217816Y-90751918D01*
X140153703Y-90597137D01*
X140086324Y-90496297D01*
X140060626Y-90457837D01*
X139942162Y-90339373D01*
X139802860Y-90246295D01*
X139648082Y-90182184D01*
X139648074Y-90182182D01*
X139483771Y-90149500D01*
X139483767Y-90149500D01*
X139316233Y-90149500D01*
X139316228Y-90149500D01*
X139151925Y-90182182D01*
X139151917Y-90182184D01*
X138997139Y-90246295D01*
X138857837Y-90339373D01*
X138739373Y-90457837D01*
X138646295Y-90597139D01*
X138582184Y-90751917D01*
X138582182Y-90751925D01*
X138549500Y-90916228D01*
X117310500Y-90916228D01*
X117310500Y-90861577D01*
X117279709Y-90667173D01*
X117242107Y-90551447D01*
X117218884Y-90479975D01*
X117218882Y-90479972D01*
X117218882Y-90479970D01*
X117160326Y-90365048D01*
X117129524Y-90304595D01*
X117013828Y-90145354D01*
X116874646Y-90006172D01*
X116715405Y-89890476D01*
X116663441Y-89863999D01*
X116540029Y-89801117D01*
X116352826Y-89740290D01*
X116158422Y-89709500D01*
X116158417Y-89709500D01*
X115961583Y-89709500D01*
X115961578Y-89709500D01*
X115767173Y-89740290D01*
X115579970Y-89801117D01*
X115404594Y-89890476D01*
X115366959Y-89917820D01*
X115245354Y-90006172D01*
X115245352Y-90006174D01*
X115245351Y-90006174D01*
X115106174Y-90145351D01*
X115106174Y-90145352D01*
X115106172Y-90145354D01*
X115056485Y-90213741D01*
X114990476Y-90304594D01*
X114901117Y-90479970D01*
X114840290Y-90667173D01*
X114809500Y-90861577D01*
X109690500Y-90861577D01*
X109659709Y-90667173D01*
X109622107Y-90551447D01*
X109598884Y-90479975D01*
X109598882Y-90479972D01*
X109598882Y-90479970D01*
X109540326Y-90365048D01*
X109509524Y-90304595D01*
X109393828Y-90145354D01*
X109254646Y-90006172D01*
X109095405Y-89890476D01*
X109043441Y-89863999D01*
X108920029Y-89801117D01*
X108732826Y-89740290D01*
X108538422Y-89709500D01*
X108538417Y-89709500D01*
X108341583Y-89709500D01*
X108341578Y-89709500D01*
X108147173Y-89740290D01*
X107959970Y-89801117D01*
X107784594Y-89890476D01*
X107746959Y-89917820D01*
X107625354Y-90006172D01*
X107625352Y-90006174D01*
X107625351Y-90006174D01*
X107486174Y-90145351D01*
X107486174Y-90145352D01*
X107486172Y-90145354D01*
X107436485Y-90213741D01*
X107370476Y-90304594D01*
X107281117Y-90479970D01*
X107220290Y-90667173D01*
X107189500Y-90861577D01*
X106200500Y-90861577D01*
X106200500Y-87389448D01*
X124599500Y-87389448D01*
X124599500Y-87570551D01*
X124627829Y-87749410D01*
X124683787Y-87921636D01*
X124683788Y-87921639D01*
X124702542Y-87958444D01*
X124751715Y-88054951D01*
X124766006Y-88082997D01*
X124872441Y-88229494D01*
X124872445Y-88229499D01*
X125000500Y-88357554D01*
X125000505Y-88357558D01*
X125128287Y-88450396D01*
X125147006Y-88463996D01*
X125221944Y-88502179D01*
X125308360Y-88546211D01*
X125308363Y-88546212D01*
X125356161Y-88561742D01*
X125480591Y-88602171D01*
X125563429Y-88615291D01*
X125659449Y-88630500D01*
X125659454Y-88630500D01*
X125840551Y-88630500D01*
X125927259Y-88616765D01*
X126019409Y-88602171D01*
X126191639Y-88546211D01*
X126352994Y-88463996D01*
X126499501Y-88357553D01*
X126627553Y-88229501D01*
X126733996Y-88082994D01*
X126816211Y-87921639D01*
X126872171Y-87749409D01*
X126886765Y-87657259D01*
X126900500Y-87570551D01*
X126900500Y-87389448D01*
X126884019Y-87285397D01*
X126872171Y-87210591D01*
X126816211Y-87038361D01*
X126816211Y-87038360D01*
X126787740Y-86982484D01*
X126733996Y-86877006D01*
X126660819Y-86776286D01*
X126627558Y-86730505D01*
X126627554Y-86730500D01*
X126499499Y-86602445D01*
X126499494Y-86602441D01*
X126352997Y-86496006D01*
X126352996Y-86496005D01*
X126352994Y-86496004D01*
X126301300Y-86469664D01*
X126191639Y-86413788D01*
X126191636Y-86413787D01*
X126019410Y-86357829D01*
X125840551Y-86329500D01*
X125840546Y-86329500D01*
X125659454Y-86329500D01*
X125659449Y-86329500D01*
X125480589Y-86357829D01*
X125308363Y-86413787D01*
X125308360Y-86413788D01*
X125147002Y-86496006D01*
X125000505Y-86602441D01*
X125000500Y-86602445D01*
X124872445Y-86730500D01*
X124872441Y-86730505D01*
X124766006Y-86877002D01*
X124683788Y-87038360D01*
X124683787Y-87038363D01*
X124627829Y-87210589D01*
X124599500Y-87389448D01*
X106200500Y-87389448D01*
X106200500Y-81901577D01*
X107189500Y-81901577D01*
X107189500Y-82098422D01*
X107220290Y-82292826D01*
X107281117Y-82480029D01*
X107370476Y-82655405D01*
X107486172Y-82814646D01*
X107625354Y-82953828D01*
X107784595Y-83069524D01*
X107907992Y-83132397D01*
X107961213Y-83159515D01*
X108012009Y-83207489D01*
X108028804Y-83275310D01*
X108006267Y-83341445D01*
X107961213Y-83380485D01*
X107784594Y-83470476D01*
X107693741Y-83536485D01*
X107625354Y-83586172D01*
X107625352Y-83586174D01*
X107625351Y-83586174D01*
X107486174Y-83725351D01*
X107486174Y-83725352D01*
X107486172Y-83725354D01*
X107470956Y-83746297D01*
X107370476Y-83884594D01*
X107281117Y-84059970D01*
X107220290Y-84247173D01*
X107189500Y-84441577D01*
X107189500Y-84638422D01*
X107220290Y-84832826D01*
X107281117Y-85020029D01*
X107370476Y-85195405D01*
X107486172Y-85354646D01*
X107625354Y-85493828D01*
X107784595Y-85609524D01*
X107844192Y-85639890D01*
X107959970Y-85698882D01*
X107959972Y-85698882D01*
X107959975Y-85698884D01*
X108060317Y-85731487D01*
X108147173Y-85759709D01*
X108341578Y-85790500D01*
X108341583Y-85790500D01*
X108538422Y-85790500D01*
X108732826Y-85759709D01*
X108768610Y-85748082D01*
X108920025Y-85698884D01*
X109095405Y-85609524D01*
X109254646Y-85493828D01*
X109393828Y-85354646D01*
X109509524Y-85195405D01*
X109598884Y-85020025D01*
X109659709Y-84832826D01*
X109673131Y-84748082D01*
X109690500Y-84638422D01*
X109690500Y-84441577D01*
X109659709Y-84247173D01*
X109598882Y-84059970D01*
X109539885Y-83944182D01*
X109509524Y-83884595D01*
X109393828Y-83725354D01*
X109254646Y-83586172D01*
X109175025Y-83528324D01*
X109095403Y-83470474D01*
X108918787Y-83380485D01*
X108867990Y-83332511D01*
X108851195Y-83264690D01*
X108873732Y-83198555D01*
X108918787Y-83159515D01*
X109095403Y-83069525D01*
X109095402Y-83069525D01*
X109095405Y-83069524D01*
X109254646Y-82953828D01*
X109393828Y-82814646D01*
X109509524Y-82655405D01*
X109598884Y-82480025D01*
X109659709Y-82292826D01*
X109681661Y-82154228D01*
X109690500Y-82098422D01*
X109690500Y-81901577D01*
X109659709Y-81707173D01*
X109598882Y-81519970D01*
X109531385Y-81387500D01*
X109509524Y-81344595D01*
X109393828Y-81185354D01*
X109254646Y-81046172D01*
X109095405Y-80930476D01*
X109095401Y-80930474D01*
X108920029Y-80841117D01*
X108732826Y-80780290D01*
X108538422Y-80749500D01*
X108538417Y-80749500D01*
X108341583Y-80749500D01*
X108341578Y-80749500D01*
X108147173Y-80780290D01*
X107959970Y-80841117D01*
X107784594Y-80930476D01*
X107693741Y-80996485D01*
X107625354Y-81046172D01*
X107625352Y-81046174D01*
X107625351Y-81046174D01*
X107486174Y-81185351D01*
X107486174Y-81185352D01*
X107486172Y-81185354D01*
X107440603Y-81248074D01*
X107370476Y-81344594D01*
X107281117Y-81519970D01*
X107220290Y-81707173D01*
X107189500Y-81901577D01*
X106200500Y-81901577D01*
X106200500Y-79361577D01*
X114809500Y-79361577D01*
X114809500Y-79558422D01*
X114840290Y-79752826D01*
X114901117Y-79940029D01*
X114981168Y-80097137D01*
X114990476Y-80115405D01*
X115106172Y-80274646D01*
X115245354Y-80413828D01*
X115404595Y-80529524D01*
X115527992Y-80592397D01*
X115581213Y-80619515D01*
X115632009Y-80667489D01*
X115648804Y-80735310D01*
X115626267Y-80801445D01*
X115581213Y-80840485D01*
X115404594Y-80930476D01*
X115313741Y-80996485D01*
X115245354Y-81046172D01*
X115245352Y-81046174D01*
X115245351Y-81046174D01*
X115106174Y-81185351D01*
X115106174Y-81185352D01*
X115106172Y-81185354D01*
X115060603Y-81248074D01*
X114990476Y-81344594D01*
X114901117Y-81519970D01*
X114840290Y-81707173D01*
X114809500Y-81901577D01*
X114809500Y-82098422D01*
X114840290Y-82292826D01*
X114901117Y-82480029D01*
X114990476Y-82655405D01*
X115106172Y-82814646D01*
X115245354Y-82953828D01*
X115404595Y-83069524D01*
X115527992Y-83132397D01*
X115581213Y-83159515D01*
X115632009Y-83207489D01*
X115648804Y-83275310D01*
X115626267Y-83341445D01*
X115581213Y-83380485D01*
X115404594Y-83470476D01*
X115313741Y-83536485D01*
X115245354Y-83586172D01*
X115245352Y-83586174D01*
X115245351Y-83586174D01*
X115106174Y-83725351D01*
X115106174Y-83725352D01*
X115106172Y-83725354D01*
X115090956Y-83746297D01*
X114990476Y-83884594D01*
X114901117Y-84059970D01*
X114840290Y-84247173D01*
X114809500Y-84441577D01*
X114809500Y-84638422D01*
X114840290Y-84832826D01*
X114901117Y-85020029D01*
X114990476Y-85195405D01*
X115106172Y-85354646D01*
X115245354Y-85493828D01*
X115404595Y-85609524D01*
X115464192Y-85639890D01*
X115579970Y-85698882D01*
X115579972Y-85698882D01*
X115579975Y-85698884D01*
X115680317Y-85731487D01*
X115767173Y-85759709D01*
X115961578Y-85790500D01*
X115961583Y-85790500D01*
X116158422Y-85790500D01*
X116352826Y-85759709D01*
X116388610Y-85748082D01*
X116540025Y-85698884D01*
X116715405Y-85609524D01*
X116874646Y-85493828D01*
X116952246Y-85416228D01*
X141149500Y-85416228D01*
X141149500Y-85583771D01*
X141182182Y-85748074D01*
X141182184Y-85748082D01*
X141246295Y-85902860D01*
X141339373Y-86042162D01*
X141457837Y-86160626D01*
X141550494Y-86222537D01*
X141597137Y-86253703D01*
X141751918Y-86317816D01*
X141916228Y-86350499D01*
X141916232Y-86350500D01*
X141916233Y-86350500D01*
X142083768Y-86350500D01*
X142083769Y-86350499D01*
X142248082Y-86317816D01*
X142402863Y-86253703D01*
X142542162Y-86160626D01*
X142660626Y-86042162D01*
X142753703Y-85902863D01*
X142817816Y-85748082D01*
X142850500Y-85583767D01*
X142850500Y-85416233D01*
X142833813Y-85332341D01*
X142840040Y-85262751D01*
X142882903Y-85207574D01*
X142948792Y-85184329D01*
X143016789Y-85200396D01*
X143024320Y-85205049D01*
X143094464Y-85251917D01*
X143097137Y-85253703D01*
X143251918Y-85317816D01*
X143416228Y-85350499D01*
X143416232Y-85350500D01*
X143416233Y-85350500D01*
X143583768Y-85350500D01*
X143583769Y-85350499D01*
X143748082Y-85317816D01*
X143902863Y-85253703D01*
X144042162Y-85160626D01*
X144160626Y-85042162D01*
X144253703Y-84902863D01*
X144317816Y-84748082D01*
X144331711Y-84678228D01*
X153399500Y-84678228D01*
X153399500Y-84845771D01*
X153432182Y-85010074D01*
X153432184Y-85010082D01*
X153496295Y-85164860D01*
X153589373Y-85304162D01*
X153707837Y-85422626D01*
X153744684Y-85447246D01*
X153847137Y-85515703D01*
X154001918Y-85579816D01*
X154151272Y-85609524D01*
X154166228Y-85612499D01*
X154166232Y-85612500D01*
X154166233Y-85612500D01*
X154333768Y-85612500D01*
X154333769Y-85612499D01*
X154498082Y-85579816D01*
X154652863Y-85515703D01*
X154792162Y-85422626D01*
X154910626Y-85304162D01*
X155003703Y-85164863D01*
X155067816Y-85010082D01*
X155100500Y-84845767D01*
X155100500Y-84678233D01*
X155067816Y-84513918D01*
X155003703Y-84359137D01*
X154932066Y-84251925D01*
X154910626Y-84219837D01*
X154792162Y-84101373D01*
X154675935Y-84023713D01*
X161689500Y-84023713D01*
X161689500Y-84236286D01*
X161718000Y-84416232D01*
X161722754Y-84446243D01*
X161785195Y-84638417D01*
X161788444Y-84648414D01*
X161884951Y-84837820D01*
X162009890Y-85009786D01*
X162160213Y-85160109D01*
X162332179Y-85285048D01*
X162332181Y-85285049D01*
X162332184Y-85285051D01*
X162521588Y-85381557D01*
X162723757Y-85447246D01*
X162933713Y-85480500D01*
X162933714Y-85480500D01*
X163146286Y-85480500D01*
X163146287Y-85480500D01*
X163356243Y-85447246D01*
X163558412Y-85381557D01*
X163747816Y-85285051D01*
X163854455Y-85207574D01*
X163919786Y-85160109D01*
X163919788Y-85160106D01*
X163919792Y-85160104D01*
X164070104Y-85009792D01*
X164070106Y-85009788D01*
X164070109Y-85009786D01*
X164195048Y-84837820D01*
X164195047Y-84837820D01*
X164195051Y-84837816D01*
X164291557Y-84648412D01*
X164357246Y-84446243D01*
X164390500Y-84236287D01*
X164390500Y-84023713D01*
X164357246Y-83813757D01*
X164291557Y-83611588D01*
X164195051Y-83422184D01*
X164195049Y-83422181D01*
X164195048Y-83422179D01*
X164070109Y-83250213D01*
X163919786Y-83099890D01*
X163747820Y-82974951D01*
X163558414Y-82878444D01*
X163558413Y-82878443D01*
X163558412Y-82878443D01*
X163356243Y-82812754D01*
X163356241Y-82812753D01*
X163356240Y-82812753D01*
X163194957Y-82787208D01*
X163146287Y-82779500D01*
X162933713Y-82779500D01*
X162885042Y-82787208D01*
X162723760Y-82812753D01*
X162521585Y-82878444D01*
X162332179Y-82974951D01*
X162160213Y-83099890D01*
X162009890Y-83250213D01*
X161884951Y-83422179D01*
X161788444Y-83611585D01*
X161722753Y-83813760D01*
X161689500Y-84023713D01*
X154675935Y-84023713D01*
X154652860Y-84008295D01*
X154498082Y-83944184D01*
X154498074Y-83944182D01*
X154333771Y-83911500D01*
X154333767Y-83911500D01*
X154166233Y-83911500D01*
X154166228Y-83911500D01*
X154001925Y-83944182D01*
X154001917Y-83944184D01*
X153847139Y-84008295D01*
X153707837Y-84101373D01*
X153589373Y-84219837D01*
X153496295Y-84359139D01*
X153432184Y-84513917D01*
X153432182Y-84513925D01*
X153399500Y-84678228D01*
X144331711Y-84678228D01*
X144337734Y-84647950D01*
X144350499Y-84583771D01*
X144350500Y-84583768D01*
X144350500Y-84416232D01*
X144350499Y-84416228D01*
X144317817Y-84251925D01*
X144317816Y-84251918D01*
X144253703Y-84097137D01*
X144222537Y-84050494D01*
X144160626Y-83957837D01*
X144042162Y-83839373D01*
X143902860Y-83746295D01*
X143748082Y-83682184D01*
X143748074Y-83682182D01*
X143583771Y-83649500D01*
X143583767Y-83649500D01*
X143416233Y-83649500D01*
X143416228Y-83649500D01*
X143251925Y-83682182D01*
X143251917Y-83682184D01*
X143097139Y-83746295D01*
X142957837Y-83839373D01*
X142839373Y-83957837D01*
X142746295Y-84097139D01*
X142682184Y-84251917D01*
X142682182Y-84251925D01*
X142649500Y-84416228D01*
X142649500Y-84583771D01*
X142666186Y-84667657D01*
X142659959Y-84737249D01*
X142617095Y-84792426D01*
X142551206Y-84815670D01*
X142483209Y-84799602D01*
X142475679Y-84794951D01*
X142453408Y-84780070D01*
X142402863Y-84746297D01*
X142402860Y-84746295D01*
X142402859Y-84746295D01*
X142248082Y-84682184D01*
X142248074Y-84682182D01*
X142083771Y-84649500D01*
X142083767Y-84649500D01*
X141916233Y-84649500D01*
X141916228Y-84649500D01*
X141751925Y-84682182D01*
X141751917Y-84682184D01*
X141597139Y-84746295D01*
X141457837Y-84839373D01*
X141339373Y-84957837D01*
X141246295Y-85097139D01*
X141182184Y-85251917D01*
X141182182Y-85251925D01*
X141149500Y-85416228D01*
X116952246Y-85416228D01*
X117013828Y-85354646D01*
X117129524Y-85195405D01*
X117218884Y-85020025D01*
X117279709Y-84832826D01*
X117293131Y-84748082D01*
X117310500Y-84638422D01*
X117310500Y-84441577D01*
X117279709Y-84247173D01*
X117218882Y-84059970D01*
X117159885Y-83944182D01*
X117129524Y-83884595D01*
X117013828Y-83725354D01*
X116874646Y-83586172D01*
X116795025Y-83528324D01*
X116715403Y-83470474D01*
X116538787Y-83380485D01*
X116487990Y-83332511D01*
X116471195Y-83264690D01*
X116493732Y-83198555D01*
X116538787Y-83159515D01*
X116715403Y-83069525D01*
X116715402Y-83069525D01*
X116715405Y-83069524D01*
X116874646Y-82953828D01*
X117013828Y-82814646D01*
X117129524Y-82655405D01*
X117218884Y-82480025D01*
X117279709Y-82292826D01*
X117301661Y-82154228D01*
X117304002Y-82139448D01*
X124599500Y-82139448D01*
X124599500Y-82320551D01*
X124627829Y-82499410D01*
X124683787Y-82671636D01*
X124683788Y-82671639D01*
X124766006Y-82832997D01*
X124872441Y-82979494D01*
X124872445Y-82979499D01*
X125000500Y-83107554D01*
X125000505Y-83107558D01*
X125071150Y-83158884D01*
X125147006Y-83213996D01*
X125218649Y-83250500D01*
X125308360Y-83296211D01*
X125308363Y-83296212D01*
X125382473Y-83320291D01*
X125480591Y-83352171D01*
X125563429Y-83365291D01*
X125659449Y-83380500D01*
X125659454Y-83380500D01*
X125840551Y-83380500D01*
X125927259Y-83366765D01*
X126019409Y-83352171D01*
X126191639Y-83296211D01*
X126352994Y-83213996D01*
X126499501Y-83107553D01*
X126627553Y-82979501D01*
X126733996Y-82832994D01*
X126816211Y-82671639D01*
X126872171Y-82499409D01*
X126886765Y-82407259D01*
X126900500Y-82320551D01*
X126900500Y-82154228D01*
X141899500Y-82154228D01*
X141899500Y-82321771D01*
X141932182Y-82486074D01*
X141932184Y-82486082D01*
X141996295Y-82640860D01*
X142089373Y-82780162D01*
X142207837Y-82898626D01*
X142290449Y-82953825D01*
X142347137Y-82991703D01*
X142501918Y-83055816D01*
X142666228Y-83088499D01*
X142666232Y-83088500D01*
X142666233Y-83088500D01*
X142833768Y-83088500D01*
X142833769Y-83088499D01*
X142998082Y-83055816D01*
X143152863Y-82991703D01*
X143292162Y-82898626D01*
X143410626Y-82780162D01*
X143503703Y-82640863D01*
X143567816Y-82486082D01*
X143600500Y-82321767D01*
X143600500Y-82154233D01*
X143567816Y-81989918D01*
X143503703Y-81835137D01*
X143449291Y-81753704D01*
X143410626Y-81695837D01*
X143292162Y-81577373D01*
X143152860Y-81484295D01*
X142998082Y-81420184D01*
X142998074Y-81420182D01*
X142833771Y-81387500D01*
X142833767Y-81387500D01*
X142666233Y-81387500D01*
X142666228Y-81387500D01*
X142501925Y-81420182D01*
X142501917Y-81420184D01*
X142347139Y-81484295D01*
X142207837Y-81577373D01*
X142089373Y-81695837D01*
X141996295Y-81835139D01*
X141932184Y-81989917D01*
X141932182Y-81989925D01*
X141899500Y-82154228D01*
X126900500Y-82154228D01*
X126900500Y-82139448D01*
X126876816Y-81989918D01*
X126872171Y-81960591D01*
X126825782Y-81817817D01*
X126816212Y-81788363D01*
X126816211Y-81788360D01*
X126751126Y-81660626D01*
X126733996Y-81627006D01*
X126720396Y-81608287D01*
X126627558Y-81480505D01*
X126627554Y-81480500D01*
X126499499Y-81352445D01*
X126499494Y-81352441D01*
X126352997Y-81246006D01*
X126352996Y-81246005D01*
X126352994Y-81246004D01*
X126301300Y-81219664D01*
X126191639Y-81163788D01*
X126191636Y-81163787D01*
X126019410Y-81107829D01*
X125840551Y-81079500D01*
X125840546Y-81079500D01*
X125659454Y-81079500D01*
X125659449Y-81079500D01*
X125480589Y-81107829D01*
X125308363Y-81163787D01*
X125308360Y-81163788D01*
X125147002Y-81246006D01*
X125000505Y-81352441D01*
X125000500Y-81352445D01*
X124872445Y-81480500D01*
X124872441Y-81480505D01*
X124766006Y-81627002D01*
X124683788Y-81788360D01*
X124683787Y-81788363D01*
X124627829Y-81960589D01*
X124599500Y-82139448D01*
X117304002Y-82139448D01*
X117307845Y-82115184D01*
X117307845Y-82115183D01*
X117310500Y-82098421D01*
X117310500Y-81901577D01*
X117279709Y-81707173D01*
X117218882Y-81519970D01*
X117151385Y-81387500D01*
X117129524Y-81344595D01*
X117013828Y-81185354D01*
X116874646Y-81046172D01*
X116779261Y-80976870D01*
X116715403Y-80930474D01*
X116687443Y-80916228D01*
X145399500Y-80916228D01*
X145399500Y-81083771D01*
X145432182Y-81248074D01*
X145432184Y-81248082D01*
X145496295Y-81402860D01*
X145589373Y-81542162D01*
X145707837Y-81660626D01*
X145800494Y-81722537D01*
X145847137Y-81753703D01*
X146001918Y-81817816D01*
X146166228Y-81850499D01*
X146166232Y-81850500D01*
X146166233Y-81850500D01*
X146333768Y-81850500D01*
X146333769Y-81850499D01*
X146498082Y-81817816D01*
X146652863Y-81753703D01*
X146792162Y-81660626D01*
X146910626Y-81542162D01*
X147003703Y-81402863D01*
X147067816Y-81248082D01*
X147100500Y-81083767D01*
X147100500Y-80916233D01*
X147067816Y-80751918D01*
X147003703Y-80597137D01*
X146994770Y-80583768D01*
X146924791Y-80479036D01*
X146924788Y-80479033D01*
X146910623Y-80457834D01*
X146869017Y-80416228D01*
X150149500Y-80416228D01*
X150149500Y-80583771D01*
X150182182Y-80748074D01*
X150182184Y-80748082D01*
X150246295Y-80902860D01*
X150339373Y-81042162D01*
X150457837Y-81160626D01*
X150550494Y-81222537D01*
X150597137Y-81253703D01*
X150751918Y-81317816D01*
X150916228Y-81350499D01*
X150916232Y-81350500D01*
X150916233Y-81350500D01*
X151083768Y-81350500D01*
X151083769Y-81350499D01*
X151248082Y-81317816D01*
X151402863Y-81253703D01*
X151542162Y-81160626D01*
X151660626Y-81042162D01*
X151753703Y-80902863D01*
X151817816Y-80748082D01*
X151850500Y-80583767D01*
X151850500Y-80416233D01*
X151817816Y-80251918D01*
X151753703Y-80097137D01*
X151722537Y-80050494D01*
X151660626Y-79957837D01*
X151542162Y-79839373D01*
X151402860Y-79746295D01*
X151248082Y-79682184D01*
X151248074Y-79682182D01*
X151083771Y-79649500D01*
X151083767Y-79649500D01*
X150916233Y-79649500D01*
X150916228Y-79649500D01*
X150751925Y-79682182D01*
X150751917Y-79682184D01*
X150597139Y-79746295D01*
X150457837Y-79839373D01*
X150339373Y-79957837D01*
X150246295Y-80097139D01*
X150182184Y-80251917D01*
X150182182Y-80251925D01*
X150149500Y-80416228D01*
X146869017Y-80416228D01*
X146792162Y-80339373D01*
X146652860Y-80246295D01*
X146498082Y-80182184D01*
X146498074Y-80182182D01*
X146333771Y-80149500D01*
X146333767Y-80149500D01*
X146166233Y-80149500D01*
X146166228Y-80149500D01*
X146001925Y-80182182D01*
X146001917Y-80182184D01*
X145847139Y-80246295D01*
X145707837Y-80339373D01*
X145589373Y-80457837D01*
X145496295Y-80597139D01*
X145432184Y-80751917D01*
X145432182Y-80751925D01*
X145399500Y-80916228D01*
X116687443Y-80916228D01*
X116538787Y-80840485D01*
X116487990Y-80792511D01*
X116471195Y-80724690D01*
X116493732Y-80658555D01*
X116538787Y-80619515D01*
X116715403Y-80529525D01*
X116715402Y-80529525D01*
X116715405Y-80529524D01*
X116874646Y-80413828D01*
X117013828Y-80274646D01*
X117129524Y-80115405D01*
X117218884Y-79940025D01*
X117279709Y-79752826D01*
X117280743Y-79746295D01*
X117310500Y-79558422D01*
X117310500Y-79361577D01*
X117279709Y-79167173D01*
X117225228Y-78999501D01*
X117218884Y-78979975D01*
X117218882Y-78979972D01*
X117218882Y-78979970D01*
X117129523Y-78804594D01*
X117013828Y-78645354D01*
X116874646Y-78506172D01*
X116715405Y-78390476D01*
X116540029Y-78301117D01*
X116484335Y-78283021D01*
X116437294Y-78267736D01*
X116352826Y-78240290D01*
X116158422Y-78209500D01*
X116158417Y-78209500D01*
X115961583Y-78209500D01*
X115961578Y-78209500D01*
X115767173Y-78240290D01*
X115579970Y-78301117D01*
X115404594Y-78390476D01*
X115313741Y-78456485D01*
X115245354Y-78506172D01*
X115245352Y-78506174D01*
X115245351Y-78506174D01*
X115106174Y-78645351D01*
X115106174Y-78645352D01*
X115106172Y-78645354D01*
X115072546Y-78691636D01*
X114990476Y-78804594D01*
X114901117Y-78979970D01*
X114840290Y-79167173D01*
X114809500Y-79361577D01*
X106200500Y-79361577D01*
X106200500Y-78159448D01*
X125869500Y-78159448D01*
X125869500Y-78340551D01*
X125897829Y-78519410D01*
X125953787Y-78691636D01*
X125953788Y-78691639D01*
X126036006Y-78852997D01*
X126142441Y-78999494D01*
X126142445Y-78999499D01*
X126270500Y-79127554D01*
X126270505Y-79127558D01*
X126398287Y-79220396D01*
X126417006Y-79233996D01*
X126522484Y-79287740D01*
X126578360Y-79316211D01*
X126578363Y-79316212D01*
X126664476Y-79344191D01*
X126750591Y-79372171D01*
X126833429Y-79385291D01*
X126929449Y-79400500D01*
X126929454Y-79400500D01*
X127110551Y-79400500D01*
X127197259Y-79386765D01*
X127289409Y-79372171D01*
X127461639Y-79316211D01*
X127622994Y-79233996D01*
X127769501Y-79127553D01*
X127897553Y-78999501D01*
X128003996Y-78852994D01*
X128086211Y-78691639D01*
X128142171Y-78519409D01*
X128162592Y-78390476D01*
X128170500Y-78340551D01*
X128170500Y-78159448D01*
X128154019Y-78055397D01*
X128142171Y-77980591D01*
X128086211Y-77808361D01*
X128086211Y-77808360D01*
X128057740Y-77752484D01*
X128003996Y-77647006D01*
X127990396Y-77628287D01*
X127897558Y-77500505D01*
X127897554Y-77500500D01*
X127769499Y-77372445D01*
X127769494Y-77372441D01*
X127622997Y-77266006D01*
X127622996Y-77266005D01*
X127622994Y-77266004D01*
X127571300Y-77239664D01*
X127461639Y-77183788D01*
X127461636Y-77183787D01*
X127289410Y-77127829D01*
X127110551Y-77099500D01*
X127110546Y-77099500D01*
X126929454Y-77099500D01*
X126929449Y-77099500D01*
X126750589Y-77127829D01*
X126578363Y-77183787D01*
X126578360Y-77183788D01*
X126417002Y-77266006D01*
X126270505Y-77372441D01*
X126270500Y-77372445D01*
X126142445Y-77500500D01*
X126142441Y-77500505D01*
X126036006Y-77647002D01*
X125953788Y-77808360D01*
X125953787Y-77808363D01*
X125897829Y-77980589D01*
X125869500Y-78159448D01*
X106200500Y-78159448D01*
X106200500Y-75166228D01*
X154649500Y-75166228D01*
X154649500Y-75333771D01*
X154682182Y-75498074D01*
X154682184Y-75498082D01*
X154746295Y-75652860D01*
X154839373Y-75792162D01*
X154957837Y-75910626D01*
X155050494Y-75972537D01*
X155097137Y-76003703D01*
X155251918Y-76067816D01*
X155416228Y-76100499D01*
X155416232Y-76100500D01*
X155416233Y-76100500D01*
X155583768Y-76100500D01*
X155583769Y-76100499D01*
X155748082Y-76067816D01*
X155902863Y-76003703D01*
X156042162Y-75910626D01*
X156160626Y-75792162D01*
X156253703Y-75652863D01*
X156317816Y-75498082D01*
X156350500Y-75333767D01*
X156350500Y-75166233D01*
X156317816Y-75001918D01*
X156253703Y-74847137D01*
X156191272Y-74753703D01*
X156160626Y-74707837D01*
X156042162Y-74589373D01*
X155902860Y-74496295D01*
X155748082Y-74432184D01*
X155748074Y-74432182D01*
X155583771Y-74399500D01*
X155583767Y-74399500D01*
X155416233Y-74399500D01*
X155416228Y-74399500D01*
X155251925Y-74432182D01*
X155251917Y-74432184D01*
X155097139Y-74496295D01*
X154957837Y-74589373D01*
X154839373Y-74707837D01*
X154746295Y-74847139D01*
X154682184Y-75001917D01*
X154682182Y-75001925D01*
X154649500Y-75166228D01*
X106200500Y-75166228D01*
X106200500Y-73916228D01*
X129399500Y-73916228D01*
X129399500Y-74083771D01*
X129432182Y-74248074D01*
X129432184Y-74248082D01*
X129496295Y-74402860D01*
X129589373Y-74542162D01*
X129707837Y-74660626D01*
X129778494Y-74707837D01*
X129847137Y-74753703D01*
X130001918Y-74817816D01*
X130149326Y-74847137D01*
X130166228Y-74850499D01*
X130166232Y-74850500D01*
X130166233Y-74850500D01*
X130333768Y-74850500D01*
X130333769Y-74850499D01*
X130498082Y-74817816D01*
X130652863Y-74753703D01*
X130792162Y-74660626D01*
X130910626Y-74542162D01*
X131003703Y-74402863D01*
X131067816Y-74248082D01*
X131100500Y-74083767D01*
X131100500Y-73916233D01*
X131067816Y-73751918D01*
X131003703Y-73597137D01*
X130966970Y-73542162D01*
X130910626Y-73457837D01*
X130792162Y-73339373D01*
X130652860Y-73246295D01*
X130498082Y-73182184D01*
X130498074Y-73182182D01*
X130333771Y-73149500D01*
X130333767Y-73149500D01*
X130166233Y-73149500D01*
X130166228Y-73149500D01*
X130001925Y-73182182D01*
X130001917Y-73182184D01*
X129847139Y-73246295D01*
X129707837Y-73339373D01*
X129589373Y-73457837D01*
X129496295Y-73597139D01*
X129432184Y-73751917D01*
X129432182Y-73751925D01*
X129399500Y-73916228D01*
X106200500Y-73916228D01*
X106200500Y-71909448D01*
X120099500Y-71909448D01*
X120099500Y-72090551D01*
X120127829Y-72269410D01*
X120183787Y-72441636D01*
X120183788Y-72441639D01*
X120266006Y-72602997D01*
X120372441Y-72749494D01*
X120372445Y-72749499D01*
X120500500Y-72877554D01*
X120500505Y-72877558D01*
X120628287Y-72970396D01*
X120647006Y-72983996D01*
X120752484Y-73037740D01*
X120808360Y-73066211D01*
X120808363Y-73066212D01*
X120862406Y-73083771D01*
X120980591Y-73122171D01*
X121063429Y-73135291D01*
X121159449Y-73150500D01*
X121159454Y-73150500D01*
X121340551Y-73150500D01*
X121427259Y-73136765D01*
X121519409Y-73122171D01*
X121691639Y-73066211D01*
X121852994Y-72983996D01*
X121946269Y-72916228D01*
X158649500Y-72916228D01*
X158649500Y-73083771D01*
X158682182Y-73248074D01*
X158682184Y-73248082D01*
X158746295Y-73402860D01*
X158839373Y-73542162D01*
X158957837Y-73660626D01*
X159050494Y-73722537D01*
X159097137Y-73753703D01*
X159251918Y-73817816D01*
X159416228Y-73850499D01*
X159416232Y-73850500D01*
X159416233Y-73850500D01*
X159583768Y-73850500D01*
X159583769Y-73850499D01*
X159748082Y-73817816D01*
X159902863Y-73753703D01*
X160042162Y-73660626D01*
X160160626Y-73542162D01*
X160253703Y-73402863D01*
X160317816Y-73248082D01*
X160350500Y-73083767D01*
X160350500Y-72916233D01*
X160317816Y-72751918D01*
X160253703Y-72597137D01*
X160222537Y-72550494D01*
X160160626Y-72457837D01*
X160042162Y-72339373D01*
X159902860Y-72246295D01*
X159748082Y-72182184D01*
X159748074Y-72182182D01*
X159583771Y-72149500D01*
X159583767Y-72149500D01*
X159416233Y-72149500D01*
X159416228Y-72149500D01*
X159251925Y-72182182D01*
X159251917Y-72182184D01*
X159097139Y-72246295D01*
X158957837Y-72339373D01*
X158839373Y-72457837D01*
X158746295Y-72597139D01*
X158682184Y-72751917D01*
X158682182Y-72751925D01*
X158649500Y-72916228D01*
X121946269Y-72916228D01*
X121999501Y-72877553D01*
X122127553Y-72749501D01*
X122233996Y-72602994D01*
X122316211Y-72441639D01*
X122372171Y-72269409D01*
X122391163Y-72149500D01*
X122400500Y-72090551D01*
X122400500Y-71909448D01*
X122384019Y-71805397D01*
X122372171Y-71730591D01*
X122316211Y-71558361D01*
X122316211Y-71558360D01*
X122287740Y-71502484D01*
X122233996Y-71397006D01*
X122220396Y-71378287D01*
X122127558Y-71250505D01*
X122127554Y-71250500D01*
X121999499Y-71122445D01*
X121999494Y-71122441D01*
X121852997Y-71016006D01*
X121852996Y-71016005D01*
X121852994Y-71016004D01*
X121801300Y-70989664D01*
X121691639Y-70933788D01*
X121691636Y-70933787D01*
X121519410Y-70877829D01*
X121340551Y-70849500D01*
X121340546Y-70849500D01*
X121159454Y-70849500D01*
X121159449Y-70849500D01*
X120980589Y-70877829D01*
X120808363Y-70933787D01*
X120808360Y-70933788D01*
X120647002Y-71016006D01*
X120500505Y-71122441D01*
X120500500Y-71122445D01*
X120372445Y-71250500D01*
X120372441Y-71250505D01*
X120266006Y-71397002D01*
X120183788Y-71558360D01*
X120183787Y-71558363D01*
X120127829Y-71730589D01*
X120099500Y-71909448D01*
X106200500Y-71909448D01*
X106200500Y-69348543D01*
X127999499Y-69348543D01*
X128037947Y-69541829D01*
X128037950Y-69541839D01*
X128113364Y-69723907D01*
X128113371Y-69723920D01*
X128222860Y-69887781D01*
X128222863Y-69887785D01*
X128362214Y-70027136D01*
X128362218Y-70027139D01*
X128526079Y-70136628D01*
X128526092Y-70136635D01*
X128708160Y-70212049D01*
X128708165Y-70212051D01*
X128708169Y-70212051D01*
X128708170Y-70212052D01*
X128901456Y-70250500D01*
X128901459Y-70250500D01*
X129098543Y-70250500D01*
X129228582Y-70224632D01*
X129291835Y-70212051D01*
X129473914Y-70136632D01*
X129637782Y-70027139D01*
X129777139Y-69887782D01*
X129886632Y-69723914D01*
X129962051Y-69541835D01*
X129968217Y-69510834D01*
X129992364Y-69389448D01*
X137187000Y-69389448D01*
X137187000Y-69570551D01*
X137215329Y-69749410D01*
X137271287Y-69921636D01*
X137271288Y-69921639D01*
X137353506Y-70082997D01*
X137459941Y-70229494D01*
X137459945Y-70229499D01*
X137588000Y-70357554D01*
X137588005Y-70357558D01*
X137715787Y-70450396D01*
X137734506Y-70463996D01*
X137839984Y-70517740D01*
X137895860Y-70546211D01*
X137895863Y-70546212D01*
X137981976Y-70574191D01*
X138068091Y-70602171D01*
X138150929Y-70615291D01*
X138246949Y-70630500D01*
X138246954Y-70630500D01*
X138428051Y-70630500D01*
X138514759Y-70616765D01*
X138606909Y-70602171D01*
X138779139Y-70546211D01*
X138940494Y-70463996D01*
X139087001Y-70357553D01*
X139215053Y-70229501D01*
X139321496Y-70082994D01*
X139403711Y-69921639D01*
X139459671Y-69749409D01*
X139474265Y-69657259D01*
X139488000Y-69570551D01*
X139488000Y-69389448D01*
X139471519Y-69285397D01*
X139459671Y-69210591D01*
X139423265Y-69098543D01*
X152499499Y-69098543D01*
X152537947Y-69291829D01*
X152537950Y-69291839D01*
X152613364Y-69473907D01*
X152613371Y-69473920D01*
X152722860Y-69637781D01*
X152722863Y-69637785D01*
X152862214Y-69777136D01*
X152862218Y-69777139D01*
X153026079Y-69886628D01*
X153026092Y-69886635D01*
X153208160Y-69962049D01*
X153208165Y-69962051D01*
X153208169Y-69962051D01*
X153208170Y-69962052D01*
X153401456Y-70000500D01*
X153401459Y-70000500D01*
X153598543Y-70000500D01*
X153728582Y-69974632D01*
X153791835Y-69962051D01*
X153932655Y-69903721D01*
X153973907Y-69886635D01*
X153973907Y-69886634D01*
X153973914Y-69886632D01*
X154137782Y-69777139D01*
X154277139Y-69637782D01*
X154386632Y-69473914D01*
X154462051Y-69291835D01*
X154489974Y-69151459D01*
X154500500Y-69098543D01*
X154500500Y-68901456D01*
X154462052Y-68708170D01*
X154462051Y-68708169D01*
X154462051Y-68708165D01*
X154418259Y-68602441D01*
X154386635Y-68526092D01*
X154386628Y-68526079D01*
X154277139Y-68362218D01*
X154277136Y-68362214D01*
X154137785Y-68222863D01*
X154137781Y-68222860D01*
X153973920Y-68113371D01*
X153973907Y-68113364D01*
X153791839Y-68037950D01*
X153791829Y-68037947D01*
X153598543Y-67999500D01*
X153598541Y-67999500D01*
X153401459Y-67999500D01*
X153401457Y-67999500D01*
X153208170Y-68037947D01*
X153208160Y-68037950D01*
X153026092Y-68113364D01*
X153026079Y-68113371D01*
X152862218Y-68222860D01*
X152862214Y-68222863D01*
X152722863Y-68362214D01*
X152722860Y-68362218D01*
X152613371Y-68526079D01*
X152613364Y-68526092D01*
X152537950Y-68708160D01*
X152537947Y-68708170D01*
X152499500Y-68901456D01*
X152499500Y-68901459D01*
X152499500Y-69098541D01*
X152499500Y-69098543D01*
X152499499Y-69098543D01*
X139423265Y-69098543D01*
X139403711Y-69038361D01*
X139403709Y-69038355D01*
X139359536Y-68951663D01*
X139359535Y-68951662D01*
X139321496Y-68877006D01*
X139248169Y-68776079D01*
X139215058Y-68730505D01*
X139215054Y-68730500D01*
X139086999Y-68602445D01*
X139086994Y-68602441D01*
X138940497Y-68496006D01*
X138940496Y-68496005D01*
X138940494Y-68496004D01*
X138888800Y-68469664D01*
X138779139Y-68413788D01*
X138779136Y-68413787D01*
X138606910Y-68357829D01*
X138428051Y-68329500D01*
X138428046Y-68329500D01*
X138246954Y-68329500D01*
X138246949Y-68329500D01*
X138068089Y-68357829D01*
X137895863Y-68413787D01*
X137895860Y-68413788D01*
X137734502Y-68496006D01*
X137588005Y-68602441D01*
X137588000Y-68602445D01*
X137459945Y-68730500D01*
X137459941Y-68730505D01*
X137353506Y-68877002D01*
X137271288Y-69038360D01*
X137271287Y-69038363D01*
X137215329Y-69210589D01*
X137187000Y-69389448D01*
X129992364Y-69389448D01*
X129998144Y-69360390D01*
X130000500Y-69348543D01*
X130000500Y-69151456D01*
X129962052Y-68958170D01*
X129962051Y-68958169D01*
X129962051Y-68958165D01*
X129928434Y-68877006D01*
X129886635Y-68776092D01*
X129886628Y-68776079D01*
X129777139Y-68612218D01*
X129777136Y-68612214D01*
X129637785Y-68472863D01*
X129637781Y-68472860D01*
X129473920Y-68363371D01*
X129473907Y-68363364D01*
X129291839Y-68287950D01*
X129291829Y-68287947D01*
X129098543Y-68249500D01*
X129098541Y-68249500D01*
X128901459Y-68249500D01*
X128901457Y-68249500D01*
X128708170Y-68287947D01*
X128708160Y-68287950D01*
X128526092Y-68363364D01*
X128526079Y-68363371D01*
X128362218Y-68472860D01*
X128362214Y-68472863D01*
X128222863Y-68612214D01*
X128222860Y-68612218D01*
X128113371Y-68776079D01*
X128113364Y-68776092D01*
X128037950Y-68958160D01*
X128037947Y-68958170D01*
X127999500Y-69151456D01*
X127999500Y-69151459D01*
X127999500Y-69348541D01*
X127999500Y-69348543D01*
X127999499Y-69348543D01*
X106200500Y-69348543D01*
X106200500Y-61896530D01*
X110099500Y-61896530D01*
X110099500Y-62103469D01*
X110139868Y-62306412D01*
X110139870Y-62306420D01*
X110219058Y-62497596D01*
X110334024Y-62669657D01*
X110480342Y-62815975D01*
X110480345Y-62815977D01*
X110652402Y-62930941D01*
X110843580Y-63010130D01*
X111046530Y-63050499D01*
X111046534Y-63050500D01*
X111046535Y-63050500D01*
X111253466Y-63050500D01*
X111253467Y-63050499D01*
X111456420Y-63010130D01*
X111647598Y-62930941D01*
X111819655Y-62815977D01*
X111965977Y-62669655D01*
X112080941Y-62497598D01*
X112160130Y-62306420D01*
X112200500Y-62103465D01*
X112200500Y-61909448D01*
X114499500Y-61909448D01*
X114499500Y-62090551D01*
X114527829Y-62269410D01*
X114583787Y-62441636D01*
X114583788Y-62441639D01*
X114666006Y-62602997D01*
X114772441Y-62749494D01*
X114772445Y-62749499D01*
X114900500Y-62877554D01*
X114900505Y-62877558D01*
X115028287Y-62970396D01*
X115047006Y-62983996D01*
X115098299Y-63010131D01*
X115208360Y-63066211D01*
X115208363Y-63066212D01*
X115294476Y-63094191D01*
X115380591Y-63122171D01*
X115463429Y-63135291D01*
X115559449Y-63150500D01*
X115559454Y-63150500D01*
X115740551Y-63150500D01*
X115827259Y-63136765D01*
X115919409Y-63122171D01*
X116091639Y-63066211D01*
X116252994Y-62983996D01*
X116399501Y-62877553D01*
X116527553Y-62749501D01*
X116633996Y-62602994D01*
X116716211Y-62441639D01*
X116772171Y-62269409D01*
X116786765Y-62177259D01*
X116800500Y-62090551D01*
X116800500Y-61909448D01*
X116784019Y-61805397D01*
X116772171Y-61730591D01*
X116716211Y-61558361D01*
X116716211Y-61558360D01*
X116686729Y-61500500D01*
X116633996Y-61397006D01*
X116546906Y-61277136D01*
X116527558Y-61250505D01*
X116527554Y-61250500D01*
X116399499Y-61122445D01*
X116399494Y-61122441D01*
X116252997Y-61016006D01*
X116252996Y-61016005D01*
X116252994Y-61016004D01*
X116201300Y-60989664D01*
X116091639Y-60933788D01*
X116091636Y-60933787D01*
X115919410Y-60877829D01*
X115740551Y-60849500D01*
X115740546Y-60849500D01*
X115559454Y-60849500D01*
X115559449Y-60849500D01*
X115380589Y-60877829D01*
X115208363Y-60933787D01*
X115208360Y-60933788D01*
X115047002Y-61016006D01*
X114900505Y-61122441D01*
X114900500Y-61122445D01*
X114772445Y-61250500D01*
X114772441Y-61250505D01*
X114666006Y-61397002D01*
X114583788Y-61558360D01*
X114583787Y-61558363D01*
X114527829Y-61730589D01*
X114499500Y-61909448D01*
X112200500Y-61909448D01*
X112200500Y-61896535D01*
X112160130Y-61693580D01*
X112080941Y-61502402D01*
X111965977Y-61330345D01*
X111965975Y-61330342D01*
X111819657Y-61184024D01*
X111727490Y-61122441D01*
X111647598Y-61069059D01*
X111456420Y-60989870D01*
X111456412Y-60989868D01*
X111253469Y-60949500D01*
X111253465Y-60949500D01*
X111046535Y-60949500D01*
X111046530Y-60949500D01*
X110843587Y-60989868D01*
X110843579Y-60989870D01*
X110652403Y-61069058D01*
X110480342Y-61184024D01*
X110334024Y-61330342D01*
X110219058Y-61502403D01*
X110139870Y-61693579D01*
X110139868Y-61693587D01*
X110099500Y-61896530D01*
X106200500Y-61896530D01*
X106200500Y-60598543D01*
X145749499Y-60598543D01*
X145787947Y-60791829D01*
X145787950Y-60791839D01*
X145863364Y-60973907D01*
X145863371Y-60973920D01*
X145972860Y-61137781D01*
X145972863Y-61137785D01*
X146112214Y-61277136D01*
X146112218Y-61277139D01*
X146276079Y-61386628D01*
X146276092Y-61386635D01*
X146458160Y-61462049D01*
X146458165Y-61462051D01*
X146458169Y-61462051D01*
X146458170Y-61462052D01*
X146651456Y-61500500D01*
X146651459Y-61500500D01*
X146848543Y-61500500D01*
X146978582Y-61474632D01*
X147041835Y-61462051D01*
X147198869Y-61397006D01*
X147223907Y-61386635D01*
X147223907Y-61386634D01*
X147223914Y-61386632D01*
X147387782Y-61277139D01*
X147527139Y-61137782D01*
X147636632Y-60973914D01*
X147712051Y-60791835D01*
X147750500Y-60598541D01*
X147750500Y-60401459D01*
X147750500Y-60401456D01*
X147712052Y-60208170D01*
X147712051Y-60208169D01*
X147712051Y-60208165D01*
X147712049Y-60208160D01*
X147636635Y-60026092D01*
X147636628Y-60026079D01*
X147527139Y-59862218D01*
X147527136Y-59862214D01*
X147387785Y-59722863D01*
X147387781Y-59722860D01*
X147223920Y-59613371D01*
X147223907Y-59613364D01*
X147041839Y-59537950D01*
X147041829Y-59537947D01*
X146848543Y-59499500D01*
X146848541Y-59499500D01*
X146651459Y-59499500D01*
X146651457Y-59499500D01*
X146458170Y-59537947D01*
X146458160Y-59537950D01*
X146276092Y-59613364D01*
X146276079Y-59613371D01*
X146112218Y-59722860D01*
X146112214Y-59722863D01*
X145972863Y-59862214D01*
X145972860Y-59862218D01*
X145863371Y-60026079D01*
X145863364Y-60026092D01*
X145787950Y-60208160D01*
X145787947Y-60208170D01*
X145749500Y-60401456D01*
X145749500Y-60401459D01*
X145749500Y-60598541D01*
X145749500Y-60598543D01*
X145749499Y-60598543D01*
X106200500Y-60598543D01*
X106200500Y-57848543D01*
X150749499Y-57848543D01*
X150787947Y-58041829D01*
X150787950Y-58041839D01*
X150863364Y-58223907D01*
X150863371Y-58223920D01*
X150972860Y-58387781D01*
X150972863Y-58387785D01*
X151112214Y-58527136D01*
X151112218Y-58527139D01*
X151276079Y-58636628D01*
X151276092Y-58636635D01*
X151458160Y-58712049D01*
X151458165Y-58712051D01*
X151458169Y-58712051D01*
X151458170Y-58712052D01*
X151651456Y-58750500D01*
X151651459Y-58750500D01*
X151848543Y-58750500D01*
X151978582Y-58724632D01*
X152041835Y-58712051D01*
X152223914Y-58636632D01*
X152387782Y-58527139D01*
X152527139Y-58387782D01*
X152636632Y-58223914D01*
X152712051Y-58041835D01*
X152750500Y-57848541D01*
X152750500Y-57651459D01*
X152750500Y-57651456D01*
X152712052Y-57458170D01*
X152712051Y-57458169D01*
X152712051Y-57458165D01*
X152676066Y-57371288D01*
X152636635Y-57276092D01*
X152636628Y-57276079D01*
X152581480Y-57193544D01*
X152538159Y-57128711D01*
X160899500Y-57128711D01*
X160899500Y-57371288D01*
X160931161Y-57611785D01*
X160993947Y-57846104D01*
X161086773Y-58070205D01*
X161086776Y-58070212D01*
X161208064Y-58280289D01*
X161208066Y-58280292D01*
X161208067Y-58280293D01*
X161355733Y-58472736D01*
X161355739Y-58472743D01*
X161527256Y-58644260D01*
X161527262Y-58644265D01*
X161719711Y-58791936D01*
X161929788Y-58913224D01*
X162153900Y-59006054D01*
X162388211Y-59068838D01*
X162568586Y-59092584D01*
X162628711Y-59100500D01*
X162628712Y-59100500D01*
X162871289Y-59100500D01*
X162919388Y-59094167D01*
X163111789Y-59068838D01*
X163346100Y-59006054D01*
X163570212Y-58913224D01*
X163780289Y-58791936D01*
X163972738Y-58644265D01*
X164144265Y-58472738D01*
X164291936Y-58280289D01*
X164413224Y-58070212D01*
X164506054Y-57846100D01*
X164568838Y-57611789D01*
X164600500Y-57371288D01*
X164600500Y-57128712D01*
X164600351Y-57127584D01*
X164572898Y-56919054D01*
X164568838Y-56888211D01*
X164506054Y-56653900D01*
X164413224Y-56429788D01*
X164291936Y-56219711D01*
X164144265Y-56027262D01*
X164144260Y-56027256D01*
X163972743Y-55855739D01*
X163972736Y-55855733D01*
X163780293Y-55708067D01*
X163780292Y-55708066D01*
X163780289Y-55708064D01*
X163570212Y-55586776D01*
X163570205Y-55586773D01*
X163346104Y-55493947D01*
X163111785Y-55431161D01*
X162871289Y-55399500D01*
X162871288Y-55399500D01*
X162628712Y-55399500D01*
X162628711Y-55399500D01*
X162388214Y-55431161D01*
X162153895Y-55493947D01*
X161929794Y-55586773D01*
X161929785Y-55586777D01*
X161719706Y-55708067D01*
X161527263Y-55855733D01*
X161527256Y-55855739D01*
X161355739Y-56027256D01*
X161355733Y-56027263D01*
X161208067Y-56219706D01*
X161086777Y-56429785D01*
X161086773Y-56429794D01*
X160993947Y-56653895D01*
X160931161Y-56888214D01*
X160899500Y-57128711D01*
X152538159Y-57128711D01*
X152527139Y-57112218D01*
X152527136Y-57112214D01*
X152387785Y-56972863D01*
X152387781Y-56972860D01*
X152223920Y-56863371D01*
X152223907Y-56863364D01*
X152041839Y-56787950D01*
X152041829Y-56787947D01*
X151848543Y-56749500D01*
X151848541Y-56749500D01*
X151651459Y-56749500D01*
X151651457Y-56749500D01*
X151458170Y-56787947D01*
X151458160Y-56787950D01*
X151276092Y-56863364D01*
X151276079Y-56863371D01*
X151112218Y-56972860D01*
X151112214Y-56972863D01*
X150972863Y-57112214D01*
X150972860Y-57112218D01*
X150863371Y-57276079D01*
X150863364Y-57276092D01*
X150787950Y-57458160D01*
X150787947Y-57458170D01*
X150749500Y-57651456D01*
X150749500Y-57651459D01*
X150749500Y-57848541D01*
X150749500Y-57848543D01*
X150749499Y-57848543D01*
X106200500Y-57848543D01*
X106200500Y-57503052D01*
X106200649Y-57496968D01*
X106214741Y-57210118D01*
X106218497Y-57133659D01*
X106219690Y-57121555D01*
X106221076Y-57112214D01*
X106272614Y-56764765D01*
X106274981Y-56752863D01*
X106362631Y-56402947D01*
X106366152Y-56391341D01*
X106487672Y-56051717D01*
X106492314Y-56040509D01*
X106646547Y-55714409D01*
X106652262Y-55703717D01*
X106837704Y-55394327D01*
X106844447Y-55384234D01*
X106870917Y-55348543D01*
X150749499Y-55348543D01*
X150787947Y-55541829D01*
X150787950Y-55541839D01*
X150863364Y-55723907D01*
X150863371Y-55723920D01*
X150972860Y-55887781D01*
X150972863Y-55887785D01*
X151112214Y-56027136D01*
X151112218Y-56027139D01*
X151276079Y-56136628D01*
X151276092Y-56136635D01*
X151458160Y-56212049D01*
X151458165Y-56212051D01*
X151458169Y-56212051D01*
X151458170Y-56212052D01*
X151651456Y-56250500D01*
X151651459Y-56250500D01*
X151848543Y-56250500D01*
X152003708Y-56219635D01*
X152041835Y-56212051D01*
X152223914Y-56136632D01*
X152387782Y-56027139D01*
X152527139Y-55887782D01*
X152636632Y-55723914D01*
X152712051Y-55541835D01*
X152729556Y-55453834D01*
X152750500Y-55348543D01*
X152750500Y-55151456D01*
X152712052Y-54958170D01*
X152712051Y-54958169D01*
X152712051Y-54958165D01*
X152653936Y-54817861D01*
X152636635Y-54776092D01*
X152636628Y-54776079D01*
X152527139Y-54612218D01*
X152527136Y-54612214D01*
X152387785Y-54472863D01*
X152387781Y-54472860D01*
X152223920Y-54363371D01*
X152223907Y-54363364D01*
X152041839Y-54287950D01*
X152041829Y-54287947D01*
X151848543Y-54249500D01*
X151848541Y-54249500D01*
X151651459Y-54249500D01*
X151651457Y-54249500D01*
X151458170Y-54287947D01*
X151458160Y-54287950D01*
X151276092Y-54363364D01*
X151276079Y-54363371D01*
X151112218Y-54472860D01*
X151112214Y-54472863D01*
X150972863Y-54612214D01*
X150972860Y-54612218D01*
X150863371Y-54776079D01*
X150863364Y-54776092D01*
X150787950Y-54958160D01*
X150787947Y-54958170D01*
X150749500Y-55151456D01*
X150749500Y-55151459D01*
X150749500Y-55348541D01*
X150749500Y-55348543D01*
X150749499Y-55348543D01*
X106870917Y-55348543D01*
X107059329Y-55094500D01*
X107067032Y-55085115D01*
X107309273Y-54817843D01*
X107317843Y-54809273D01*
X107585115Y-54567032D01*
X107594500Y-54559329D01*
X107884234Y-54344447D01*
X107894327Y-54337704D01*
X108203717Y-54152262D01*
X108214409Y-54146547D01*
X108540509Y-53992314D01*
X108551717Y-53987672D01*
X108891341Y-53866152D01*
X108902947Y-53862631D01*
X109252863Y-53774981D01*
X109264765Y-53772614D01*
X109621561Y-53719689D01*
X109633659Y-53718497D01*
X109942885Y-53703305D01*
X109996968Y-53700649D01*
X110003052Y-53700500D01*
X110039882Y-53700500D01*
X162710118Y-53700500D01*
X162746949Y-53700500D01*
X162753032Y-53700648D01*
G37*
%TD.AperFunction*%
%TD*%
M02*
